<?xml version="1.0" encoding="UTF-8" standalone="no"?>
<!DOCTYPE svg PUBLIC "-//W3C//DTD SVG 1.1//EN"
 "http://www.w3.org/Graphics/SVG/1.1/DTD/svg11.dtd">
<!-- Generated by graphviz version 15.1.0 (20260618.0150)
 -->
<!-- Pages: 1 -->
<svg width="5679pt" height="212pt"
 viewBox="0.00 0.00 5679.00 212.00" xmlns="http://www.w3.org/2000/svg" xmlns:xlink="http://www.w3.org/1999/xlink">
<g id="graph0" class="graph" transform="scale(1 1) rotate(0) translate(4 207.75)">
<polygon fill="#ffffff" stroke="none" points="-4,4 -4,-207.75 5674.75,-207.75 5674.75,4 -4,4"/>
<!-- ATF_SENSOR -->
<g id="node1" class="node">
<title>ATF_SENSOR</title>
<polygon fill="#ffffff" stroke="black" points="1496,-172.25 0,-172.25 0,-53.5 1496,-53.5 1496,-172.25"/>
<polygon fill="none" stroke="black" points="0,-148.5 0,-172.25 1496,-172.25 1496,-148.5 0,-148.5"/>
<text xml:space="preserve" text-anchor="start" x="703" y="-155.5" font-family="arial" font-size="14.00">ATF_SENSOR</text>
<polygon fill="none" stroke="black" points="0,-124.75 0,-148.5 578.42,-148.5 578.42,-124.75 0,-124.75"/>
<text xml:space="preserve" text-anchor="start" x="108.46" y="-131.75" font-family="arial" font-size="14.00">MaxxECU 1/8 NPT NTC temp sensor ID 1280 + 2&#45;way DTM</text>
<polygon fill="none" stroke="black" points="578.42,-124.75 578.42,-148.5 1249.08,-148.5 1249.08,-124.75 578.42,-124.75"/>
<text xml:space="preserve" text-anchor="start" x="686.88" y="-131.75" font-family="arial" font-size="14.00">CLT/water/oil NTC — threaded into Vibrant 16488 adapter in ATF return line</text>
<polygon fill="none" stroke="black" points="1249.08,-124.75 1249.08,-148.5 1496,-148.5 1496,-124.75 1249.08,-124.75"/>
<text xml:space="preserve" text-anchor="start" x="1357.54" y="-131.75" font-family="arial" font-size="14.00">2&#45;pin</text>
<polygon fill="none" stroke="black" points="0,-101 0,-124.75 763,-124.75 763,-101 0,-101"/>
<text xml:space="preserve" text-anchor="start" x="362.75" y="-108" font-family="arial" font-size="14.00">Signal</text>
<polygon fill="none" stroke="black" points="763,-101 763,-124.75 1496,-124.75 1496,-101 763,-101"/>
<text xml:space="preserve" text-anchor="start" x="1125.75" y="-108" font-family="arial" font-size="14.00">1</text>
<polygon fill="none" stroke="black" points="0,-77.25 0,-101 763,-101 763,-77.25 0,-77.25"/>
<text xml:space="preserve" text-anchor="start" x="366.12" y="-84.25" font-family="arial" font-size="14.00">GND</text>
<polygon fill="none" stroke="black" points="763,-77.25 763,-101 1496,-101 1496,-77.25 763,-77.25"/>
<text xml:space="preserve" text-anchor="start" x="1125.75" y="-84.25" font-family="arial" font-size="14.00">2</text>
<polygon fill="none" stroke="black" points="0,-53.5 0,-77.25 1496,-77.25 1496,-53.5 0,-53.5"/>
<text xml:space="preserve" text-anchor="start" x="4" y="-60.5" font-family="arial" font-size="14.00">Non&#45;polarity sensitive — either wire can be signal or GND. Sensor installed in Vibrant 16488 inline &#45;8AN adapter, return line (post&#45;Setrab cooler, before TCH&#45;102&#45;T2 entry back to trans). Thread sealant on 1/8 NPT threads; do not apply to AN threads.</text>
</g>
<!-- W_ATF_TEMP -->
<g id="node3" class="node">
<title>W_ATF_TEMP</title>
<polygon fill="#ffffff" stroke="black" points="3812.5,-203.75 1640,-203.75 1640,0 3812.5,0 3812.5,-203.75"/>
<polygon fill="none" stroke="black" points="1640,-180 1640,-203.75 3812.5,-203.75 3812.5,-180 1640,-180"/>
<text xml:space="preserve" text-anchor="start" x="2680.5" y="-187" font-family="arial" font-size="14.00">W_ATF_TEMP</text>
<polygon fill="none" stroke="black" points="1640,-156.25 1640,-180 2355.17,-180 2355.17,-156.25 1640,-156.25"/>
<text xml:space="preserve" text-anchor="start" x="1990.46" y="-163.25" font-family="arial" font-size="14.00">2x</text>
<polygon fill="none" stroke="black" points="2355.17,-156.25 2355.17,-180 3077.08,-180 3077.08,-156.25 2355.17,-156.25"/>
<text xml:space="preserve" text-anchor="start" x="2705.62" y="-163.25" font-family="arial" font-size="14.00">+ S</text>
<polygon fill="none" stroke="black" points="3077.08,-156.25 3077.08,-180 3812.5,-180 3812.5,-156.25 3077.08,-156.25"/>
<text xml:space="preserve" text-anchor="start" x="3427.54" y="-163.25" font-family="arial" font-size="14.00">2.5 m</text>
<text xml:space="preserve" text-anchor="start" x="1975.96" y="-141.5" font-family="arial" font-size="14.00"> </text>
<text xml:space="preserve" text-anchor="start" x="1909.96" y="-121.75" font-family="arial" font-size="14.00">ATF_SENSOR:2:GND</text>
<text xml:space="preserve" text-anchor="start" x="2582.25" y="-121.75" font-family="arial" font-size="14.00"> &#160;&#160;&#160;&#160;1:BN:Sensor GND &#160;&#160;&#160;</text>
<text xml:space="preserve" text-anchor="start" x="3323.17" y="-121.75" font-family="arial" font-size="14.00">ECU_CMC:1:Sensor GND</text>
<polygon fill="#000000" stroke="none" points="1640,-114.75 1640,-116.75 3812.5,-116.75 3812.5,-114.75 1640,-114.75"/>
<polygon fill="#895956" stroke="none" points="1640,-112.75 1640,-114.75 3812.5,-114.75 3812.5,-112.75 1640,-112.75"/>
<polygon fill="#000000" stroke="none" points="1640,-110.75 1640,-112.75 3812.5,-112.75 3812.5,-110.75 1640,-110.75"/>
<text xml:space="preserve" text-anchor="start" x="1906.58" y="-96" font-family="arial" font-size="14.00">ATF_SENSOR:1:Signal</text>
<text xml:space="preserve" text-anchor="start" x="2582.25" y="-96" font-family="arial" font-size="14.00"> &#160;&#160;&#160;&#160;2:WH:AIN 2 signal &#160;&#160;&#160;</text>
<text xml:space="preserve" text-anchor="start" x="3260.17" y="-96" font-family="arial" font-size="14.00">ECU_CMC:2:AIN 2 / J2 (TEMPERATURE type)</text>
<polygon fill="#000000" stroke="none" points="1640,-89 1640,-91 3812.5,-91 3812.5,-89 1640,-89"/>
<polygon fill="#ffffff" stroke="none" points="1640,-87 1640,-89 3812.5,-89 3812.5,-87 1640,-87"/>
<polygon fill="#000000" stroke="none" points="1640,-85 1640,-87 3812.5,-87 3812.5,-85 1640,-85"/>
<text xml:space="preserve" text-anchor="start" x="1975.96" y="-70.25" font-family="arial" font-size="14.00"> </text>
<text xml:space="preserve" text-anchor="start" x="2635.88" y="-50.5" font-family="arial" font-size="14.00">Shield</text>
<polygon fill="#000000" stroke="none" points="1640,-43.5 1640,-45.5 3812.5,-45.5 3812.5,-43.5 1640,-43.5"/>
<text xml:space="preserve" text-anchor="start" x="1975.96" y="-28.75" font-family="arial" font-size="14.00"> </text>
<polygon fill="none" stroke="black" points="1640,0 1640,-23.75 3812.5,-23.75 3812.5,0 1640,0"/>
<text xml:space="preserve" text-anchor="start" x="1644" y="-7" font-family="arial" font-size="14.00">Sensor in transmission tunnel (mid&#45;vehicle) forward along the tunnel to the engine&#45;bay MaxxECU RACE H2O. Both endpoints are on the engine&#45;bay side of the firewall under the H2O arch — no cabin routing, no firewall crossing. Shielded preferred — noisy environment (near drivetrain, ignition). Drain shield at ECU end only. Route away from coil primary wires.</text>
</g>
<!-- ATF_SENSOR&#45;&#45;W_ATF_TEMP -->
<g id="edge1" class="edge">
<title>ATF_SENSOR:e&#45;&#45;W_ATF_TEMP:w</title>
<path fill="none" stroke="#000000" stroke-width="2" d="M1496,-110.88C1559.21,-111.89 1573.31,-87.01 1640,-86"/>
<path fill="none" stroke="#ffffff" stroke-width="2" d="M1496,-112.88C1560.95,-112.88 1575.05,-88 1640,-88"/>
<path fill="none" stroke="#000000" stroke-width="2" d="M1496,-114.87C1562.69,-113.86 1576.79,-88.99 1640,-90"/>
</g>
<!-- ATF_SENSOR&#45;&#45;W_ATF_TEMP -->
<g id="edge3" class="edge">
<title>ATF_SENSOR:e&#45;&#45;W_ATF_TEMP:w</title>
<path fill="none" stroke="#000000" stroke-width="2" d="M1496,-87.13C1562.66,-88.13 1576.81,-112.75 1640,-111.75"/>
<path fill="none" stroke="#895956" stroke-width="2" d="M1496,-89.12C1560.93,-89.12 1575.07,-113.75 1640,-113.75"/>
<path fill="none" stroke="#000000" stroke-width="2" d="M1496,-91.12C1559.19,-90.12 1573.34,-114.75 1640,-115.75"/>
</g>
<!-- ECU_CMC -->
<g id="node2" class="node">
<title>ECU_CMC</title>
<polygon fill="#ffffff" stroke="black" points="5670.75,-171.25 3956.5,-171.25 3956.5,-52.5 5670.75,-52.5 5670.75,-171.25"/>
<polygon fill="none" stroke="black" points="3956.5,-147.5 3956.5,-171.25 5670.75,-171.25 5670.75,-147.5 3956.5,-147.5"/>
<text xml:space="preserve" text-anchor="start" x="4779.88" y="-154.5" font-family="arial" font-size="14.00">ECU_CMC</text>
<polygon fill="none" stroke="black" points="3956.5,-123.75 3956.5,-147.5 4615.92,-147.5 4615.92,-123.75 3956.5,-123.75"/>
<text xml:space="preserve" text-anchor="start" x="4136.21" y="-130.75" font-family="arial" font-size="14.00">MaxxECU RACE H2O — Molex CMC 48&#45;pin (C1)</text>
<polygon fill="none" stroke="black" points="4615.92,-123.75 4615.92,-147.5 5281.33,-147.5 5281.33,-123.75 4615.92,-123.75"/>
<text xml:space="preserve" text-anchor="start" x="4795.62" y="-130.75" font-family="arial" font-size="14.00">AIN 2 (J2) temperature input — 2.5k internal pullup</text>
<polygon fill="none" stroke="black" points="5281.33,-123.75 5281.33,-147.5 5670.75,-147.5 5670.75,-123.75 5281.33,-123.75"/>
<text xml:space="preserve" text-anchor="start" x="5461.04" y="-130.75" font-family="arial" font-size="14.00">2&#45;pin</text>
<polygon fill="none" stroke="black" points="3956.5,-100 3956.5,-123.75 4715.75,-123.75 4715.75,-100 3956.5,-100"/>
<text xml:space="preserve" text-anchor="start" x="4332.38" y="-107" font-family="arial" font-size="14.00">1</text>
<polygon fill="none" stroke="black" points="4715.75,-100 4715.75,-123.75 5670.75,-123.75 5670.75,-100 4715.75,-100"/>
<text xml:space="preserve" text-anchor="start" x="5154.62" y="-107" font-family="arial" font-size="14.00">Sensor GND</text>
<polygon fill="none" stroke="black" points="3956.5,-76.25 3956.5,-100 4715.75,-100 4715.75,-76.25 3956.5,-76.25"/>
<text xml:space="preserve" text-anchor="start" x="4332.38" y="-83.25" font-family="arial" font-size="14.00">2</text>
<polygon fill="none" stroke="black" points="4715.75,-76.25 4715.75,-100 5670.75,-100 5670.75,-76.25 4715.75,-76.25"/>
<text xml:space="preserve" text-anchor="start" x="5091.62" y="-83.25" font-family="arial" font-size="14.00">AIN 2 / J2 (TEMPERATURE type)</text>
<polygon fill="none" stroke="black" points="3956.5,-52.5 3956.5,-76.25 5670.75,-76.25 5670.75,-52.5 3956.5,-52.5"/>
<text xml:space="preserve" text-anchor="start" x="3960.5" y="-59.5" font-family="arial" font-size="14.00">MTune: Analog Inputs &#45;&#45; AIN 2 &#45;&#45; type = TEMPERATURE (enables 2.5k pullup). Calibrate to NTC curve: &#45;20 deg C = 15,462 ohm, 130 deg C = 89 ohm. Assign function as extra temperature channel or Engine Oil Temperature. Do not configure as 0&#45;5V &#45;&#45; requires internal pullup for NTC.</text>
</g>
<!-- W_ATF_TEMP&#45;&#45;ECU_CMC -->
<g id="edge2" class="edge">
<title>W_ATF_TEMP:e&#45;&#45;ECU_CMC:w</title>
<path fill="none" stroke="#000000" stroke-width="2" d="M3812.5,-86C3876.52,-86 3892.52,-86.13 3956.5,-86.13"/>
<path fill="none" stroke="#ffffff" stroke-width="2" d="M3812.5,-88C3876.5,-88 3892.5,-88.12 3956.5,-88.12"/>
<path fill="none" stroke="#000000" stroke-width="2" d="M3812.5,-90C3876.48,-90 3892.48,-90.12 3956.5,-90.12"/>
</g>
<!-- W_ATF_TEMP&#45;&#45;ECU_CMC -->
<g id="edge4" class="edge">
<title>W_ATF_TEMP:e&#45;&#45;ECU_CMC:w</title>
<path fill="none" stroke="#000000" stroke-width="2" d="M3812.5,-111.75C3876.27,-111.76 3892.26,-109.89 3956.5,-109.88"/>
<path fill="none" stroke="#895956" stroke-width="2" d="M3812.5,-113.75C3876.51,-113.75 3892.49,-111.88 3956.5,-111.87"/>
<path fill="none" stroke="#000000" stroke-width="2" d="M3812.5,-115.75C3876.74,-115.74 3892.73,-113.86 3956.5,-113.87"/>
</g>
</g>
</svg>
