<?xml version="1.0" encoding="UTF-8" standalone="no"?>
<!DOCTYPE svg PUBLIC "-//W3C//DTD SVG 1.1//EN"
 "http://www.w3.org/Graphics/SVG/1.1/DTD/svg11.dtd">
<!-- Generated by graphviz version 15.1.0 (20260618.0150)
 -->
<!-- Pages: 1 -->
<svg width="15474pt" height="467pt"
 viewBox="0.00 0.00 15474.00 467.00" xmlns="http://www.w3.org/2000/svg" xmlns:xlink="http://www.w3.org/1999/xlink">
<g id="graph0" class="graph" transform="scale(1 1) rotate(0) translate(4 462.5)">
<polygon fill="#ffffff" stroke="none" points="-4,4 -4,-462.5 15470.25,-462.5 15470.25,4 -4,4"/>
<!-- BATT_POS -->
<g id="node1" class="node">
<title>BATT_POS</title>
<polygon fill="#ffffff" stroke="black" points="1988.38,-428.75 868.88,-428.75 868.88,-333.75 1988.38,-333.75 1988.38,-428.75"/>
<polygon fill="none" stroke="black" points="868.88,-405 868.88,-428.75 1988.38,-428.75 1988.38,-405 868.88,-405"/>
<text xml:space="preserve" text-anchor="start" x="1393.38" y="-412" font-family="arial" font-size="14.00">BATT_POS</text>
<polygon fill="none" stroke="black" points="868.88,-381.25 868.88,-405 1308.79,-405 1308.79,-381.25 868.88,-381.25"/>
<text xml:space="preserve" text-anchor="start" x="1016.46" y="-388.25" font-family="arial" font-size="14.00">Battery positive terminal</text>
<polygon fill="none" stroke="black" points="1308.79,-381.25 1308.79,-405 1663.21,-405 1663.21,-381.25 1308.79,-381.25"/>
<text xml:space="preserve" text-anchor="start" x="1456.38" y="-388.25" font-family="arial" font-size="14.00">12V AGM</text>
<polygon fill="none" stroke="black" points="1663.21,-381.25 1663.21,-405 1988.38,-405 1988.38,-381.25 1663.21,-381.25"/>
<text xml:space="preserve" text-anchor="start" x="1810.79" y="-388.25" font-family="arial" font-size="14.00">1&#45;pin</text>
<polygon fill="none" stroke="black" points="868.88,-357.5 868.88,-381.25 1496.5,-381.25 1496.5,-357.5 868.88,-357.5"/>
<text xml:space="preserve" text-anchor="start" x="1111.06" y="-364.5" font-family="arial" font-size="14.00">+12V BATT (always&#45;on)</text>
<polygon fill="none" stroke="black" points="1496.5,-357.5 1496.5,-381.25 1988.38,-381.25 1988.38,-357.5 1496.5,-357.5"/>
<text xml:space="preserve" text-anchor="start" x="1738.69" y="-364.5" font-family="arial" font-size="14.00">1</text>
<polygon fill="none" stroke="black" points="868.88,-333.75 868.88,-357.5 1988.38,-357.5 1988.38,-333.75 868.88,-333.75"/>
<text xml:space="preserve" text-anchor="start" x="872.88" y="-340.75" font-family="arial" font-size="14.00">Inline 25A AGC fuse within 12 inches of battery terminal. Feeds SSR load input only &#45;&#45; NOT connected to pump directly. 12 AWG minimum for this run (14.1A max pump draw; 25A fuse).</text>
</g>
<!-- CABLE_PWR_BATT -->
<g id="node7" class="node">
<title>CABLE_PWR_BATT</title>
<polygon fill="#ffffff" stroke="black" points="4396,-458.5 3218,-458.5 3218,-322 4396,-322 4396,-458.5"/>
<polygon fill="none" stroke="black" points="3218,-434.75 3218,-458.5 4396,-458.5 4396,-434.75 3218,-434.75"/>
<text xml:space="preserve" text-anchor="start" x="3744.38" y="-441.75" font-family="arial" font-size="14.00">CABLE_PWR_BATT</text>
<polygon fill="none" stroke="black" points="3218,-411 3218,-434.75 3591.42,-434.75 3591.42,-411 3218,-411"/>
<text xml:space="preserve" text-anchor="start" x="3397.58" y="-418" font-family="arial" font-size="14.00">1x</text>
<polygon fill="none" stroke="black" points="3591.42,-411 3591.42,-434.75 4002.33,-434.75 4002.33,-411 3591.42,-411"/>
<text xml:space="preserve" text-anchor="start" x="3771" y="-418" font-family="arial" font-size="14.00">12 AWG</text>
<polygon fill="none" stroke="black" points="4002.33,-411 4002.33,-434.75 4396,-434.75 4396,-411 4002.33,-411"/>
<text xml:space="preserve" text-anchor="start" x="4181.92" y="-418" font-family="arial" font-size="14.00">0.5 m</text>
<text xml:space="preserve" text-anchor="start" x="3440.21" y="-396.25" font-family="arial" font-size="14.00"> </text>
<text xml:space="preserve" text-anchor="start" x="3327.71" y="-376.5" font-family="arial" font-size="14.00">BATT_POS:1:+12V BATT (always&#45;on)</text>
<text xml:space="preserve" text-anchor="start" x="3775.88" y="-376.5" font-family="arial" font-size="14.00"> &#160;&#160;&#160;&#160;1:RD &#160;&#160;&#160;</text>
<text xml:space="preserve" text-anchor="start" x="4059.79" y="-376.5" font-family="arial" font-size="14.00">DC_SSR:1:Load(+) &#45;&#45; fused BATT+ in</text>
<polygon fill="#000000" stroke="none" points="3218,-369.5 3218,-371.5 4396,-371.5 4396,-369.5 3218,-369.5"/>
<polygon fill="#ff0000" stroke="none" points="3218,-367.5 3218,-369.5 4396,-369.5 4396,-367.5 3218,-367.5"/>
<polygon fill="#000000" stroke="none" points="3218,-365.5 3218,-367.5 4396,-367.5 4396,-365.5 3218,-365.5"/>
<text xml:space="preserve" text-anchor="start" x="3440.21" y="-350.75" font-family="arial" font-size="14.00"> </text>
<polygon fill="none" stroke="black" points="3218,-322 3218,-345.75 4396,-345.75 4396,-322 3218,-322"/>
<text xml:space="preserve" text-anchor="start" x="3222" y="-329" font-family="arial" font-size="14.00">BATT+ to SSR Load(+). Inline 25A AGC fuse within 12 inches of battery. 12 AWG minimum (14.1A max pump draw; 25A fuse). Ring terminal at battery, blade or ring terminal at SSR load terminal.</text>
</g>
<!-- BATT_POS&#45;&#45;CABLE_PWR_BATT -->
<g id="edge1" class="edge">
<title>BATT_POS:e&#45;&#45;CABLE_PWR_BATT:w</title>
<path fill="none" stroke="#000000" stroke-width="2" d="M1989.38,-367.38C2534.97,-367.38 2671.38,-366.5 3217,-366.5"/>
<path fill="none" stroke="#ff0000" stroke-width="2" d="M1989.38,-369.37C2534.99,-369.38 2671.39,-368.5 3217,-368.5"/>
<path fill="none" stroke="#000000" stroke-width="2" d="M1989.38,-371.37C2535,-371.37 2671.4,-370.5 3217,-370.5"/>
</g>
<!-- DC_SSR -->
<g id="node2" class="node">
<title>DC_SSR</title>
<polygon fill="#ffffff" stroke="black" points="7758,-314.38 4756.75,-314.38 4756.75,-148.12 7758,-148.12 7758,-314.38"/>
<polygon fill="none" stroke="black" points="4756.75,-290.62 4756.75,-314.38 7758,-314.38 7758,-290.62 4756.75,-290.62"/>
<text xml:space="preserve" text-anchor="start" x="6230" y="-297.62" font-family="arial" font-size="14.00">DC_SSR</text>
<polygon fill="none" stroke="black" points="4756.75,-266.88 4756.75,-290.62 5913.42,-290.62 5913.42,-266.88 4756.75,-266.88"/>
<text xml:space="preserve" text-anchor="start" x="5131.83" y="-273.88" font-family="arial" font-size="14.00">DC Solid State Relay &#45;&#45; Crydom D1D40 or generic 40A DC&#45;DC SSR</text>
<polygon fill="none" stroke="black" points="5913.42,-266.88 5913.42,-290.62 6977.83,-290.62 6977.83,-266.88 5913.42,-266.88"/>
<text xml:space="preserve" text-anchor="start" x="6288.5" y="-273.88" font-family="arial" font-size="14.00">0&#45;60V load / 3&#45;32V control / 40A rated / opto&#45;isolated</text>
<polygon fill="none" stroke="black" points="6977.83,-266.88 6977.83,-290.62 7758,-290.62 7758,-266.88 6977.83,-266.88"/>
<text xml:space="preserve" text-anchor="start" x="7352.92" y="-273.88" font-family="arial" font-size="14.00">4&#45;pin</text>
<polygon fill="none" stroke="black" points="4756.75,-243.12 4756.75,-266.88 5686.67,-266.88 5686.67,-243.12 4756.75,-243.12"/>
<text xml:space="preserve" text-anchor="start" x="5217.96" y="-250.12" font-family="arial" font-size="14.00">1</text>
<polygon fill="none" stroke="black" points="5686.67,-243.12 5686.67,-266.88 6828.08,-266.88 6828.08,-243.12 5686.67,-243.12"/>
<text xml:space="preserve" text-anchor="start" x="6179" y="-250.12" font-family="arial" font-size="14.00">Load(+) &#45;&#45; fused BATT+ in</text>
<polygon fill="none" stroke="black" points="6828.08,-243.12 6828.08,-266.88 7758,-266.88 7758,-243.12 6828.08,-243.12"/>
<text xml:space="preserve" text-anchor="start" x="7289.29" y="-250.12" font-family="arial" font-size="14.00">1</text>
<polygon fill="none" stroke="black" points="4756.75,-219.38 4756.75,-243.12 5686.67,-243.12 5686.67,-219.38 4756.75,-219.38"/>
<text xml:space="preserve" text-anchor="start" x="5217.96" y="-226.38" font-family="arial" font-size="14.00">2</text>
<polygon fill="none" stroke="black" points="5686.67,-219.38 5686.67,-243.12 6828.08,-243.12 6828.08,-219.38 5686.67,-219.38"/>
<text xml:space="preserve" text-anchor="start" x="6190.25" y="-226.38" font-family="arial" font-size="14.00">Load(&#45;) &#45;&#45; pump(+) out</text>
<polygon fill="none" stroke="black" points="6828.08,-219.38 6828.08,-243.12 7758,-243.12 7758,-219.38 6828.08,-219.38"/>
<text xml:space="preserve" text-anchor="start" x="7289.29" y="-226.38" font-family="arial" font-size="14.00">2</text>
<polygon fill="none" stroke="black" points="4756.75,-195.62 4756.75,-219.38 5686.67,-219.38 5686.67,-195.62 4756.75,-195.62"/>
<text xml:space="preserve" text-anchor="start" x="5217.96" y="-202.62" font-family="arial" font-size="14.00">3</text>
<polygon fill="none" stroke="black" points="5686.67,-195.62 5686.67,-219.38 6828.08,-219.38 6828.08,-195.62 5686.67,-195.62"/>
<text xml:space="preserve" text-anchor="start" x="6175.62" y="-202.62" font-family="arial" font-size="14.00">Ctrl(+) &#45;&#45; IGN switched 12V</text>
<polygon fill="none" stroke="black" points="6828.08,-195.62 6828.08,-219.38 7758,-219.38 7758,-195.62 6828.08,-195.62"/>
<text xml:space="preserve" text-anchor="start" x="7289.29" y="-202.62" font-family="arial" font-size="14.00">3</text>
<polygon fill="none" stroke="black" points="4756.75,-171.88 4756.75,-195.62 5686.67,-195.62 5686.67,-171.88 4756.75,-171.88"/>
<text xml:space="preserve" text-anchor="start" x="5217.96" y="-178.88" font-family="arial" font-size="14.00">4</text>
<polygon fill="none" stroke="black" points="5686.67,-171.88 5686.67,-195.62 6828.08,-195.62 6828.08,-171.88 5686.67,-171.88"/>
<text xml:space="preserve" text-anchor="start" x="6147.88" y="-178.88" font-family="arial" font-size="14.00">Ctrl(&#45;) &#45;&#45; MaxxECU GPO (GND sink)</text>
<polygon fill="none" stroke="black" points="6828.08,-171.88 6828.08,-195.62 7758,-195.62 7758,-171.88 6828.08,-171.88"/>
<text xml:space="preserve" text-anchor="start" x="7289.29" y="-178.88" font-family="arial" font-size="14.00">4</text>
<polygon fill="none" stroke="black" points="4756.75,-148.12 4756.75,-171.88 7758,-171.88 7758,-148.12 4756.75,-148.12"/>
<text xml:space="preserve" text-anchor="start" x="4760.75" y="-155.12" font-family="arial" font-size="14.00">Opto&#45;isolated DC&#45;DC SSR. No mechanical contacts &#45;&#45; PWM&#45;compatible. Control input: 3&#45;32V DC, ~10&#45;15mA draw. Load: 0&#45;60V DC, 40A continuous. Crydom D1D40 rated: control 3&#45;32V, load 0&#45;60V, 40A, 1kHz max switching. Mount to chassis or fuse block &#45;&#45; add small heatsink if duty cycles above 80%. SSR switches ON when ctrl circuit is energized (IGN high + GPO sinks GND). PWM frequency at MaxxECU GPO: 100&#45;500 Hz recommended (smooth speed control, within SSR switching rating).</text>
</g>
<!-- CABLE_PWR_PUMP -->
<g id="node8" class="node">
<title>CABLE_PWR_PUMP</title>
<polygon fill="#ffffff" stroke="black" points="9134,-320.5 7902,-320.5 7902,-184 9134,-184 9134,-320.5"/>
<polygon fill="none" stroke="black" points="7902,-296.75 7902,-320.5 9134,-320.5 9134,-296.75 7902,-296.75"/>
<text xml:space="preserve" text-anchor="start" x="8452.38" y="-303.75" font-family="arial" font-size="14.00">CABLE_PWR_PUMP</text>
<polygon fill="none" stroke="black" points="7902,-273 7902,-296.75 8293.42,-296.75 8293.42,-273 7902,-273"/>
<text xml:space="preserve" text-anchor="start" x="8090.58" y="-280" font-family="arial" font-size="14.00">1x</text>
<polygon fill="none" stroke="black" points="8293.42,-273 8293.42,-296.75 8722.33,-296.75 8722.33,-273 8293.42,-273"/>
<text xml:space="preserve" text-anchor="start" x="8482" y="-280" font-family="arial" font-size="14.00">12 AWG</text>
<polygon fill="none" stroke="black" points="8722.33,-273 8722.33,-296.75 9134,-296.75 9134,-273 8722.33,-273"/>
<text xml:space="preserve" text-anchor="start" x="8910.92" y="-280" font-family="arial" font-size="14.00">1.5 m</text>
<text xml:space="preserve" text-anchor="start" x="8096.83" y="-258.25" font-family="arial" font-size="14.00"> </text>
<text xml:space="preserve" text-anchor="start" x="7996.71" y="-238.5" font-family="arial" font-size="14.00">DC_SSR:2:Load(&#45;) &#45;&#45; pump(+) out</text>
<text xml:space="preserve" text-anchor="start" x="8390.12" y="-238.5" font-family="arial" font-size="14.00"> &#160;&#160;&#160;&#160;1:RD &#160;&#160;&#160;</text>
<text xml:space="preserve" text-anchor="start" x="8644.04" y="-238.5" font-family="arial" font-size="14.00">RADIUM_HANGER:1:Pump(+) &#45;&#45; switched 12V from SSR Load(&#45;)</text>
<polygon fill="#000000" stroke="none" points="7902,-231.5 7902,-233.5 9134,-233.5 9134,-231.5 7902,-231.5"/>
<polygon fill="#ff0000" stroke="none" points="7902,-229.5 7902,-231.5 9134,-231.5 9134,-229.5 7902,-229.5"/>
<polygon fill="#000000" stroke="none" points="7902,-227.5 7902,-229.5 9134,-229.5 9134,-227.5 7902,-227.5"/>
<text xml:space="preserve" text-anchor="start" x="8096.83" y="-212.75" font-family="arial" font-size="14.00"> </text>
<polygon fill="none" stroke="black" points="7902,-184 7902,-207.75 9134,-207.75 9134,-184 7902,-184"/>
<text xml:space="preserve" text-anchor="start" x="7906" y="-191" font-family="arial" font-size="14.00">SSR Load(&#45;) to Radium hanger pump(+) stud. Switched +12V pump supply. 12 AWG minimum. Route through tunnel/chassis to fuel tank hanger location. Keep clear of exhaust tunnel runs where possible.</text>
</g>
<!-- DC_SSR&#45;&#45;CABLE_PWR_PUMP -->
<g id="edge3" class="edge">
<title>DC_SSR:e&#45;&#45;CABLE_PWR_PUMP:w</title>
<path fill="none" stroke="#000000" stroke-width="2" d="M7758,-229.25C7821.91,-229.25 7837.91,-228.5 7902,-228.5"/>
<path fill="none" stroke="#ff0000" stroke-width="2" d="M7758,-231.25C7822,-231.25 7838,-230.5 7902,-230.5"/>
<path fill="none" stroke="#000000" stroke-width="2" d="M7758,-233.25C7822.09,-233.25 7838.09,-232.5 7902,-232.5"/>
</g>
<!-- RADIUM_HANGER -->
<g id="node3" class="node">
<title>RADIUM_HANGER</title>
<polygon fill="#ffffff" stroke="black" points="12763,-290.62 9278,-290.62 9278,-171.88 12763,-171.88 12763,-290.62"/>
<polygon fill="none" stroke="black" points="9278,-266.88 9278,-290.62 12763,-290.62 12763,-266.88 9278,-266.88"/>
<text xml:space="preserve" text-anchor="start" x="10960.5" y="-273.88" font-family="arial" font-size="14.00">RADIUM_HANGER</text>
<polygon fill="none" stroke="black" points="9278,-243.12 9278,-266.88 10571.42,-266.88 10571.42,-243.12 9278,-243.12"/>
<text xml:space="preserve" text-anchor="start" x="9729.71" y="-250.12" font-family="arial" font-size="14.00">Radium Engineering 20&#45;1170 &#45;&#45; stainless stud electrical terminals</text>
<polygon fill="none" stroke="black" points="10571.42,-243.12 10571.42,-266.88 11829.58,-266.88 11829.58,-243.12 10571.42,-243.12"/>
<text xml:space="preserve" text-anchor="start" x="11023.12" y="-250.12" font-family="arial" font-size="14.00">Top&#45;plate external studs &#45;&#45; anti&#45;rotation, hermetically sealed</text>
<polygon fill="none" stroke="black" points="11829.58,-243.12 11829.58,-266.88 12763,-266.88 12763,-243.12 11829.58,-243.12"/>
<text xml:space="preserve" text-anchor="start" x="12281.29" y="-250.12" font-family="arial" font-size="14.00">2&#45;pin</text>
<polygon fill="none" stroke="black" points="9278,-219.38 9278,-243.12 10355.42,-243.12 10355.42,-219.38 9278,-219.38"/>
<text xml:space="preserve" text-anchor="start" x="9812.96" y="-226.38" font-family="arial" font-size="14.00">1</text>
<polygon fill="none" stroke="black" points="10355.42,-219.38 10355.42,-243.12 11685.58,-243.12 11685.58,-219.38 10355.42,-219.38"/>
<text xml:space="preserve" text-anchor="start" x="10890.38" y="-226.38" font-family="arial" font-size="14.00">Pump(+) &#45;&#45; switched 12V from SSR Load(&#45;)</text>
<polygon fill="none" stroke="black" points="11685.58,-219.38 11685.58,-243.12 12763,-243.12 12763,-219.38 11685.58,-219.38"/>
<text xml:space="preserve" text-anchor="start" x="12220.54" y="-226.38" font-family="arial" font-size="14.00">1</text>
<polygon fill="none" stroke="black" points="9278,-195.62 9278,-219.38 10355.42,-219.38 10355.42,-195.62 9278,-195.62"/>
<text xml:space="preserve" text-anchor="start" x="9812.96" y="-202.62" font-family="arial" font-size="14.00">2</text>
<polygon fill="none" stroke="black" points="10355.42,-195.62 10355.42,-219.38 11685.58,-219.38 11685.58,-195.62 10355.42,-195.62"/>
<text xml:space="preserve" text-anchor="start" x="10947.75" y="-202.62" font-family="arial" font-size="14.00">Pump(&#45;) &#45;&#45; chassis GND</text>
<polygon fill="none" stroke="black" points="11685.58,-195.62 11685.58,-219.38 12763,-219.38 12763,-195.62 11685.58,-195.62"/>
<text xml:space="preserve" text-anchor="start" x="12220.54" y="-202.62" font-family="arial" font-size="14.00">2</text>
<polygon fill="none" stroke="black" points="9278,-171.88 9278,-195.62 12763,-195.62 12763,-171.88 9278,-171.88"/>
<text xml:space="preserve" text-anchor="start" x="9282" y="-178.88" font-family="arial" font-size="14.00">Radium 20&#45;1170 uses custom stainless steel studs through the top plate (not a multi&#45;pin connector). External connection via ring terminals + anodized acorn nuts. Anti&#45;rotation feature prevents stud from spinning during install. Hermetically sealed and impervious to E85, gasoline, methanol. Ring terminals: 12 AWG crimp ring, M4 or M5 stud diameter (confirm at install). In&#45;tank wiring insulated with ETFE &#45;&#45; chemically resistant to all fuel types. Single pump install (F90000267): re&#45;use OEM pump wiring for signal side or run new 12 AWG from SSR Load(&#45;) directly to pump(+) stud.</text>
</g>
<!-- CABLE_GND -->
<g id="node9" class="node">
<title>CABLE_GND</title>
<polygon fill="#ffffff" stroke="black" points="13898.25,-297.5 12907,-297.5 12907,-161 13898.25,-161 13898.25,-297.5"/>
<polygon fill="none" stroke="black" points="12907,-273.75 12907,-297.5 13898.25,-297.5 13898.25,-273.75 12907,-273.75"/>
<text xml:space="preserve" text-anchor="start" x="13361.38" y="-280.75" font-family="arial" font-size="14.00">CABLE_GND</text>
<polygon fill="none" stroke="black" points="12907,-250 12907,-273.75 13218.17,-273.75 13218.17,-250 12907,-250"/>
<text xml:space="preserve" text-anchor="start" x="13055.46" y="-257" font-family="arial" font-size="14.00">1x</text>
<polygon fill="none" stroke="black" points="13218.17,-250 13218.17,-273.75 13566.83,-273.75 13566.83,-250 13218.17,-250"/>
<text xml:space="preserve" text-anchor="start" x="13366.62" y="-257" font-family="arial" font-size="14.00">12 AWG</text>
<polygon fill="none" stroke="black" points="13566.83,-250 13566.83,-273.75 13898.25,-273.75 13898.25,-250 13566.83,-250"/>
<text xml:space="preserve" text-anchor="start" x="13715.29" y="-257" font-family="arial" font-size="14.00">0.5 m</text>
<text xml:space="preserve" text-anchor="start" x="13129.46" y="-235.25" font-family="arial" font-size="14.00"> </text>
<text xml:space="preserve" text-anchor="start" x="12991.08" y="-215.5" font-family="arial" font-size="14.00">RADIUM_HANGER:2:Pump(&#45;) &#45;&#45; chassis GND</text>
<text xml:space="preserve" text-anchor="start" x="13439.75" y="-215.5" font-family="arial" font-size="14.00"> &#160;&#160;&#160;&#160;1:BK &#160;&#160;&#160;</text>
<text xml:space="preserve" text-anchor="start" x="13670.92" y="-215.5" font-family="arial" font-size="14.00">CHASSIS_GND:1:GND</text>
<polygon fill="#000000" stroke="none" points="12907,-208.5 12907,-210.5 13898.25,-210.5 13898.25,-208.5 12907,-208.5"/>
<polygon fill="#000000" stroke="none" points="12907,-206.5 12907,-208.5 13898.25,-208.5 13898.25,-206.5 12907,-206.5"/>
<polygon fill="#000000" stroke="none" points="12907,-204.5 12907,-206.5 13898.25,-206.5 13898.25,-204.5 12907,-204.5"/>
<text xml:space="preserve" text-anchor="start" x="13129.46" y="-189.75" font-family="arial" font-size="14.00"> </text>
<polygon fill="none" stroke="black" points="12907,-161 12907,-184.75 13898.25,-184.75 13898.25,-161 12907,-161"/>
<text xml:space="preserve" text-anchor="start" x="12911" y="-168" font-family="arial" font-size="14.00">Radium hanger pump(&#45;) stud to chassis ground stud. 12 AWG minimum. Dedicated ground &#45;&#45; do not share with ECU sensor ground bus. Ring terminal at both ends.</text>
</g>
<!-- RADIUM_HANGER&#45;&#45;CABLE_GND -->
<g id="edge5" class="edge">
<title>RADIUM_HANGER:e&#45;&#45;CABLE_GND:w</title>
<path fill="none" stroke="#000000" stroke-width="2" d="M12763,-205.5C12827,-205.5 12843,-205.5 12907,-205.5"/>
<path fill="none" stroke="#000000" stroke-width="2" d="M12763,-207.5C12827,-207.5 12843,-207.5 12907,-207.5"/>
<path fill="none" stroke="#000000" stroke-width="2" d="M12763,-209.5C12827,-209.5 12843,-209.5 12907,-209.5"/>
</g>
<!-- CHASSIS_GND -->
<g id="node4" class="node">
<title>CHASSIS_GND</title>
<polygon fill="#ffffff" stroke="black" points="15466.25,-267.75 14042.25,-267.75 14042.25,-172.75 15466.25,-172.75 15466.25,-267.75"/>
<polygon fill="none" stroke="black" points="14042.25,-244 14042.25,-267.75 15466.25,-267.75 15466.25,-244 14042.25,-244"/>
<text xml:space="preserve" text-anchor="start" x="14705.5" y="-251" font-family="arial" font-size="14.00">CHASSIS_GND</text>
<polygon fill="none" stroke="black" points="14042.25,-220.25 14042.25,-244 14840.5,-244 14840.5,-220.25 14042.25,-220.25"/>
<text xml:space="preserve" text-anchor="start" x="14340.12" y="-227.25" font-family="arial" font-size="14.00">Chassis ground stud (body metal)</text>
<polygon fill="none" stroke="black" points="14840.5,-220.25 14840.5,-244 15466.25,-244 15466.25,-220.25 14840.5,-220.25"/>
<text xml:space="preserve" text-anchor="start" x="15138.38" y="-227.25" font-family="arial" font-size="14.00">1&#45;pin</text>
<polygon fill="none" stroke="black" points="14042.25,-196.5 14042.25,-220.25 14742.62,-220.25 14742.62,-196.5 14042.25,-196.5"/>
<text xml:space="preserve" text-anchor="start" x="14388.69" y="-203.5" font-family="arial" font-size="14.00">1</text>
<polygon fill="none" stroke="black" points="14742.62,-196.5 14742.62,-220.25 15466.25,-220.25 15466.25,-196.5 14742.62,-196.5"/>
<text xml:space="preserve" text-anchor="start" x="15089.06" y="-203.5" font-family="arial" font-size="14.00">GND</text>
<polygon fill="none" stroke="black" points="14042.25,-172.75 14042.25,-196.5 15466.25,-196.5 15466.25,-172.75 14042.25,-172.75"/>
<text xml:space="preserve" text-anchor="start" x="14046.25" y="-179.75" font-family="arial" font-size="14.00">Dedicated ground for pump(&#45;) terminal on Radium hanger. Do not share with ECU sensor grounds or other high&#45;current grounds. 12 AWG minimum. Ring terminal, solid bolt to body metal. Separate stud from any signal ground star&#45;point.</text>
</g>
<!-- IGN_12V -->
<g id="node5" class="node">
<title>IGN_12V</title>
<polygon fill="#ffffff" stroke="black" points="2362.25,-267.75 495,-267.75 495,-172.75 2362.25,-172.75 2362.25,-267.75"/>
<polygon fill="none" stroke="black" points="495,-244 495,-267.75 2362.25,-267.75 2362.25,-244 495,-244"/>
<text xml:space="preserve" text-anchor="start" x="1400.5" y="-251" font-family="arial" font-size="14.00">IGN_12V</text>
<polygon fill="none" stroke="black" points="495,-220.25 495,-244 1174.42,-244 1174.42,-220.25 495,-220.25"/>
<text xml:space="preserve" text-anchor="start" x="703.46" y="-227.25" font-family="arial" font-size="14.00">IGN switched 12V source (via ignition relay)</text>
<polygon fill="none" stroke="black" points="1174.42,-220.25 1174.42,-244 1915.33,-244 1915.33,-220.25 1174.42,-220.25"/>
<text xml:space="preserve" text-anchor="start" x="1382.88" y="-227.25" font-family="arial" font-size="14.00">Key&#45;on, key&#45;off &#45;&#45; same bus as MaxxECU main power</text>
<polygon fill="none" stroke="black" points="1915.33,-220.25 1915.33,-244 2362.25,-244 2362.25,-220.25 1915.33,-220.25"/>
<text xml:space="preserve" text-anchor="start" x="2123.79" y="-227.25" font-family="arial" font-size="14.00">1&#45;pin</text>
<polygon fill="none" stroke="black" points="495,-196.5 495,-220.25 1487.88,-220.25 1487.88,-196.5 495,-196.5"/>
<text xml:space="preserve" text-anchor="start" x="928.44" y="-203.5" font-family="arial" font-size="14.00">IGN +12V (switched)</text>
<polygon fill="none" stroke="black" points="1487.88,-196.5 1487.88,-220.25 2362.25,-220.25 2362.25,-196.5 1487.88,-196.5"/>
<text xml:space="preserve" text-anchor="start" x="1921.31" y="-203.5" font-family="arial" font-size="14.00">1</text>
<polygon fill="none" stroke="black" points="495,-172.75 495,-196.5 2362.25,-196.5 2362.25,-172.75 495,-172.75"/>
<text xml:space="preserve" text-anchor="start" x="499" y="-179.75" font-family="arial" font-size="14.00">Feeds SSR Ctrl(+). When key&#45;on, IGN relay energizes, 12V appears at SSR ctrl+. Combined with MaxxECU GPO sinking SSR ctrl&#45;, pump runs. At key&#45;off, IGN relay drops → SSR ctrl+ loses power → SSR opens → pump stops. 22 AWG from IGN bus to SSR Ctrl(+). Short run preferred &#45;&#45; stay near fuse block.</text>
</g>
<!-- CABLE_SSR_CTRL_POS -->
<g id="node10" class="node">
<title>CABLE_SSR_CTRL_POS</title>
<polygon fill="#ffffff" stroke="black" points="4181.12,-297.5 3432.88,-297.5 3432.88,-161 4181.12,-161 4181.12,-297.5"/>
<polygon fill="none" stroke="black" points="3432.88,-273.75 3432.88,-297.5 4181.12,-297.5 4181.12,-273.75 3432.88,-273.75"/>
<text xml:space="preserve" text-anchor="start" x="3727.5" y="-280.75" font-family="arial" font-size="14.00">CABLE_SSR_CTRL_POS</text>
<polygon fill="none" stroke="black" points="3432.88,-250 3432.88,-273.75 3663.04,-273.75 3663.04,-250 3432.88,-250"/>
<text xml:space="preserve" text-anchor="start" x="3540.83" y="-257" font-family="arial" font-size="14.00">1x</text>
<polygon fill="none" stroke="black" points="3663.04,-250 3663.04,-273.75 3930.71,-273.75 3930.71,-250 3663.04,-250"/>
<text xml:space="preserve" text-anchor="start" x="3771" y="-257" font-family="arial" font-size="14.00">22 AWG</text>
<polygon fill="none" stroke="black" points="3930.71,-250 3930.71,-273.75 4181.12,-273.75 4181.12,-250 3930.71,-250"/>
<text xml:space="preserve" text-anchor="start" x="4038.67" y="-257" font-family="arial" font-size="14.00">0.3 m</text>
<text xml:space="preserve" text-anchor="start" x="3571.58" y="-235.25" font-family="arial" font-size="14.00"> </text>
<text xml:space="preserve" text-anchor="start" x="3474.83" y="-215.5" font-family="arial" font-size="14.00">IGN_12V:1:IGN +12V (switched)</text>
<text xml:space="preserve" text-anchor="start" x="3756" y="-215.5" font-family="arial" font-size="14.00"> &#160;&#160;&#160;&#160;1:GN &#160;&#160;&#160;</text>
<text xml:space="preserve" text-anchor="start" x="3905.92" y="-215.5" font-family="arial" font-size="14.00">DC_SSR:3:Ctrl(+) &#45;&#45; IGN switched 12V</text>
<polygon fill="#000000" stroke="none" points="3432.88,-208.5 3432.88,-210.5 4181.12,-210.5 4181.12,-208.5 3432.88,-208.5"/>
<polygon fill="#00ff00" stroke="none" points="3432.88,-206.5 3432.88,-208.5 4181.12,-208.5 4181.12,-206.5 3432.88,-206.5"/>
<polygon fill="#000000" stroke="none" points="3432.88,-204.5 3432.88,-206.5 4181.12,-206.5 4181.12,-204.5 3432.88,-204.5"/>
<text xml:space="preserve" text-anchor="start" x="3571.58" y="-189.75" font-family="arial" font-size="14.00"> </text>
<polygon fill="none" stroke="black" points="3432.88,-161 3432.88,-184.75 4181.12,-184.75 4181.12,-161 3432.88,-161"/>
<text xml:space="preserve" text-anchor="start" x="3436.88" y="-168" font-family="arial" font-size="14.00">IGN switched 12V to SSR Ctrl(+). Low current (SSR opto draws ~15mA). 22 AWG sufficient. Short run &#45;&#45; fuse block to SSR.</text>
</g>
<!-- IGN_12V&#45;&#45;CABLE_SSR_CTRL_POS -->
<g id="edge7" class="edge">
<title>IGN_12V:e&#45;&#45;CABLE_SSR_CTRL_POS:w</title>
<path fill="none" stroke="#000000" stroke-width="2" d="M2363.25,-206.38C2838.18,-206.38 2956.92,-205.5 3431.88,-205.5"/>
<path fill="none" stroke="#00ff00" stroke-width="2" d="M2363.25,-208.38C2838.19,-208.38 2956.93,-207.5 3431.88,-207.5"/>
<path fill="none" stroke="#000000" stroke-width="2" d="M2363.25,-210.37C2838.21,-210.37 2956.95,-209.5 3431.88,-209.5"/>
</g>
<!-- MAXXECU_GPO -->
<g id="node6" class="node">
<title>MAXXECU_GPO</title>
<polygon fill="#ffffff" stroke="black" points="2857.25,-106.75 0,-106.75 0,-11.75 2857.25,-11.75 2857.25,-106.75"/>
<polygon fill="none" stroke="black" points="0,-83 0,-106.75 2857.25,-106.75 2857.25,-83 0,-83"/>
<text xml:space="preserve" text-anchor="start" x="1375.38" y="-90" font-family="arial" font-size="14.00">MAXXECU_GPO</text>
<polygon fill="none" stroke="black" points="0,-59.25 0,-83 1032.92,-83 1032.92,-59.25 0,-59.25"/>
<text xml:space="preserve" text-anchor="start" x="363.83" y="-66.25" font-family="arial" font-size="14.00">MaxxECU RACE &#45;&#45; PWM General Purpose Output</text>
<polygon fill="none" stroke="black" points="1032.92,-59.25 1032.92,-83 2099.58,-83 2099.58,-59.25 1032.92,-59.25"/>
<text xml:space="preserve" text-anchor="start" x="1396.75" y="-66.25" font-family="arial" font-size="14.00">GEN1 low&#45;drive (GND&#45;sinking), max 2A &#45;&#45; GPO pin TBD</text>
<polygon fill="none" stroke="black" points="2099.58,-59.25 2099.58,-83 2857.25,-83 2857.25,-59.25 2099.58,-59.25"/>
<text xml:space="preserve" text-anchor="start" x="2463.42" y="-66.25" font-family="arial" font-size="14.00">1&#45;pin</text>
<polygon fill="none" stroke="black" points="0,-35.5 0,-59.25 1526.12,-59.25 1526.12,-35.5 0,-35.5"/>
<text xml:space="preserve" text-anchor="start" x="661.81" y="-42.5" font-family="arial" font-size="14.00">PWM GND&#45;sink out (100&#45;500 Hz)</text>
<polygon fill="none" stroke="black" points="1526.12,-35.5 1526.12,-59.25 2857.25,-59.25 2857.25,-35.5 1526.12,-35.5"/>
<text xml:space="preserve" text-anchor="start" x="2187.94" y="-42.5" font-family="arial" font-size="14.00">1</text>
<polygon fill="none" stroke="black" points="0,-11.75 0,-35.5 2857.25,-35.5 2857.25,-11.75 0,-11.75"/>
<text xml:space="preserve" text-anchor="start" x="4" y="-18.75" font-family="arial" font-size="14.00">MaxxECU GEN1 GPO: active = pulls to GND. When GPO sinks GND, SSR ctrl circuit completes and SSR switches ON. Duty cycle controls pump speed. Assign function in MTune: Outputs → Output config → PWM fuel pump control. Recommended duty table (by MAP/RPM): 65% idle / 80% cruise / 100% WOT. Phase 3 (07K turbo): tune duty table to boost pressure &#45;&#45; 100% under full boost. 22 AWG from GPO pin to SSR Ctrl(&#45;) &#45;&#45; low current (SSR ctrl draws ~10&#45;15mA).</text>
</g>
<!-- CABLE_SSR_CTRL_NEG -->
<g id="node11" class="node">
<title>CABLE_SSR_CTRL_NEG</title>
<polygon fill="#ffffff" stroke="black" points="4612.75,-136.5 3001.25,-136.5 3001.25,0 4612.75,0 4612.75,-136.5"/>
<polygon fill="none" stroke="black" points="3001.25,-112.75 3001.25,-136.5 4612.75,-136.5 4612.75,-112.75 3001.25,-112.75"/>
<text xml:space="preserve" text-anchor="start" x="3727.12" y="-119.75" font-family="arial" font-size="14.00">CABLE_SSR_CTRL_NEG</text>
<polygon fill="none" stroke="black" points="3001.25,-89 3001.25,-112.75 3519.17,-112.75 3519.17,-89 3001.25,-89"/>
<text xml:space="preserve" text-anchor="start" x="3253.08" y="-96" font-family="arial" font-size="14.00">1x</text>
<polygon fill="none" stroke="black" points="3519.17,-89 3519.17,-112.75 4074.58,-112.75 4074.58,-89 3519.17,-89"/>
<text xml:space="preserve" text-anchor="start" x="3771" y="-96" font-family="arial" font-size="14.00">22 AWG</text>
<polygon fill="none" stroke="black" points="4074.58,-89 4074.58,-112.75 4612.75,-112.75 4612.75,-89 4074.58,-89"/>
<text xml:space="preserve" text-anchor="start" x="4326.42" y="-96" font-family="arial" font-size="14.00">2.0 m</text>
<text xml:space="preserve" text-anchor="start" x="3317.46" y="-74.25" font-family="arial" font-size="14.00"> </text>
<text xml:space="preserve" text-anchor="start" x="3157.33" y="-54.5" font-family="arial" font-size="14.00">MAXXECU_GPO:1:PWM GND&#45;sink out (100&#45;500 Hz)</text>
<text xml:space="preserve" text-anchor="start" x="3793.5" y="-54.5" font-family="arial" font-size="14.00"> &#160;&#160;&#160;&#160;1:VT &#160;&#160;&#160;</text>
<text xml:space="preserve" text-anchor="start" x="4167.92" y="-54.5" font-family="arial" font-size="14.00">DC_SSR:4:Ctrl(&#45;) &#45;&#45; MaxxECU GPO (GND sink)</text>
<polygon fill="#000000" stroke="none" points="3001.25,-47.5 3001.25,-49.5 4612.75,-49.5 4612.75,-47.5 3001.25,-47.5"/>
<polygon fill="#8000ff" stroke="none" points="3001.25,-45.5 3001.25,-47.5 4612.75,-47.5 4612.75,-45.5 3001.25,-45.5"/>
<polygon fill="#000000" stroke="none" points="3001.25,-43.5 3001.25,-45.5 4612.75,-45.5 4612.75,-43.5 3001.25,-43.5"/>
<text xml:space="preserve" text-anchor="start" x="3317.46" y="-28.75" font-family="arial" font-size="14.00"> </text>
<polygon fill="none" stroke="black" points="3001.25,0 3001.25,-23.75 4612.75,-23.75 4612.75,0 3001.25,0"/>
<text xml:space="preserve" text-anchor="start" x="3005.25" y="-7" font-family="arial" font-size="14.00">MaxxECU GPO to SSR Ctrl(&#45;). PWM signal (GND&#45;sink, 100&#45;500 Hz). 22 AWG. Route from MaxxECU through firewall grommet to SSR location. Shielded wire preferred &#45;&#45; drain to chassis GND at ECU end only. Keep away from ignition coil primaries and injector wires.</text>
</g>
<!-- MAXXECU_GPO&#45;&#45;CABLE_SSR_CTRL_NEG -->
<g id="edge9" class="edge">
<title>MAXXECU_GPO:e&#45;&#45;CABLE_SSR_CTRL_NEG:w</title>
<path fill="none" stroke="#000000" stroke-width="2" d="M2857.25,-45.38C2921.14,-45.38 2937.14,-44.5 3001.25,-44.5"/>
<path fill="none" stroke="#8000ff" stroke-width="2" d="M2857.25,-47.38C2921.25,-47.37 2937.25,-46.5 3001.25,-46.5"/>
<path fill="none" stroke="#000000" stroke-width="2" d="M2857.25,-49.37C2921.36,-49.37 2937.36,-48.5 3001.25,-48.5"/>
</g>
<!-- CABLE_PWR_BATT&#45;&#45;DC_SSR -->
<g id="edge2" class="edge">
<title>CABLE_PWR_BATT:e&#45;&#45;DC_SSR:w</title>
<path fill="none" stroke="#000000" stroke-width="2" d="M4397,-366.5C4494.85,-367.29 4516.59,-338.77 4612.13,-307.35 4675.89,-287.51 4686.45,-254.39 4756.75,-253"/>
<path fill="none" stroke="#ff0000" stroke-width="2" d="M4397,-368.5C4496.44,-368.5 4518.18,-339.98 4612.75,-309.25 4677.79,-288.12 4688.36,-255 4756.75,-255"/>
<path fill="none" stroke="#000000" stroke-width="2" d="M4397,-370.5C4498.03,-369.71 4519.77,-341.19 4613.37,-311.15 4679.7,-288.72 4690.26,-255.61 4756.75,-257"/>
</g>
<!-- CABLE_PWR_PUMP&#45;&#45;RADIUM_HANGER -->
<g id="edge4" class="edge">
<title>CABLE_PWR_PUMP:e&#45;&#45;RADIUM_HANGER:w</title>
<path fill="none" stroke="#000000" stroke-width="2" d="M9134,-228.5C9198.09,-228.5 9214.09,-229.25 9278,-229.25"/>
<path fill="none" stroke="#ff0000" stroke-width="2" d="M9134,-230.5C9198,-230.5 9214,-231.25 9278,-231.25"/>
<path fill="none" stroke="#000000" stroke-width="2" d="M9134,-232.5C9197.91,-232.5 9213.91,-233.25 9278,-233.25"/>
</g>
<!-- CABLE_GND&#45;&#45;CHASSIS_GND -->
<g id="edge6" class="edge">
<title>CABLE_GND:e&#45;&#45;CHASSIS_GND:w</title>
<path fill="none" stroke="#000000" stroke-width="2" d="M13898.25,-205.5C13962.36,-205.5 13978.36,-206.38 14042.25,-206.38"/>
<path fill="none" stroke="#000000" stroke-width="2" d="M13898.25,-207.5C13962.25,-207.5 13978.25,-208.38 14042.25,-208.37"/>
<path fill="none" stroke="#000000" stroke-width="2" d="M13898.25,-209.5C13962.14,-209.5 13978.14,-210.37 14042.25,-210.37"/>
</g>
<!-- CABLE_SSR_CTRL_POS&#45;&#45;DC_SSR -->
<g id="edge8" class="edge">
<title>CABLE_SSR_CTRL_POS:e&#45;&#45;DC_SSR:w</title>
<path fill="none" stroke="#000000" stroke-width="2" d="M4182.12,-205.5C4437.51,-205.5 4501.36,-205.5 4756.75,-205.5"/>
<path fill="none" stroke="#00ff00" stroke-width="2" d="M4182.12,-207.5C4437.51,-207.5 4501.36,-207.5 4756.75,-207.5"/>
<path fill="none" stroke="#000000" stroke-width="2" d="M4182.12,-209.5C4437.51,-209.5 4501.36,-209.5 4756.75,-209.5"/>
</g>
<!-- CABLE_SSR_CTRL_NEG&#45;&#45;DC_SSR -->
<g id="edge10" class="edge">
<title>CABLE_SSR_CTRL_NEG:e&#45;&#45;DC_SSR:w</title>
<path fill="none" stroke="#000000" stroke-width="2" d="M4612.75,-44.5C4703.11,-46.97 4670.28,-184.22 4756.75,-181.75"/>
<path fill="none" stroke="#8000ff" stroke-width="2" d="M4612.75,-46.5C4701.16,-46.5 4668.34,-183.75 4756.75,-183.75"/>
<path fill="none" stroke="#000000" stroke-width="2" d="M4612.75,-48.5C4699.22,-46.03 4666.39,-183.28 4756.75,-185.75"/>
</g>
</g>
</svg>
