<?xml version="1.0" encoding="UTF-8" standalone="no"?>
<!DOCTYPE svg PUBLIC "-//W3C//DTD SVG 1.1//EN"
 "http://www.w3.org/Graphics/SVG/1.1/DTD/svg11.dtd">
<!-- Generated by graphviz version 15.1.0 (20260618.0150)
 -->
<!-- Pages: 1 -->
<svg width="7134pt" height="436pt"
 viewBox="0.00 0.00 7134.00 436.00" xmlns="http://www.w3.org/2000/svg" xmlns:xlink="http://www.w3.org/1999/xlink">
<g id="graph0" class="graph" transform="scale(1 1) rotate(0) translate(4 431.5)">
<polygon fill="#ffffff" stroke="none" points="-4,4 -4,-431.5 7130,-431.5 7130,4 -4,4"/>
<!-- PST_F1 -->
<g id="node1" class="node">
<title>PST_F1</title>
<polygon fill="#ffffff" stroke="black" points="4817,-330.25 0,-330.25 0,-137.25 4817,-137.25 4817,-330.25"/>
<polygon fill="none" stroke="black" points="0,-306.5 0,-330.25 4817,-330.25 4817,-306.5 0,-306.5"/>
<text xml:space="preserve" text-anchor="start" x="2383.75" y="-313.5" font-family="arial" font-size="14.00">PST_F1</text>
<polygon fill="none" stroke="black" points="0,-282.75 0,-306.5 1682.17,-306.5 1682.17,-282.75 0,-282.75"/>
<text xml:space="preserve" text-anchor="start" x="728.21" y="-289.75" font-family="arial" font-size="14.00">Bosch PST&#45;F1 5&#45;pin Bosch Trapezoid</text>
<polygon fill="none" stroke="black" points="1682.17,-282.75 1682.17,-306.5 3330.58,-306.5 3330.58,-282.75 1682.17,-282.75"/>
<text xml:space="preserve" text-anchor="start" x="2410.38" y="-289.75" font-family="arial" font-size="14.00">Dual oil temp + pressure sensor</text>
<polygon fill="none" stroke="black" points="3330.58,-282.75 3330.58,-306.5 4817,-306.5 4817,-282.75 3330.58,-282.75"/>
<text xml:space="preserve" text-anchor="start" x="4058.79" y="-289.75" font-family="arial" font-size="14.00">5&#45;pin</text>
<polygon fill="none" stroke="black" points="0,-259 0,-282.75 2462.5,-282.75 2462.5,-259 0,-259"/>
<text xml:space="preserve" text-anchor="start" x="1224.12" y="-266" font-family="arial" font-size="14.00">—</text>
<polygon fill="none" stroke="black" points="2462.5,-259 2462.5,-282.75 4817,-282.75 4817,-259 2462.5,-259"/>
<text xml:space="preserve" text-anchor="start" x="3636" y="-266" font-family="arial" font-size="14.00">1</text>
<polygon fill="none" stroke="black" points="0,-235.25 0,-259 2462.5,-259 2462.5,-235.25 0,-235.25"/>
<text xml:space="preserve" text-anchor="start" x="1183.62" y="-242.25" font-family="arial" font-size="14.00">Pressure Signal</text>
<polygon fill="none" stroke="black" points="2462.5,-235.25 2462.5,-259 4817,-259 4817,-235.25 2462.5,-235.25"/>
<text xml:space="preserve" text-anchor="start" x="3636" y="-242.25" font-family="arial" font-size="14.00">2</text>
<polygon fill="none" stroke="black" points="0,-211.5 0,-235.25 2462.5,-235.25 2462.5,-211.5 0,-211.5"/>
<text xml:space="preserve" text-anchor="start" x="1218.88" y="-218.5" font-family="arial" font-size="14.00">+5V</text>
<polygon fill="none" stroke="black" points="2462.5,-211.5 2462.5,-235.25 4817,-235.25 4817,-211.5 2462.5,-211.5"/>
<text xml:space="preserve" text-anchor="start" x="3636" y="-218.5" font-family="arial" font-size="14.00">3</text>
<polygon fill="none" stroke="black" points="0,-187.75 0,-211.5 2462.5,-211.5 2462.5,-187.75 0,-187.75"/>
<text xml:space="preserve" text-anchor="start" x="1215.88" y="-194.75" font-family="arial" font-size="14.00">GND</text>
<polygon fill="none" stroke="black" points="2462.5,-187.75 2462.5,-211.5 4817,-211.5 4817,-187.75 2462.5,-187.75"/>
<text xml:space="preserve" text-anchor="start" x="3636" y="-194.75" font-family="arial" font-size="14.00">4</text>
<polygon fill="none" stroke="black" points="0,-164 0,-187.75 2462.5,-187.75 2462.5,-164 0,-164"/>
<text xml:space="preserve" text-anchor="start" x="1173.5" y="-171" font-family="arial" font-size="14.00">Temp Signal (NTC)</text>
<polygon fill="none" stroke="black" points="2462.5,-164 2462.5,-187.75 4817,-187.75 4817,-164 2462.5,-164"/>
<text xml:space="preserve" text-anchor="start" x="3636" y="-171" font-family="arial" font-size="14.00">5</text>
<polygon fill="none" stroke="black" points="0,-137.25 0,-164 4817,-164 4817,-137.25 0,-137.25"/>
<text xml:space="preserve" text-anchor="start" x="4" y="-145.75" font-family="arial" font-size="14.00">Bosch PST&#45;F1 (order# 0261.544.01F / OEM equiv 0281006414). 5&#45;pin Bosch Trapezoid connector. Pin 1 = NC (empty in housing). Active pins: 2=Pressure, 3=+5V, 4=GND, 5=Temp. Mating connector kit: Bosch F02U.B00.751&#45;01 (housing 1928405159, 5&#45;pin Trapez). ⚠️ NOT a 4&#45;pin connector — ordering a 4&#45;pin body will mismatch the sensor physically. Source: Bosch Motorsport datasheet bosch&#45;motorsport.com PST&#45;F 1 (Pin 2=Pressure Signal, Pin 3=Power Supply, Pin 4=Ground, Pin 5=Temperature Signal). Confirmed xtramotorsport.com. Pressure output: 0.5V = 0 bar, 4.5V = 10 bar (ratiometric, 5V supply). Temp output: NTC — calibrate in MTune against resistance table. Mount adapter: M14x1.5 female → M10x1.0 male. Phase 3: moves to 07K iABED oil housing (M10x1.0 port) unchanged.</text>
</g>
<!-- W_PST_F1 -->
<g id="node3" class="node">
<title>W_PST_F1</title>
<polygon fill="#ffffff" stroke="black" points="6019,-340.62 4961,-340.62 4961,-126.88 6019,-126.88 6019,-340.62"/>
<polygon fill="none" stroke="black" points="4961,-316.88 4961,-340.62 6019,-340.62 6019,-316.88 4961,-316.88"/>
<text xml:space="preserve" text-anchor="start" x="5454.75" y="-323.88" font-family="arial" font-size="14.00">W_PST_F1</text>
<polygon fill="none" stroke="black" points="4961,-293.12 4961,-316.88 5479.88,-316.88 5479.88,-293.12 4961,-293.12"/>
<text xml:space="preserve" text-anchor="start" x="5213.31" y="-300.12" font-family="arial" font-size="14.00">4x</text>
<polygon fill="none" stroke="black" points="5479.88,-293.12 5479.88,-316.88 6019,-316.88 6019,-293.12 5479.88,-293.12"/>
<text xml:space="preserve" text-anchor="start" x="5732.19" y="-300.12" font-family="arial" font-size="14.00">1.0 m</text>
<text xml:space="preserve" text-anchor="start" x="5139.08" y="-278.38" font-family="arial" font-size="14.00"> </text>
<text xml:space="preserve" text-anchor="start" x="5093.33" y="-258.62" font-family="arial" font-size="14.00">PST_F1:4:GND</text>
<text xml:space="preserve" text-anchor="start" x="5424.75" y="-258.62" font-family="arial" font-size="14.00"> &#160;&#160;&#160;&#160;1:BN:Sensor GND &#160;&#160;&#160;</text>
<text xml:space="preserve" text-anchor="start" x="5763.29" y="-258.62" font-family="arial" font-size="14.00">ECU_16PIN:2:Sensor GND</text>
<polygon fill="#000000" stroke="none" points="4961,-251.62 4961,-253.62 6019,-253.62 6019,-251.62 4961,-251.62"/>
<polygon fill="#895956" stroke="none" points="4961,-249.62 4961,-251.62 6019,-251.62 6019,-249.62 4961,-249.62"/>
<polygon fill="#000000" stroke="none" points="4961,-247.62 4961,-249.62 6019,-249.62 6019,-247.62 4961,-247.62"/>
<text xml:space="preserve" text-anchor="start" x="5096.33" y="-232.88" font-family="arial" font-size="14.00">PST_F1:3:+5V</text>
<text xml:space="preserve" text-anchor="start" x="5450.62" y="-232.88" font-family="arial" font-size="14.00"> &#160;&#160;&#160;&#160;2:RD:+5V &#160;&#160;&#160;</text>
<text xml:space="preserve" text-anchor="start" x="5773.04" y="-232.88" font-family="arial" font-size="14.00">ECU_16PIN:1:+5V OUT</text>
<polygon fill="#000000" stroke="none" points="4961,-225.88 4961,-227.88 6019,-227.88 6019,-225.88 4961,-225.88"/>
<polygon fill="#ff0000" stroke="none" points="4961,-223.88 4961,-225.88 6019,-225.88 6019,-223.88 4961,-223.88"/>
<polygon fill="#000000" stroke="none" points="4961,-221.88 4961,-223.88 6019,-223.88 6019,-221.88 4961,-221.88"/>
<text xml:space="preserve" text-anchor="start" x="5061.08" y="-207.12" font-family="arial" font-size="14.00">PST_F1:2:Pressure Signal</text>
<text xml:space="preserve" text-anchor="start" x="5410.88" y="-207.12" font-family="arial" font-size="14.00"> &#160;&#160;&#160;&#160;3:WH:Pressure (AIN 3) &#160;&#160;&#160;</text>
<text xml:space="preserve" text-anchor="start" x="5781.29" y="-207.12" font-family="arial" font-size="14.00">ECU_16PIN:12:AIN 3</text>
<polygon fill="#000000" stroke="none" points="4961,-200.12 4961,-202.12 6019,-202.12 6019,-200.12 4961,-200.12"/>
<polygon fill="#ffffff" stroke="none" points="4961,-198.12 4961,-200.12 6019,-200.12 6019,-198.12 4961,-198.12"/>
<polygon fill="#000000" stroke="none" points="4961,-196.12 4961,-198.12 6019,-198.12 6019,-196.12 4961,-196.12"/>
<text xml:space="preserve" text-anchor="start" x="5050.96" y="-181.38" font-family="arial" font-size="14.00">PST_F1:5:Temp Signal (NTC)</text>
<text xml:space="preserve" text-anchor="start" x="5421" y="-181.38" font-family="arial" font-size="14.00"> &#160;&#160;&#160;&#160;4:WH:Temp (AIN 1) &#160;&#160;&#160;</text>
<text xml:space="preserve" text-anchor="start" x="5781.29" y="-181.38" font-family="arial" font-size="14.00">ECU_16PIN:14:AIN 1</text>
<polygon fill="#000000" stroke="none" points="4961,-174.38 4961,-176.38 6019,-176.38 6019,-174.38 4961,-174.38"/>
<polygon fill="#ffffff" stroke="none" points="4961,-172.38 4961,-174.38 6019,-174.38 6019,-172.38 4961,-172.38"/>
<polygon fill="#000000" stroke="none" points="4961,-170.38 4961,-172.38 6019,-172.38 6019,-170.38 4961,-170.38"/>
<text xml:space="preserve" text-anchor="start" x="5139.08" y="-155.62" font-family="arial" font-size="14.00"> </text>
<polygon fill="none" stroke="black" points="4961,-126.88 4961,-150.62 6019,-150.62 6019,-126.88 4961,-126.88"/>
<text xml:space="preserve" text-anchor="start" x="4965" y="-133.88" font-family="arial" font-size="14.00">Engine&#45;bay run from PST&#45;F1 sensor to M50 harness 16&#45;pin aux breakout (both engine&#45;bay side under the H2O arch — no firewall crossing). Keep away from ignition/coil wires.</text>
</g>
<!-- PST_F1&#45;&#45;W_PST_F1 -->
<g id="edge1" class="edge">
<title>PST_F1:e&#45;&#45;W_PST_F1:w</title>
<path fill="none" stroke="#000000" stroke-width="2" d="M4817,-221.38C4881.19,-221.38 4897.18,-222.88 4961,-222.88"/>
<path fill="none" stroke="#ff0000" stroke-width="2" d="M4817,-223.38C4881,-223.38 4897,-224.88 4961,-224.88"/>
<path fill="none" stroke="#000000" stroke-width="2" d="M4817,-225.37C4880.82,-225.37 4896.81,-226.87 4961,-226.87"/>
</g>
<!-- PST_F1&#45;&#45;W_PST_F1 -->
<g id="edge3" class="edge">
<title>PST_F1:e&#45;&#45;W_PST_F1:w</title>
<path fill="none" stroke="#000000" stroke-width="2" d="M4817,-197.63C4886.87,-199.31 4895.08,-250.31 4961,-248.63"/>
<path fill="none" stroke="#895956" stroke-width="2" d="M4817,-199.63C4884.9,-199.62 4893.1,-250.62 4961,-250.63"/>
<path fill="none" stroke="#000000" stroke-width="2" d="M4817,-201.62C4882.92,-199.94 4891.13,-250.94 4961,-252.62"/>
</g>
<!-- PST_F1&#45;&#45;W_PST_F1 -->
<g id="edge5" class="edge">
<title>PST_F1:e&#45;&#45;W_PST_F1:w</title>
<path fill="none" stroke="#000000" stroke-width="2" d="M4817,-245.13C4882.5,-246.75 4891.57,-198.75 4961,-197.13"/>
<path fill="none" stroke="#ffffff" stroke-width="2" d="M4817,-247.12C4884.46,-247.13 4893.54,-199.13 4961,-199.12"/>
<path fill="none" stroke="#000000" stroke-width="2" d="M4817,-249.12C4886.43,-247.5 4895.5,-199.5 4961,-201.12"/>
</g>
<!-- PST_F1&#45;&#45;W_PST_F1 -->
<g id="edge7" class="edge">
<title>PST_F1:e&#45;&#45;W_PST_F1:w</title>
<path fill="none" stroke="#000000" stroke-width="2" d="M4817,-173.88C4880.7,-173.9 4896.68,-171.4 4961,-171.38"/>
<path fill="none" stroke="#ffffff" stroke-width="2" d="M4817,-175.87C4881.01,-175.88 4896.99,-173.38 4961,-173.37"/>
<path fill="none" stroke="#000000" stroke-width="2" d="M4817,-177.87C4881.32,-177.85 4897.3,-175.35 4961,-175.37"/>
</g>
<!-- ECU_16PIN -->
<g id="node2" class="node">
<title>ECU_16PIN</title>
<polygon fill="#ffffff" stroke="black" points="7126,-427.5 6163,-427.5 6163,0 7126,0 7126,-427.5"/>
<polygon fill="none" stroke="black" points="6163,-403.75 6163,-427.5 7126,-427.5 7126,-403.75 6163,-403.75"/>
<text xml:space="preserve" text-anchor="start" x="6607.75" y="-410.75" font-family="arial" font-size="14.00">ECU_16PIN</text>
<polygon fill="none" stroke="black" points="6163,-380 6163,-403.75 6524.25,-403.75 6524.25,-380 6163,-380"/>
<text xml:space="preserve" text-anchor="start" x="6167" y="-387" font-family="arial" font-size="14.00">MaxxECU M50 terminated harness — 16&#45;pin aux breakout</text>
<polygon fill="none" stroke="black" points="6524.25,-380 6524.25,-403.75 7080.5,-403.75 7080.5,-380 6524.25,-380"/>
<text xml:space="preserve" text-anchor="start" x="6528.25" y="-387" font-family="arial" font-size="14.00">REV2. Source: maxxecu.com/webhelp/wirings&#45;terminated_engine_harness&#45;bmw_m50.html</text>
<polygon fill="none" stroke="black" points="7080.5,-380 7080.5,-403.75 7126,-403.75 7126,-380 7080.5,-380"/>
<text xml:space="preserve" text-anchor="start" x="7084.5" y="-387" font-family="arial" font-size="14.00">16&#45;pin</text>
<polygon fill="none" stroke="black" points="6163,-356.25 6163,-380 6601.38,-380 6601.38,-356.25 6163,-356.25"/>
<text xml:space="preserve" text-anchor="start" x="6378.44" y="-363.25" font-family="arial" font-size="14.00">1</text>
<polygon fill="none" stroke="black" points="6601.38,-356.25 6601.38,-380 7126,-380 7126,-356.25 6601.38,-356.25"/>
<text xml:space="preserve" text-anchor="start" x="6834.81" y="-363.25" font-family="arial" font-size="14.00">+5V OUT</text>
<polygon fill="none" stroke="black" points="6163,-332.5 6163,-356.25 6601.38,-356.25 6601.38,-332.5 6163,-332.5"/>
<text xml:space="preserve" text-anchor="start" x="6378.44" y="-339.5" font-family="arial" font-size="14.00">2</text>
<polygon fill="none" stroke="black" points="6601.38,-332.5 6601.38,-356.25 7126,-356.25 7126,-332.5 6601.38,-332.5"/>
<text xml:space="preserve" text-anchor="start" x="6825.06" y="-339.5" font-family="arial" font-size="14.00">Sensor GND</text>
<polygon fill="none" stroke="black" points="6163,-308.75 6163,-332.5 6601.38,-332.5 6601.38,-308.75 6163,-308.75"/>
<text xml:space="preserve" text-anchor="start" x="6378.44" y="-315.75" font-family="arial" font-size="14.00">3</text>
<polygon fill="none" stroke="black" points="6601.38,-308.75 6601.38,-332.5 7126,-332.5 7126,-308.75 6601.38,-308.75"/>
<text xml:space="preserve" text-anchor="start" x="6815.31" y="-315.75" font-family="arial" font-size="14.00">INJ 7 (N/A M52)</text>
<polygon fill="none" stroke="black" points="6163,-285 6163,-308.75 6601.38,-308.75 6601.38,-285 6163,-285"/>
<text xml:space="preserve" text-anchor="start" x="6378.44" y="-292" font-family="arial" font-size="14.00">4</text>
<polygon fill="none" stroke="black" points="6601.38,-285 6601.38,-308.75 7126,-308.75 7126,-285 6601.38,-285"/>
<text xml:space="preserve" text-anchor="start" x="6813.06" y="-292" font-family="arial" font-size="14.00">GPO 8 / TACHO</text>
<polygon fill="none" stroke="black" points="6163,-261.25 6163,-285 6601.38,-285 6601.38,-261.25 6163,-261.25"/>
<text xml:space="preserve" text-anchor="start" x="6378.44" y="-268.25" font-family="arial" font-size="14.00">5</text>
<polygon fill="none" stroke="black" points="6601.38,-261.25 6601.38,-285 7126,-285 7126,-261.25 6601.38,-261.25"/>
<text xml:space="preserve" text-anchor="start" x="6819.44" y="-268.25" font-family="arial" font-size="14.00">GPO 7 / DIN 3</text>
<polygon fill="none" stroke="black" points="6163,-237.5 6163,-261.25 6601.38,-261.25 6601.38,-237.5 6163,-237.5"/>
<text xml:space="preserve" text-anchor="start" x="6378.44" y="-244.5" font-family="arial" font-size="14.00">6</text>
<polygon fill="none" stroke="black" points="6601.38,-237.5 6601.38,-261.25 7126,-261.25 7126,-237.5 6601.38,-237.5"/>
<text xml:space="preserve" text-anchor="start" x="6842.31" y="-244.5" font-family="arial" font-size="14.00">GPO 6</text>
<polygon fill="none" stroke="black" points="6163,-213.75 6163,-237.5 6601.38,-237.5 6601.38,-213.75 6163,-213.75"/>
<text xml:space="preserve" text-anchor="start" x="6378.44" y="-220.75" font-family="arial" font-size="14.00">7</text>
<polygon fill="none" stroke="black" points="6601.38,-213.75 6601.38,-237.5 7126,-237.5 7126,-213.75 6601.38,-213.75"/>
<text xml:space="preserve" text-anchor="start" x="6842.31" y="-220.75" font-family="arial" font-size="14.00">GPO 3</text>
<polygon fill="none" stroke="black" points="6163,-190 6163,-213.75 6601.38,-213.75 6601.38,-190 6163,-190"/>
<text xml:space="preserve" text-anchor="start" x="6378.44" y="-197" font-family="arial" font-size="14.00">8</text>
<polygon fill="none" stroke="black" points="6601.38,-190 6601.38,-213.75 7126,-213.75 7126,-190 6601.38,-190"/>
<text xml:space="preserve" text-anchor="start" x="6842.31" y="-197" font-family="arial" font-size="14.00">GPO 2</text>
<polygon fill="none" stroke="black" points="6163,-166.25 6163,-190 6601.38,-190 6601.38,-166.25 6163,-166.25"/>
<text xml:space="preserve" text-anchor="start" x="6378.44" y="-173.25" font-family="arial" font-size="14.00">9</text>
<polygon fill="none" stroke="black" points="6601.38,-166.25 6601.38,-190 7126,-190 7126,-166.25 6601.38,-166.25"/>
<text xml:space="preserve" text-anchor="start" x="6843.81" y="-173.25" font-family="arial" font-size="14.00">CAN L</text>
<polygon fill="none" stroke="black" points="6163,-142.5 6163,-166.25 6601.38,-166.25 6601.38,-142.5 6163,-142.5"/>
<text xml:space="preserve" text-anchor="start" x="6374.69" y="-149.5" font-family="arial" font-size="14.00">10</text>
<polygon fill="none" stroke="black" points="6601.38,-142.5 6601.38,-166.25 7126,-166.25 7126,-142.5 6601.38,-142.5"/>
<text xml:space="preserve" text-anchor="start" x="6842.69" y="-149.5" font-family="arial" font-size="14.00">CAN H</text>
<polygon fill="none" stroke="black" points="6163,-118.75 6163,-142.5 6601.38,-142.5 6601.38,-118.75 6163,-118.75"/>
<text xml:space="preserve" text-anchor="start" x="6375.06" y="-125.75" font-family="arial" font-size="14.00">11</text>
<polygon fill="none" stroke="black" points="6601.38,-118.75 6601.38,-142.5 7126,-142.5 7126,-118.75 6601.38,-118.75"/>
<text xml:space="preserve" text-anchor="start" x="6846.81" y="-125.75" font-family="arial" font-size="14.00">AIN 4</text>
<polygon fill="none" stroke="black" points="6163,-95 6163,-118.75 6601.38,-118.75 6601.38,-95 6163,-95"/>
<text xml:space="preserve" text-anchor="start" x="6374.69" y="-102" font-family="arial" font-size="14.00">12</text>
<polygon fill="none" stroke="black" points="6601.38,-95 6601.38,-118.75 7126,-118.75 7126,-95 6601.38,-95"/>
<text xml:space="preserve" text-anchor="start" x="6846.81" y="-102" font-family="arial" font-size="14.00">AIN 3</text>
<polygon fill="none" stroke="black" points="6163,-71.25 6163,-95 6601.38,-95 6601.38,-71.25 6163,-71.25"/>
<text xml:space="preserve" text-anchor="start" x="6374.69" y="-78.25" font-family="arial" font-size="14.00">13</text>
<polygon fill="none" stroke="black" points="6601.38,-71.25 6601.38,-95 7126,-95 7126,-71.25 6601.38,-71.25"/>
<text xml:space="preserve" text-anchor="start" x="6846.81" y="-78.25" font-family="arial" font-size="14.00">AIN 2</text>
<polygon fill="none" stroke="black" points="6163,-47.5 6163,-71.25 6601.38,-71.25 6601.38,-47.5 6163,-47.5"/>
<text xml:space="preserve" text-anchor="start" x="6374.69" y="-54.5" font-family="arial" font-size="14.00">14</text>
<polygon fill="none" stroke="black" points="6601.38,-47.5 6601.38,-71.25 7126,-71.25 7126,-47.5 6601.38,-47.5"/>
<text xml:space="preserve" text-anchor="start" x="6846.81" y="-54.5" font-family="arial" font-size="14.00">AIN 1</text>
<polygon fill="none" stroke="black" points="6163,-23.75 6163,-47.5 6601.38,-47.5 6601.38,-23.75 6163,-23.75"/>
<text xml:space="preserve" text-anchor="start" x="6374.69" y="-30.75" font-family="arial" font-size="14.00">15</text>
<polygon fill="none" stroke="black" points="6601.38,-23.75 6601.38,-47.5 7126,-47.5 7126,-23.75 6601.38,-23.75"/>
<text xml:space="preserve" text-anchor="start" x="6846.44" y="-30.75" font-family="arial" font-size="14.00">DIN 2</text>
<polygon fill="none" stroke="black" points="6163,0 6163,-23.75 6601.38,-23.75 6601.38,0 6163,0"/>
<text xml:space="preserve" text-anchor="start" x="6374.69" y="-7" font-family="arial" font-size="14.00">16</text>
<polygon fill="none" stroke="black" points="6601.38,0 6601.38,-23.75 7126,-23.75 7126,0 6601.38,0"/>
<text xml:space="preserve" text-anchor="start" x="6846.44" y="-7" font-family="arial" font-size="14.00">DIN 1</text>
</g>
<!-- W_PST_F1&#45;&#45;ECU_16PIN -->
<g id="edge2" class="edge">
<title>W_PST_F1:e&#45;&#45;ECU_16PIN:w</title>
<path fill="none" stroke="#000000" stroke-width="2" d="M6019,-222.88C6111.21,-225.37 6074.66,-368.62 6163,-366.13"/>
<path fill="none" stroke="#ff0000" stroke-width="2" d="M6019,-224.87C6109.27,-224.88 6072.73,-368.12 6163,-368.12"/>
<path fill="none" stroke="#000000" stroke-width="2" d="M6019,-226.87C6107.34,-224.38 6070.79,-367.63 6163,-370.12"/>
</g>
<!-- W_PST_F1&#45;&#45;ECU_16PIN -->
<g id="edge4" class="edge">
<title>W_PST_F1:e&#45;&#45;ECU_16PIN:w</title>
<path fill="none" stroke="#000000" stroke-width="2" d="M6019,-248.63C6097.36,-250.81 6088.62,-344.56 6163,-342.38"/>
<path fill="none" stroke="#895956" stroke-width="2" d="M6019,-250.62C6095.37,-250.63 6086.63,-344.37 6163,-344.37"/>
<path fill="none" stroke="#000000" stroke-width="2" d="M6019,-252.62C6093.38,-250.44 6084.64,-344.19 6163,-346.37"/>
</g>
<!-- W_PST_F1&#45;&#45;ECU_16PIN -->
<g id="edge6" class="edge">
<title>W_PST_F1:e&#45;&#45;ECU_16PIN:w</title>
<path fill="none" stroke="#000000" stroke-width="2" d="M6019,-197.13C6093.01,-199.3 6085,-107.05 6163,-104.88"/>
<path fill="none" stroke="#ffffff" stroke-width="2" d="M6019,-199.13C6095.01,-199.12 6086.99,-106.88 6163,-106.87"/>
<path fill="none" stroke="#000000" stroke-width="2" d="M6019,-201.12C6097,-198.95 6088.99,-106.7 6163,-108.87"/>
</g>
<!-- W_PST_F1&#45;&#45;ECU_16PIN -->
<g id="edge8" class="edge">
<title>W_PST_F1:e&#45;&#45;ECU_16PIN:w</title>
<path fill="none" stroke="#000000" stroke-width="2" d="M6019,-171.38C6098.66,-173.71 6079.4,-59.71 6163,-57.38"/>
<path fill="none" stroke="#ffffff" stroke-width="2" d="M6019,-173.38C6100.63,-173.38 6081.37,-59.37 6163,-59.38"/>
<path fill="none" stroke="#000000" stroke-width="2" d="M6019,-175.37C6102.6,-173.04 6083.34,-59.04 6163,-61.37"/>
</g>
</g>
</svg>
