<?xml version="1.0" encoding="UTF-8" standalone="no"?>
<!DOCTYPE svg PUBLIC "-//W3C//DTD SVG 1.1//EN"
 "http://www.w3.org/Graphics/SVG/1.1/DTD/svg11.dtd">
<!-- Generated by graphviz version 15.1.0 (20260618.0150)
 -->
<!-- Pages: 1 -->
<svg width="4323pt" height="640pt"
 viewBox="0.00 0.00 4323.00 640.00" xmlns="http://www.w3.org/2000/svg" xmlns:xlink="http://www.w3.org/1999/xlink">
<g id="graph0" class="graph" transform="scale(1 1) rotate(0) translate(4 635.62)">
<polygon fill="#ffffff" stroke="none" points="-4,4 -4,-635.62 4319.25,-635.62 4319.25,4 -4,4"/>
<!-- PST_F1 -->
<g id="node1" class="node">
<title>PST_F1</title>
<polygon fill="#ffffff" stroke="black" points="2420.75,-179 0,-179 0,-12.75 2420.75,-12.75 2420.75,-179"/>
<polygon fill="none" stroke="black" points="0,-155.25 0,-179 2420.75,-179 2420.75,-155.25 0,-155.25"/>
<text xml:space="preserve" text-anchor="start" x="1185.62" y="-162.25" font-family="arial" font-size="14.00">PST_F1</text>
<polygon fill="none" stroke="black" points="0,-131.5 0,-155.25 813.42,-155.25 813.42,-131.5 0,-131.5"/>
<text xml:space="preserve" text-anchor="start" x="346.33" y="-138.5" font-family="arial" font-size="14.00">Bosch PST&#45;F1 4&#45;pin</text>
<polygon fill="none" stroke="black" points="813.42,-131.5 813.42,-155.25 1698.08,-155.25 1698.08,-131.5 813.42,-131.5"/>
<text xml:space="preserve" text-anchor="start" x="1159.75" y="-138.5" font-family="arial" font-size="14.00">Dual oil temp + pressure sensor</text>
<polygon fill="none" stroke="black" points="1698.08,-131.5 1698.08,-155.25 2420.75,-155.25 2420.75,-131.5 1698.08,-131.5"/>
<text xml:space="preserve" text-anchor="start" x="2044.42" y="-138.5" font-family="arial" font-size="14.00">4&#45;pin</text>
<polygon fill="none" stroke="black" points="0,-107.75 0,-131.5 1254.25,-131.5 1254.25,-107.75 0,-107.75"/>
<text xml:space="preserve" text-anchor="start" x="614.75" y="-114.75" font-family="arial" font-size="14.00">+5V</text>
<polygon fill="none" stroke="black" points="1254.25,-107.75 1254.25,-131.5 2420.75,-131.5 2420.75,-107.75 1254.25,-107.75"/>
<text xml:space="preserve" text-anchor="start" x="1833.75" y="-114.75" font-family="arial" font-size="14.00">1</text>
<polygon fill="none" stroke="black" points="0,-84 0,-107.75 1254.25,-107.75 1254.25,-84 0,-84"/>
<text xml:space="preserve" text-anchor="start" x="611.75" y="-91" font-family="arial" font-size="14.00">GND</text>
<polygon fill="none" stroke="black" points="1254.25,-84 1254.25,-107.75 2420.75,-107.75 2420.75,-84 1254.25,-84"/>
<text xml:space="preserve" text-anchor="start" x="1833.75" y="-91" font-family="arial" font-size="14.00">2</text>
<polygon fill="none" stroke="black" points="0,-60.25 0,-84 1254.25,-84 1254.25,-60.25 0,-60.25"/>
<text xml:space="preserve" text-anchor="start" x="579.5" y="-67.25" font-family="arial" font-size="14.00">Pressure (0&#45;5V)</text>
<polygon fill="none" stroke="black" points="1254.25,-60.25 1254.25,-84 2420.75,-84 2420.75,-60.25 1254.25,-60.25"/>
<text xml:space="preserve" text-anchor="start" x="1833.75" y="-67.25" font-family="arial" font-size="14.00">3</text>
<polygon fill="none" stroke="black" points="0,-36.5 0,-60.25 1254.25,-60.25 1254.25,-36.5 0,-36.5"/>
<text xml:space="preserve" text-anchor="start" x="590" y="-43.5" font-family="arial" font-size="14.00">Temp (NTC)</text>
<polygon fill="none" stroke="black" points="1254.25,-36.5 1254.25,-60.25 2420.75,-60.25 2420.75,-36.5 1254.25,-36.5"/>
<text xml:space="preserve" text-anchor="start" x="1833.75" y="-43.5" font-family="arial" font-size="14.00">4</text>
<polygon fill="none" stroke="black" points="0,-12.75 0,-36.5 2420.75,-36.5 2420.75,-12.75 0,-12.75"/>
<text xml:space="preserve" text-anchor="start" x="4" y="-19.75" font-family="arial" font-size="14.00">Bosch PST&#45;F1 4&#45;pin. Mount adapter: M14x1.5 female → M10x1.0 male. Pressure output: 0.5V = 0 bar, 4.5V = 10 bar (linear 0&#45;5V). Temp output: NTC thermistor — calibrate in MTune against resistance table. Phase 3: moves to 07K iABED oil housing (M10x1.0 port) unchanged. Product: https://www.bosch&#45;motorsport.com/products/sensors/pressure&#45;and&#45;temperature/pressure&#45;sensor&#45;combined&#45;pst&#45;f&#45;1/</text>
</g>
<!-- W_PST_F1 -->
<g id="node5" class="node">
<title>W_PST_F1</title>
<polygon fill="#ffffff" stroke="black" points="3208.25,-213.75 2564.75,-213.75 2564.75,0 3208.25,0 3208.25,-213.75"/>
<polygon fill="none" stroke="black" points="2564.75,-190 2564.75,-213.75 3208.25,-213.75 3208.25,-190 2564.75,-190"/>
<text xml:space="preserve" text-anchor="start" x="2851.25" y="-197" font-family="arial" font-size="14.00">W_PST_F1</text>
<polygon fill="none" stroke="black" points="2564.75,-166.25 2564.75,-190 2876.38,-190 2876.38,-166.25 2564.75,-166.25"/>
<text xml:space="preserve" text-anchor="start" x="2713.44" y="-173.25" font-family="arial" font-size="14.00">4x</text>
<polygon fill="none" stroke="black" points="2876.38,-166.25 2876.38,-190 3208.25,-190 3208.25,-166.25 2876.38,-166.25"/>
<text xml:space="preserve" text-anchor="start" x="3025.06" y="-173.25" font-family="arial" font-size="14.00">0.6 m</text>
<text xml:space="preserve" text-anchor="start" x="2644.75" y="-151.5" font-family="arial" font-size="14.00"> </text>
<text xml:space="preserve" text-anchor="start" x="2599" y="-131.75" font-family="arial" font-size="14.00">PST_F1:2:GND</text>
<text xml:space="preserve" text-anchor="start" x="2744.38" y="-131.75" font-family="arial" font-size="14.00"> &#160;&#160;&#160;&#160;1:BN:Sensor GND &#160;&#160;&#160;</text>
<text xml:space="preserve" text-anchor="start" x="2919.38" y="-131.75" font-family="arial" font-size="14.00">BULKHEAD_ENGINE:1:Sensor GND (pin 79)</text>
<polygon fill="#000000" stroke="none" points="2564.75,-124.75 2564.75,-126.75 3208.25,-126.75 3208.25,-124.75 2564.75,-124.75"/>
<polygon fill="#895956" stroke="none" points="2564.75,-122.75 2564.75,-124.75 3208.25,-124.75 3208.25,-122.75 2564.75,-122.75"/>
<polygon fill="#000000" stroke="none" points="2564.75,-120.75 2564.75,-122.75 3208.25,-122.75 3208.25,-120.75 2564.75,-120.75"/>
<text xml:space="preserve" text-anchor="start" x="2602" y="-106" font-family="arial" font-size="14.00">PST_F1:1:+5V</text>
<text xml:space="preserve" text-anchor="start" x="2770.25" y="-106" font-family="arial" font-size="14.00"> &#160;&#160;&#160;&#160;2:RD:+5V &#160;&#160;&#160;</text>
<text xml:space="preserve" text-anchor="start" x="2923.5" y="-106" font-family="arial" font-size="14.00">BULKHEAD_ENGINE:2:+5V sensor (pin 47)</text>
<polygon fill="#000000" stroke="none" points="2564.75,-99 2564.75,-101 3208.25,-101 3208.25,-99 2564.75,-99"/>
<polygon fill="#ff0000" stroke="none" points="2564.75,-97 2564.75,-99 3208.25,-99 3208.25,-97 2564.75,-97"/>
<polygon fill="#000000" stroke="none" points="2564.75,-95 2564.75,-97 3208.25,-97 3208.25,-95 2564.75,-95"/>
<text xml:space="preserve" text-anchor="start" x="2566.75" y="-80.25" font-family="arial" font-size="14.00">PST_F1:3:Pressure (0&#45;5V)</text>
<text xml:space="preserve" text-anchor="start" x="2730.5" y="-80.25" font-family="arial" font-size="14.00"> &#160;&#160;&#160;&#160;3:WH:Pressure (AIN 3) &#160;&#160;&#160;</text>
<text xml:space="preserve" text-anchor="start" x="2907" y="-80.25" font-family="arial" font-size="14.00">BULKHEAD_ENGINE:3:PST&#45;F1 pressure (pin 50)</text>
<polygon fill="#000000" stroke="none" points="2564.75,-73.25 2564.75,-75.25 3208.25,-75.25 3208.25,-73.25 2564.75,-73.25"/>
<polygon fill="#ffffff" stroke="none" points="2564.75,-71.25 2564.75,-73.25 3208.25,-73.25 3208.25,-71.25 2564.75,-71.25"/>
<polygon fill="#000000" stroke="none" points="2564.75,-69.25 2564.75,-71.25 3208.25,-71.25 3208.25,-69.25 2564.75,-69.25"/>
<text xml:space="preserve" text-anchor="start" x="2577.25" y="-54.5" font-family="arial" font-size="14.00">PST_F1:4:Temp (NTC)</text>
<text xml:space="preserve" text-anchor="start" x="2740.62" y="-54.5" font-family="arial" font-size="14.00"> &#160;&#160;&#160;&#160;4:WH:Temp (AIN 1) &#160;&#160;&#160;</text>
<text xml:space="preserve" text-anchor="start" x="2917.88" y="-54.5" font-family="arial" font-size="14.00">BULKHEAD_ENGINE:4:PST&#45;F1 temp (pin 51)</text>
<polygon fill="#000000" stroke="none" points="2564.75,-47.5 2564.75,-49.5 3208.25,-49.5 3208.25,-47.5 2564.75,-47.5"/>
<polygon fill="#ffffff" stroke="none" points="2564.75,-45.5 2564.75,-47.5 3208.25,-47.5 3208.25,-45.5 2564.75,-45.5"/>
<polygon fill="#000000" stroke="none" points="2564.75,-43.5 2564.75,-45.5 3208.25,-45.5 3208.25,-43.5 2564.75,-43.5"/>
<text xml:space="preserve" text-anchor="start" x="2644.75" y="-28.75" font-family="arial" font-size="14.00"> </text>
<polygon fill="none" stroke="black" points="2564.75,0 2564.75,-23.75 3208.25,-23.75 3208.25,0 2564.75,0"/>
<text xml:space="preserve" text-anchor="start" x="2647.62" y="-7" font-family="arial" font-size="14.00">Engine&#45;side sensor to bulkhead engine plug. Keep away from ignition/coil wires.</text>
</g>
<!-- PST_F1&#45;&#45;W_PST_F1 -->
<g id="edge1" class="edge">
<title>PST_F1:e&#45;&#45;W_PST_F1:w</title>
<path fill="none" stroke="#000000" stroke-width="2" d="M2420.75,-117.63C2483.81,-118.51 2498.37,-96.88 2564.75,-96"/>
<path fill="none" stroke="#ff0000" stroke-width="2" d="M2420.75,-119.62C2485.47,-119.62 2500.03,-98 2564.75,-98"/>
<path fill="none" stroke="#000000" stroke-width="2" d="M2420.75,-121.62C2487.13,-120.74 2501.69,-99.12 2564.75,-100"/>
</g>
<!-- PST_F1&#45;&#45;W_PST_F1 -->
<g id="edge3" class="edge">
<title>PST_F1:e&#45;&#45;W_PST_F1:w</title>
<path fill="none" stroke="#000000" stroke-width="2" d="M2420.75,-93.88C2487.73,-95 2501.36,-122.87 2564.75,-121.75"/>
<path fill="none" stroke="#895956" stroke-width="2" d="M2420.75,-95.88C2485.94,-95.87 2499.56,-123.75 2564.75,-123.75"/>
<path fill="none" stroke="#000000" stroke-width="2" d="M2420.75,-97.87C2484.14,-96.75 2497.77,-124.63 2564.75,-125.75"/>
</g>
<!-- PST_F1&#45;&#45;W_PST_F1 -->
<g id="edge5" class="edge">
<title>PST_F1:e&#45;&#45;W_PST_F1:w</title>
<path fill="none" stroke="#000000" stroke-width="2" d="M2420.75,-70.13C2484.77,-70.13 2500.77,-70.25 2564.75,-70.25"/>
<path fill="none" stroke="#ffffff" stroke-width="2" d="M2420.75,-72.12C2484.75,-72.12 2500.75,-72.25 2564.75,-72.25"/>
<path fill="none" stroke="#000000" stroke-width="2" d="M2420.75,-74.12C2484.73,-74.12 2500.73,-74.25 2564.75,-74.25"/>
</g>
<!-- PST_F1&#45;&#45;W_PST_F1 -->
<g id="edge7" class="edge">
<title>PST_F1:e&#45;&#45;W_PST_F1:w</title>
<path fill="none" stroke="#000000" stroke-width="2" d="M2420.75,-46.38C2484.52,-46.39 2500.51,-44.51 2564.75,-44.5"/>
<path fill="none" stroke="#ffffff" stroke-width="2" d="M2420.75,-48.38C2484.76,-48.38 2500.74,-46.5 2564.75,-46.5"/>
<path fill="none" stroke="#000000" stroke-width="2" d="M2420.75,-50.37C2484.99,-50.36 2500.98,-48.49 2564.75,-48.5"/>
</g>
<!-- BULKHEAD_ENGINE -->
<g id="node2" class="node">
<title>BULKHEAD_ENGINE</title>
<polygon fill="#ffffff" stroke="black" points="4162.62,-180.12 3504.88,-180.12 3504.88,-37.62 4162.62,-37.62 4162.62,-180.12"/>
<polygon fill="none" stroke="black" points="3504.88,-156.38 3504.88,-180.12 4162.62,-180.12 4162.62,-156.38 3504.88,-156.38"/>
<text xml:space="preserve" text-anchor="start" x="3767.38" y="-163.38" font-family="arial" font-size="14.00">BULKHEAD_ENGINE</text>
<polygon fill="none" stroke="black" points="3504.88,-132.62 3504.88,-156.38 3834.62,-156.38 3834.62,-132.62 3504.88,-132.62"/>
<text xml:space="preserve" text-anchor="start" x="3508.88" y="-139.62" font-family="arial" font-size="14.00">Deutsch AS79 bulkhead — engine side (PST&#45;F1 pins)</text>
<polygon fill="none" stroke="black" points="3834.62,-132.62 3834.62,-156.38 4124.62,-156.38 4124.62,-132.62 3834.62,-132.62"/>
<text xml:space="preserve" text-anchor="start" x="3838.62" y="-139.62" font-family="arial" font-size="14.00">Pins 79/47/50/51 of 79&#45;way engine mating plug</text>
<polygon fill="none" stroke="black" points="4124.62,-132.62 4124.62,-156.38 4162.62,-156.38 4162.62,-132.62 4124.62,-132.62"/>
<text xml:space="preserve" text-anchor="start" x="4128.62" y="-139.62" font-family="arial" font-size="14.00">4&#45;pin</text>
<polygon fill="none" stroke="black" points="3504.88,-108.88 3504.88,-132.62 3761.75,-132.62 3761.75,-108.88 3504.88,-108.88"/>
<text xml:space="preserve" text-anchor="start" x="3629.56" y="-115.88" font-family="arial" font-size="14.00">1</text>
<polygon fill="none" stroke="black" points="3761.75,-108.88 3761.75,-132.62 4162.62,-132.62 4162.62,-108.88 3761.75,-108.88"/>
<text xml:space="preserve" text-anchor="start" x="3898.81" y="-115.88" font-family="arial" font-size="14.00">Sensor GND (pin 79)</text>
<polygon fill="none" stroke="black" points="3504.88,-85.12 3504.88,-108.88 3761.75,-108.88 3761.75,-85.12 3504.88,-85.12"/>
<text xml:space="preserve" text-anchor="start" x="3629.56" y="-92.12" font-family="arial" font-size="14.00">2</text>
<polygon fill="none" stroke="black" points="3761.75,-85.12 3761.75,-108.88 4162.62,-108.88 4162.62,-85.12 3761.75,-85.12"/>
<text xml:space="preserve" text-anchor="start" x="3902.94" y="-92.12" font-family="arial" font-size="14.00">+5V sensor (pin 47)</text>
<polygon fill="none" stroke="black" points="3504.88,-61.38 3504.88,-85.12 3761.75,-85.12 3761.75,-61.38 3504.88,-61.38"/>
<text xml:space="preserve" text-anchor="start" x="3629.56" y="-68.38" font-family="arial" font-size="14.00">3</text>
<polygon fill="none" stroke="black" points="3761.75,-61.38 3761.75,-85.12 4162.62,-85.12 4162.62,-61.38 3761.75,-61.38"/>
<text xml:space="preserve" text-anchor="start" x="3886.44" y="-68.38" font-family="arial" font-size="14.00">PST&#45;F1 pressure (pin 50)</text>
<polygon fill="none" stroke="black" points="3504.88,-37.62 3504.88,-61.38 3761.75,-61.38 3761.75,-37.62 3504.88,-37.62"/>
<text xml:space="preserve" text-anchor="start" x="3629.56" y="-44.62" font-family="arial" font-size="14.00">4</text>
<polygon fill="none" stroke="black" points="3761.75,-37.62 3761.75,-61.38 4162.62,-61.38 4162.62,-37.62 3761.75,-37.62"/>
<text xml:space="preserve" text-anchor="start" x="3897.31" y="-44.62" font-family="arial" font-size="14.00">PST&#45;F1 temp (pin 51)</text>
</g>
<!-- BULKHEAD_CABIN -->
<g id="node3" class="node">
<title>BULKHEAD_CABIN</title>
<polygon fill="#ffffff" stroke="black" points="1547.12,-510.12 873.62,-510.12 873.62,-367.62 1547.12,-367.62 1547.12,-510.12"/>
<polygon fill="none" stroke="black" points="873.62,-486.38 873.62,-510.12 1547.12,-510.12 1547.12,-486.38 873.62,-486.38"/>
<text xml:space="preserve" text-anchor="start" x="1149.62" y="-493.38" font-family="arial" font-size="14.00">BULKHEAD_CABIN</text>
<polygon fill="none" stroke="black" points="873.62,-462.62 873.62,-486.38 1195.12,-486.38 1195.12,-462.62 873.62,-462.62"/>
<text xml:space="preserve" text-anchor="start" x="877.62" y="-469.62" font-family="arial" font-size="14.00">Deutsch AS79 bulkhead — cabin side (PST&#45;F1 pins)</text>
<polygon fill="none" stroke="black" points="1195.12,-462.62 1195.12,-486.38 1509.12,-486.38 1509.12,-462.62 1195.12,-462.62"/>
<text xml:space="preserve" text-anchor="start" x="1199.12" y="-469.62" font-family="arial" font-size="14.00">Pins 79/47/50/51 of 79&#45;way cabin flange receptacle</text>
<polygon fill="none" stroke="black" points="1509.12,-462.62 1509.12,-486.38 1547.12,-486.38 1547.12,-462.62 1509.12,-462.62"/>
<text xml:space="preserve" text-anchor="start" x="1513.12" y="-469.62" font-family="arial" font-size="14.00">4&#45;pin</text>
<polygon fill="none" stroke="black" points="873.62,-438.88 873.62,-462.62 1282.38,-462.62 1282.38,-438.88 873.62,-438.88"/>
<text xml:space="preserve" text-anchor="start" x="1014.62" y="-445.88" font-family="arial" font-size="14.00">Sensor GND (pin 79)</text>
<polygon fill="none" stroke="black" points="1282.38,-438.88 1282.38,-462.62 1547.12,-462.62 1547.12,-438.88 1282.38,-438.88"/>
<text xml:space="preserve" text-anchor="start" x="1411" y="-445.88" font-family="arial" font-size="14.00">1</text>
<polygon fill="none" stroke="black" points="873.62,-415.12 873.62,-438.88 1282.38,-438.88 1282.38,-415.12 873.62,-415.12"/>
<text xml:space="preserve" text-anchor="start" x="1018.75" y="-422.12" font-family="arial" font-size="14.00">+5V sensor (pin 47)</text>
<polygon fill="none" stroke="black" points="1282.38,-415.12 1282.38,-438.88 1547.12,-438.88 1547.12,-415.12 1282.38,-415.12"/>
<text xml:space="preserve" text-anchor="start" x="1411" y="-422.12" font-family="arial" font-size="14.00">2</text>
<polygon fill="none" stroke="black" points="873.62,-391.38 873.62,-415.12 1282.38,-415.12 1282.38,-391.38 873.62,-391.38"/>
<text xml:space="preserve" text-anchor="start" x="1002.25" y="-398.38" font-family="arial" font-size="14.00">PST&#45;F1 pressure (pin 50)</text>
<polygon fill="none" stroke="black" points="1282.38,-391.38 1282.38,-415.12 1547.12,-415.12 1547.12,-391.38 1282.38,-391.38"/>
<text xml:space="preserve" text-anchor="start" x="1411" y="-398.38" font-family="arial" font-size="14.00">3</text>
<polygon fill="none" stroke="black" points="873.62,-367.62 873.62,-391.38 1282.38,-391.38 1282.38,-367.62 873.62,-367.62"/>
<text xml:space="preserve" text-anchor="start" x="1013.12" y="-374.62" font-family="arial" font-size="14.00">PST&#45;F1 temp (pin 51)</text>
<polygon fill="none" stroke="black" points="1282.38,-367.62 1282.38,-391.38 1547.12,-391.38 1547.12,-367.62 1282.38,-367.62"/>
<text xml:space="preserve" text-anchor="start" x="1411" y="-374.62" font-family="arial" font-size="14.00">4</text>
</g>
<!-- W_PST_F1_CABIN -->
<g id="node6" class="node">
<title>W_PST_F1_CABIN</title>
<polygon fill="#ffffff" stroke="black" points="3205.62,-543.75 2567.38,-543.75 2567.38,-330 3205.62,-330 3205.62,-543.75"/>
<polygon fill="none" stroke="black" points="2567.38,-520 2567.38,-543.75 3205.62,-543.75 3205.62,-520 2567.38,-520"/>
<text xml:space="preserve" text-anchor="start" x="2826.88" y="-527" font-family="arial" font-size="14.00">W_PST_F1_CABIN</text>
<polygon fill="none" stroke="black" points="2567.38,-496.25 2567.38,-520 2876.38,-520 2876.38,-496.25 2567.38,-496.25"/>
<text xml:space="preserve" text-anchor="start" x="2714.75" y="-503.25" font-family="arial" font-size="14.00">4x</text>
<polygon fill="none" stroke="black" points="2876.38,-496.25 2876.38,-520 3205.62,-520 3205.62,-496.25 2876.38,-496.25"/>
<text xml:space="preserve" text-anchor="start" x="3023.75" y="-503.25" font-family="arial" font-size="14.00">0.4 m</text>
<text xml:space="preserve" text-anchor="start" x="2711.5" y="-481.5" font-family="arial" font-size="14.00"> </text>
<text xml:space="preserve" text-anchor="start" x="2581.75" y="-461.75" font-family="arial" font-size="14.00">BULKHEAD_CABIN:1:Sensor GND (pin 79)</text>
<text xml:space="preserve" text-anchor="start" x="2875.25" y="-461.75" font-family="arial" font-size="14.00"> &#160;&#160;&#160;&#160;1:BN:Sensor GND &#160;&#160;&#160;</text>
<text xml:space="preserve" text-anchor="start" x="3037.88" y="-461.75" font-family="arial" font-size="14.00">ECU_16PIN:2:Sensor GND</text>
<polygon fill="#000000" stroke="none" points="2567.38,-454.75 2567.38,-456.75 3205.62,-456.75 3205.62,-454.75 2567.38,-454.75"/>
<polygon fill="#895956" stroke="none" points="2567.38,-452.75 2567.38,-454.75 3205.62,-454.75 3205.62,-452.75 2567.38,-452.75"/>
<polygon fill="#000000" stroke="none" points="2567.38,-450.75 2567.38,-452.75 3205.62,-452.75 3205.62,-450.75 2567.38,-450.75"/>
<text xml:space="preserve" text-anchor="start" x="2585.88" y="-436" font-family="arial" font-size="14.00">BULKHEAD_CABIN:2:+5V sensor (pin 47)</text>
<text xml:space="preserve" text-anchor="start" x="2901.12" y="-436" font-family="arial" font-size="14.00"> &#160;&#160;&#160;&#160;2:RD:+5V &#160;&#160;&#160;</text>
<text xml:space="preserve" text-anchor="start" x="3047.62" y="-436" font-family="arial" font-size="14.00">ECU_16PIN:1:+5V OUT</text>
<polygon fill="#000000" stroke="none" points="2567.38,-429 2567.38,-431 3205.62,-431 3205.62,-429 2567.38,-429"/>
<polygon fill="#ff0000" stroke="none" points="2567.38,-427 2567.38,-429 3205.62,-429 3205.62,-427 2567.38,-427"/>
<polygon fill="#000000" stroke="none" points="2567.38,-425 2567.38,-427 3205.62,-427 3205.62,-425 2567.38,-425"/>
<text xml:space="preserve" text-anchor="start" x="2569.38" y="-410.25" font-family="arial" font-size="14.00">BULKHEAD_CABIN:3:PST&#45;F1 pressure (pin 50)</text>
<text xml:space="preserve" text-anchor="start" x="2861.38" y="-410.25" font-family="arial" font-size="14.00"> &#160;&#160;&#160;&#160;3:WH:Pressure (AIN 3) &#160;&#160;&#160;</text>
<text xml:space="preserve" text-anchor="start" x="3055.88" y="-410.25" font-family="arial" font-size="14.00">ECU_16PIN:12:AIN 3</text>
<polygon fill="#000000" stroke="none" points="2567.38,-403.25 2567.38,-405.25 3205.62,-405.25 3205.62,-403.25 2567.38,-403.25"/>
<polygon fill="#ffffff" stroke="none" points="2567.38,-401.25 2567.38,-403.25 3205.62,-403.25 3205.62,-401.25 2567.38,-401.25"/>
<polygon fill="#000000" stroke="none" points="2567.38,-399.25 2567.38,-401.25 3205.62,-401.25 3205.62,-399.25 2567.38,-399.25"/>
<text xml:space="preserve" text-anchor="start" x="2580.25" y="-384.5" font-family="arial" font-size="14.00">BULKHEAD_CABIN:4:PST&#45;F1 temp (pin 51)</text>
<text xml:space="preserve" text-anchor="start" x="2871.5" y="-384.5" font-family="arial" font-size="14.00"> &#160;&#160;&#160;&#160;4:WH:Temp (AIN 1) &#160;&#160;&#160;</text>
<text xml:space="preserve" text-anchor="start" x="3055.88" y="-384.5" font-family="arial" font-size="14.00">ECU_16PIN:14:AIN 1</text>
<polygon fill="#000000" stroke="none" points="2567.38,-377.5 2567.38,-379.5 3205.62,-379.5 3205.62,-377.5 2567.38,-377.5"/>
<polygon fill="#ffffff" stroke="none" points="2567.38,-375.5 2567.38,-377.5 3205.62,-377.5 3205.62,-375.5 2567.38,-375.5"/>
<polygon fill="#000000" stroke="none" points="2567.38,-373.5 2567.38,-375.5 3205.62,-375.5 3205.62,-373.5 2567.38,-373.5"/>
<text xml:space="preserve" text-anchor="start" x="2711.5" y="-358.75" font-family="arial" font-size="14.00"> </text>
<polygon fill="none" stroke="black" points="2567.38,-330 2567.38,-353.75 3205.62,-353.75 3205.62,-330 2567.38,-330"/>
<text xml:space="preserve" text-anchor="start" x="2722.25" y="-337" font-family="arial" font-size="14.00">Bulkhead cabin plug to MaxxECU 16&#45;pin aux breakout.</text>
</g>
<!-- BULKHEAD_CABIN&#45;&#45;W_PST_F1_CABIN -->
<g id="edge9" class="edge">
<title>BULKHEAD_CABIN:e&#45;&#45;W_PST_F1_CABIN:w</title>
<path fill="none" stroke="#000000" stroke-width="2" d="M1548.12,-425C2000.7,-425 2113.84,-426 2566.38,-426"/>
<path fill="none" stroke="#ff0000" stroke-width="2" d="M1548.12,-427C2000.68,-427 2113.82,-428 2566.38,-428"/>
<path fill="none" stroke="#000000" stroke-width="2" d="M1548.12,-429C2000.66,-429 2113.8,-430 2566.38,-430"/>
</g>
<!-- BULKHEAD_CABIN&#45;&#45;W_PST_F1_CABIN -->
<g id="edge11" class="edge">
<title>BULKHEAD_CABIN:e&#45;&#45;W_PST_F1_CABIN:w</title>
<path fill="none" stroke="#000000" stroke-width="2" d="M1548.12,-448.75C2000.74,-448.75 2113.87,-451.75 2566.38,-451.75"/>
<path fill="none" stroke="#895956" stroke-width="2" d="M1548.12,-450.75C2000.68,-450.75 2113.82,-453.75 2566.38,-453.75"/>
<path fill="none" stroke="#000000" stroke-width="2" d="M1548.12,-452.75C2000.63,-452.75 2113.76,-455.75 2566.38,-455.75"/>
</g>
<!-- BULKHEAD_CABIN&#45;&#45;W_PST_F1_CABIN -->
<g id="edge13" class="edge">
<title>BULKHEAD_CABIN:e&#45;&#45;W_PST_F1_CABIN:w</title>
<path fill="none" stroke="#000000" stroke-width="2" d="M1548.12,-401.25C2000.66,-401.25 2113.8,-400.25 2566.38,-400.25"/>
<path fill="none" stroke="#ffffff" stroke-width="2" d="M1548.12,-403.25C2000.68,-403.25 2113.82,-402.25 2566.38,-402.25"/>
<path fill="none" stroke="#000000" stroke-width="2" d="M1548.12,-405.25C2000.7,-405.25 2113.84,-404.25 2566.38,-404.25"/>
</g>
<!-- BULKHEAD_CABIN&#45;&#45;W_PST_F1_CABIN -->
<g id="edge15" class="edge">
<title>BULKHEAD_CABIN:e&#45;&#45;W_PST_F1_CABIN:w</title>
<path fill="none" stroke="#000000" stroke-width="2" d="M1548.12,-377.5C2000.63,-377.5 2113.76,-374.5 2566.38,-374.5"/>
<path fill="none" stroke="#ffffff" stroke-width="2" d="M1548.12,-379.5C2000.68,-379.5 2113.82,-376.5 2566.38,-376.5"/>
<path fill="none" stroke="#000000" stroke-width="2" d="M1548.12,-381.5C2000.74,-381.5 2113.87,-378.5 2566.38,-378.5"/>
</g>
<!-- ECU_16PIN -->
<g id="node4" class="node">
<title>ECU_16PIN</title>
<polygon fill="#ffffff" stroke="black" points="4315.25,-631.62 3352.25,-631.62 3352.25,-204.12 4315.25,-204.12 4315.25,-631.62"/>
<polygon fill="none" stroke="black" points="3352.25,-607.88 3352.25,-631.62 4315.25,-631.62 4315.25,-607.88 3352.25,-607.88"/>
<text xml:space="preserve" text-anchor="start" x="3797" y="-614.88" font-family="arial" font-size="14.00">ECU_16PIN</text>
<polygon fill="none" stroke="black" points="3352.25,-584.12 3352.25,-607.88 3713.5,-607.88 3713.5,-584.12 3352.25,-584.12"/>
<text xml:space="preserve" text-anchor="start" x="3356.25" y="-591.12" font-family="arial" font-size="14.00">MaxxECU M50 terminated harness — 16&#45;pin aux breakout</text>
<polygon fill="none" stroke="black" points="3713.5,-584.12 3713.5,-607.88 4269.75,-607.88 4269.75,-584.12 3713.5,-584.12"/>
<text xml:space="preserve" text-anchor="start" x="3717.5" y="-591.12" font-family="arial" font-size="14.00">REV2. Source: maxxecu.com/webhelp/wirings&#45;terminated_engine_harness&#45;bmw_m50.html</text>
<polygon fill="none" stroke="black" points="4269.75,-584.12 4269.75,-607.88 4315.25,-607.88 4315.25,-584.12 4269.75,-584.12"/>
<text xml:space="preserve" text-anchor="start" x="4273.75" y="-591.12" font-family="arial" font-size="14.00">16&#45;pin</text>
<polygon fill="none" stroke="black" points="3352.25,-560.38 3352.25,-584.12 3790.62,-584.12 3790.62,-560.38 3352.25,-560.38"/>
<text xml:space="preserve" text-anchor="start" x="3567.69" y="-567.38" font-family="arial" font-size="14.00">1</text>
<polygon fill="none" stroke="black" points="3790.62,-560.38 3790.62,-584.12 4315.25,-584.12 4315.25,-560.38 3790.62,-560.38"/>
<text xml:space="preserve" text-anchor="start" x="4024.06" y="-567.38" font-family="arial" font-size="14.00">+5V OUT</text>
<polygon fill="none" stroke="black" points="3352.25,-536.62 3352.25,-560.38 3790.62,-560.38 3790.62,-536.62 3352.25,-536.62"/>
<text xml:space="preserve" text-anchor="start" x="3567.69" y="-543.62" font-family="arial" font-size="14.00">2</text>
<polygon fill="none" stroke="black" points="3790.62,-536.62 3790.62,-560.38 4315.25,-560.38 4315.25,-536.62 3790.62,-536.62"/>
<text xml:space="preserve" text-anchor="start" x="4014.31" y="-543.62" font-family="arial" font-size="14.00">Sensor GND</text>
<polygon fill="none" stroke="black" points="3352.25,-512.88 3352.25,-536.62 3790.62,-536.62 3790.62,-512.88 3352.25,-512.88"/>
<text xml:space="preserve" text-anchor="start" x="3567.69" y="-519.88" font-family="arial" font-size="14.00">3</text>
<polygon fill="none" stroke="black" points="3790.62,-512.88 3790.62,-536.62 4315.25,-536.62 4315.25,-512.88 3790.62,-512.88"/>
<text xml:space="preserve" text-anchor="start" x="4004.56" y="-519.88" font-family="arial" font-size="14.00">INJ 7 (N/A M52)</text>
<polygon fill="none" stroke="black" points="3352.25,-489.12 3352.25,-512.88 3790.62,-512.88 3790.62,-489.12 3352.25,-489.12"/>
<text xml:space="preserve" text-anchor="start" x="3567.69" y="-496.12" font-family="arial" font-size="14.00">4</text>
<polygon fill="none" stroke="black" points="3790.62,-489.12 3790.62,-512.88 4315.25,-512.88 4315.25,-489.12 3790.62,-489.12"/>
<text xml:space="preserve" text-anchor="start" x="4002.31" y="-496.12" font-family="arial" font-size="14.00">GPO 8 / TACHO</text>
<polygon fill="none" stroke="black" points="3352.25,-465.38 3352.25,-489.12 3790.62,-489.12 3790.62,-465.38 3352.25,-465.38"/>
<text xml:space="preserve" text-anchor="start" x="3567.69" y="-472.38" font-family="arial" font-size="14.00">5</text>
<polygon fill="none" stroke="black" points="3790.62,-465.38 3790.62,-489.12 4315.25,-489.12 4315.25,-465.38 3790.62,-465.38"/>
<text xml:space="preserve" text-anchor="start" x="4008.69" y="-472.38" font-family="arial" font-size="14.00">GPO 7 / DIN 3</text>
<polygon fill="none" stroke="black" points="3352.25,-441.62 3352.25,-465.38 3790.62,-465.38 3790.62,-441.62 3352.25,-441.62"/>
<text xml:space="preserve" text-anchor="start" x="3567.69" y="-448.62" font-family="arial" font-size="14.00">6</text>
<polygon fill="none" stroke="black" points="3790.62,-441.62 3790.62,-465.38 4315.25,-465.38 4315.25,-441.62 3790.62,-441.62"/>
<text xml:space="preserve" text-anchor="start" x="4031.56" y="-448.62" font-family="arial" font-size="14.00">GPO 6</text>
<polygon fill="none" stroke="black" points="3352.25,-417.88 3352.25,-441.62 3790.62,-441.62 3790.62,-417.88 3352.25,-417.88"/>
<text xml:space="preserve" text-anchor="start" x="3567.69" y="-424.88" font-family="arial" font-size="14.00">7</text>
<polygon fill="none" stroke="black" points="3790.62,-417.88 3790.62,-441.62 4315.25,-441.62 4315.25,-417.88 3790.62,-417.88"/>
<text xml:space="preserve" text-anchor="start" x="4031.56" y="-424.88" font-family="arial" font-size="14.00">GPO 3</text>
<polygon fill="none" stroke="black" points="3352.25,-394.12 3352.25,-417.88 3790.62,-417.88 3790.62,-394.12 3352.25,-394.12"/>
<text xml:space="preserve" text-anchor="start" x="3567.69" y="-401.12" font-family="arial" font-size="14.00">8</text>
<polygon fill="none" stroke="black" points="3790.62,-394.12 3790.62,-417.88 4315.25,-417.88 4315.25,-394.12 3790.62,-394.12"/>
<text xml:space="preserve" text-anchor="start" x="4031.56" y="-401.12" font-family="arial" font-size="14.00">GPO 2</text>
<polygon fill="none" stroke="black" points="3352.25,-370.38 3352.25,-394.12 3790.62,-394.12 3790.62,-370.38 3352.25,-370.38"/>
<text xml:space="preserve" text-anchor="start" x="3567.69" y="-377.38" font-family="arial" font-size="14.00">9</text>
<polygon fill="none" stroke="black" points="3790.62,-370.38 3790.62,-394.12 4315.25,-394.12 4315.25,-370.38 3790.62,-370.38"/>
<text xml:space="preserve" text-anchor="start" x="4033.06" y="-377.38" font-family="arial" font-size="14.00">CAN L</text>
<polygon fill="none" stroke="black" points="3352.25,-346.62 3352.25,-370.38 3790.62,-370.38 3790.62,-346.62 3352.25,-346.62"/>
<text xml:space="preserve" text-anchor="start" x="3563.94" y="-353.62" font-family="arial" font-size="14.00">10</text>
<polygon fill="none" stroke="black" points="3790.62,-346.62 3790.62,-370.38 4315.25,-370.38 4315.25,-346.62 3790.62,-346.62"/>
<text xml:space="preserve" text-anchor="start" x="4031.94" y="-353.62" font-family="arial" font-size="14.00">CAN H</text>
<polygon fill="none" stroke="black" points="3352.25,-322.88 3352.25,-346.62 3790.62,-346.62 3790.62,-322.88 3352.25,-322.88"/>
<text xml:space="preserve" text-anchor="start" x="3564.31" y="-329.88" font-family="arial" font-size="14.00">11</text>
<polygon fill="none" stroke="black" points="3790.62,-322.88 3790.62,-346.62 4315.25,-346.62 4315.25,-322.88 3790.62,-322.88"/>
<text xml:space="preserve" text-anchor="start" x="4036.06" y="-329.88" font-family="arial" font-size="14.00">AIN 4</text>
<polygon fill="none" stroke="black" points="3352.25,-299.12 3352.25,-322.88 3790.62,-322.88 3790.62,-299.12 3352.25,-299.12"/>
<text xml:space="preserve" text-anchor="start" x="3563.94" y="-306.12" font-family="arial" font-size="14.00">12</text>
<polygon fill="none" stroke="black" points="3790.62,-299.12 3790.62,-322.88 4315.25,-322.88 4315.25,-299.12 3790.62,-299.12"/>
<text xml:space="preserve" text-anchor="start" x="4036.06" y="-306.12" font-family="arial" font-size="14.00">AIN 3</text>
<polygon fill="none" stroke="black" points="3352.25,-275.38 3352.25,-299.12 3790.62,-299.12 3790.62,-275.38 3352.25,-275.38"/>
<text xml:space="preserve" text-anchor="start" x="3563.94" y="-282.38" font-family="arial" font-size="14.00">13</text>
<polygon fill="none" stroke="black" points="3790.62,-275.38 3790.62,-299.12 4315.25,-299.12 4315.25,-275.38 3790.62,-275.38"/>
<text xml:space="preserve" text-anchor="start" x="4036.06" y="-282.38" font-family="arial" font-size="14.00">AIN 2</text>
<polygon fill="none" stroke="black" points="3352.25,-251.62 3352.25,-275.38 3790.62,-275.38 3790.62,-251.62 3352.25,-251.62"/>
<text xml:space="preserve" text-anchor="start" x="3563.94" y="-258.62" font-family="arial" font-size="14.00">14</text>
<polygon fill="none" stroke="black" points="3790.62,-251.62 3790.62,-275.38 4315.25,-275.38 4315.25,-251.62 3790.62,-251.62"/>
<text xml:space="preserve" text-anchor="start" x="4036.06" y="-258.62" font-family="arial" font-size="14.00">AIN 1</text>
<polygon fill="none" stroke="black" points="3352.25,-227.88 3352.25,-251.62 3790.62,-251.62 3790.62,-227.88 3352.25,-227.88"/>
<text xml:space="preserve" text-anchor="start" x="3563.94" y="-234.88" font-family="arial" font-size="14.00">15</text>
<polygon fill="none" stroke="black" points="3790.62,-227.88 3790.62,-251.62 4315.25,-251.62 4315.25,-227.88 3790.62,-227.88"/>
<text xml:space="preserve" text-anchor="start" x="4035.69" y="-234.88" font-family="arial" font-size="14.00">DIN 2</text>
<polygon fill="none" stroke="black" points="3352.25,-204.12 3352.25,-227.88 3790.62,-227.88 3790.62,-204.12 3352.25,-204.12"/>
<text xml:space="preserve" text-anchor="start" x="3563.94" y="-211.12" font-family="arial" font-size="14.00">16</text>
<polygon fill="none" stroke="black" points="3790.62,-204.12 3790.62,-227.88 4315.25,-227.88 4315.25,-204.12 3790.62,-204.12"/>
<text xml:space="preserve" text-anchor="start" x="4035.69" y="-211.12" font-family="arial" font-size="14.00">DIN 1</text>
</g>
<!-- W_PST_F1&#45;&#45;BULKHEAD_ENGINE -->
<g id="edge2" class="edge">
<title>W_PST_F1:e&#45;&#45;BULKHEAD_ENGINE:w</title>
<path fill="none" stroke="#000000" stroke-width="2" d="M3208.25,-96C3339.58,-96 3372.42,-95 3503.88,-95"/>
<path fill="none" stroke="#ff0000" stroke-width="2" d="M3208.25,-98C3339.64,-98 3372.49,-97 3503.88,-97"/>
<path fill="none" stroke="#000000" stroke-width="2" d="M3208.25,-100C3339.7,-100 3372.55,-99 3503.88,-99"/>
</g>
<!-- W_PST_F1&#45;&#45;BULKHEAD_ENGINE -->
<g id="edge4" class="edge">
<title>W_PST_F1:e&#45;&#45;BULKHEAD_ENGINE:w</title>
<path fill="none" stroke="#000000" stroke-width="2" d="M3208.25,-121.75C3339.46,-121.76 3372.3,-118.76 3503.88,-118.75"/>
<path fill="none" stroke="#895956" stroke-width="2" d="M3208.25,-123.75C3339.65,-123.75 3372.48,-120.75 3503.88,-120.75"/>
<path fill="none" stroke="#000000" stroke-width="2" d="M3208.25,-125.75C3339.83,-125.74 3372.66,-122.74 3503.88,-122.75"/>
</g>
<!-- W_PST_F1&#45;&#45;BULKHEAD_ENGINE -->
<g id="edge6" class="edge">
<title>W_PST_F1:e&#45;&#45;BULKHEAD_ENGINE:w</title>
<path fill="none" stroke="#000000" stroke-width="2" d="M3208.25,-70.25C3339.7,-70.25 3372.55,-71.25 3503.88,-71.25"/>
<path fill="none" stroke="#ffffff" stroke-width="2" d="M3208.25,-72.25C3339.64,-72.25 3372.49,-73.25 3503.88,-73.25"/>
<path fill="none" stroke="#000000" stroke-width="2" d="M3208.25,-74.25C3339.58,-74.25 3372.42,-75.25 3503.88,-75.25"/>
</g>
<!-- W_PST_F1&#45;&#45;BULKHEAD_ENGINE -->
<g id="edge8" class="edge">
<title>W_PST_F1:e&#45;&#45;BULKHEAD_ENGINE:w</title>
<path fill="none" stroke="#000000" stroke-width="2" d="M3208.25,-44.5C3339.83,-44.51 3372.66,-47.51 3503.88,-47.5"/>
<path fill="none" stroke="#ffffff" stroke-width="2" d="M3208.25,-46.5C3339.65,-46.5 3372.48,-49.5 3503.88,-49.5"/>
<path fill="none" stroke="#000000" stroke-width="2" d="M3208.25,-48.5C3339.46,-48.49 3372.3,-51.49 3503.88,-51.5"/>
</g>
<!-- W_PST_F1_CABIN&#45;&#45;ECU_16PIN -->
<g id="edge10" class="edge">
<title>W_PST_F1_CABIN:e&#45;&#45;ECU_16PIN:w</title>
<path fill="none" stroke="#000000" stroke-width="2" d="M3206.62,-426C3299.66,-428.49 3263.09,-572.74 3352.25,-570.25"/>
<path fill="none" stroke="#ff0000" stroke-width="2" d="M3206.62,-428C3297.72,-428 3261.15,-572.25 3352.25,-572.25"/>
<path fill="none" stroke="#000000" stroke-width="2" d="M3206.62,-430C3295.79,-427.51 3259.21,-571.76 3352.25,-574.25"/>
</g>
<!-- W_PST_F1_CABIN&#45;&#45;ECU_16PIN -->
<g id="edge12" class="edge">
<title>W_PST_F1_CABIN:e&#45;&#45;ECU_16PIN:w</title>
<path fill="none" stroke="#000000" stroke-width="2" d="M3206.62,-451.75C3285.83,-453.94 3277.03,-548.69 3352.25,-546.5"/>
<path fill="none" stroke="#895956" stroke-width="2" d="M3206.62,-453.75C3283.84,-453.75 3275.03,-548.5 3352.25,-548.5"/>
<path fill="none" stroke="#000000" stroke-width="2" d="M3206.62,-455.75C3281.85,-453.56 3273.04,-548.31 3352.25,-550.5"/>
</g>
<!-- W_PST_F1_CABIN&#45;&#45;ECU_16PIN -->
<g id="edge14" class="edge">
<title>W_PST_F1_CABIN:e&#45;&#45;ECU_16PIN:w</title>
<path fill="none" stroke="#000000" stroke-width="2" d="M3206.62,-400.25C3281.01,-402.41 3273.88,-311.16 3352.25,-309"/>
<path fill="none" stroke="#ffffff" stroke-width="2" d="M3206.62,-402.25C3283,-402.25 3275.87,-311 3352.25,-311"/>
<path fill="none" stroke="#000000" stroke-width="2" d="M3206.62,-404.25C3285,-402.09 3277.87,-310.84 3352.25,-313"/>
</g>
<!-- W_PST_F1_CABIN&#45;&#45;ECU_16PIN -->
<g id="edge16" class="edge">
<title>W_PST_F1_CABIN:e&#45;&#45;ECU_16PIN:w</title>
<path fill="none" stroke="#000000" stroke-width="2" d="M3206.62,-374.5C3286.57,-376.82 3268.35,-263.82 3352.25,-261.5"/>
<path fill="none" stroke="#ffffff" stroke-width="2" d="M3206.62,-376.5C3288.55,-376.5 3270.33,-263.5 3352.25,-263.5"/>
<path fill="none" stroke="#000000" stroke-width="2" d="M3206.62,-378.5C3290.52,-376.18 3272.3,-263.18 3352.25,-265.5"/>
</g>
</g>
</svg>
