<?xml version="1.0" encoding="utf-8" standalone="no"?>
<!DOCTYPE svg PUBLIC "-//W3C//DTD SVG 1.1//EN"
  "http://www.w3.org/Graphics/SVG/1.1/DTD/svg11.dtd">
<svg xmlns:xlink="http://www.w3.org/1999/xlink" width="510.921797pt" height="290.01pt" viewBox="0 0 510.921797 290.01" xmlns="http://www.w3.org/2000/svg" version="1.1">
 <metadata>
  <rdf:RDF xmlns:dc="http://purl.org/dc/elements/1.1/" xmlns:cc="http://creativecommons.org/ns#" xmlns:rdf="http://www.w3.org/1999/02/22-rdf-syntax-ns#">
   <cc:Work>
    <dc:type rdf:resource="http://purl.org/dc/dcmitype/StillImage"/>
    <dc:date>2026-07-22T21:39:17.814935</dc:date>
    <dc:format>image/svg+xml</dc:format>
    <dc:creator>
     <cc:Agent>
      <dc:title>Matplotlib v3.11.0, https://matplotlib.org/</dc:title>
     </cc:Agent>
    </dc:creator>
   </cc:Work>
  </rdf:RDF>
 </metadata>
 <defs>
  <style type="text/css">*{stroke-linejoin: round; stroke-linecap: butt}</style>
 </defs>
 <g id="figure_1">
  <g id="patch_1">
   <path d="M 0 290.01 
L 510.921797 290.01 
L 510.921797 0 
L 0 0 
L 0 290.01 
z
" style="fill: none"/>
  </g>
  <g id="axes_1">
   <g id="patch_2">
    <path d="M 395.860898 103.98 
C 400.634554 103.98 405.213336 102.083406 408.58882 98.707922 
C 411.964305 95.332438 413.860898 90.753656 413.860898 85.98 
C 413.860898 81.206344 411.964305 76.627562 408.58882 73.252078 
C 405.213336 69.876594 400.634554 67.98 395.860898 67.98 
C 391.087243 67.98 386.508461 69.876594 383.132976 73.252078 
C 379.757492 76.627562 377.860898 81.206344 377.860898 85.98 
C 377.860898 90.753656 379.757492 95.332438 383.132976 98.707922 
C 386.508461 102.083406 391.087243 103.98 395.860898 103.98 
L 395.860898 103.98 
z
" clip-path="url(#p1f68208a00)" style="fill: none; stroke: #000000; stroke-width: 2; stroke-linejoin: miter"/>
   </g>
   <g id="line2d_1">
    <path d="M 125.860898 42.78 
L 169.735898 42.78 
M 189.985898 42.78 
L 233.860898 42.78 
" clip-path="url(#p1f68208a00)" style="fill: none; stroke: #000000; stroke-width: 2; stroke-linecap: round"/>
   </g>
   <g id="line2d_2">
    <path d="M 189.985898 56.28 
L 189.985898 29.28 
" clip-path="url(#p1f68208a00)" style="fill: none; stroke: #000000; stroke-width: 2; stroke-linecap: round"/>
   </g>
   <g id="line2d_3">
    <path d="M 183.235898 49.53 
L 183.235898 36.03 
" clip-path="url(#p1f68208a00)" style="fill: none; stroke: #000000; stroke-width: 2; stroke-linecap: round"/>
   </g>
   <g id="line2d_4">
    <path d="M 176.485898 56.28 
L 176.485898 29.28 
" clip-path="url(#p1f68208a00)" style="fill: none; stroke: #000000; stroke-width: 2; stroke-linecap: round"/>
   </g>
   <g id="line2d_5">
    <path d="M 169.735898 49.53 
L 169.735898 36.03 
" clip-path="url(#p1f68208a00)" style="fill: none; stroke: #000000; stroke-width: 2; stroke-linecap: round"/>
   </g>
   <g id="line2d_6">
    <path d="M 233.860898 42.78 
L 241.060898 42.78 
L 248.260898 42.78 
" clip-path="url(#p1f68208a00)" style="fill: none; stroke: #000000; stroke-width: 2; stroke-linecap: round"/>
   </g>
   <g id="line2d_7">
    <path d="M 248.260898 42.78 
L 284.260898 42.78 
L 284.260898 33.78 
L 320.260898 33.78 
L 320.260898 51.78 
L 284.260898 51.78 
L 284.260898 42.78 
M 320.260898 42.78 
L 356.260898 42.78 
" clip-path="url(#p1f68208a00)" style="fill: none; stroke: #000000; stroke-width: 2; stroke-linecap: round"/>
   </g>
   <g id="line2d_8">
    <path d="M 284.260898 42.78 
L 320.260898 42.78 
" clip-path="url(#p1f68208a00)" style="fill: none; stroke: #000000; stroke-width: 2; stroke-linecap: round"/>
   </g>
   <g id="line2d_9">
    <path d="M 356.260898 42.78 
L 363.460898 42.78 
L 370.660898 42.78 
" clip-path="url(#p1f68208a00)" style="fill: none; stroke: #000000; stroke-width: 2; stroke-linecap: round"/>
   </g>
   <g id="line2d_10">
    <path d="M 125.860898 42.78 
L 125.860898 123.78 
L 125.860898 204.78 
" clip-path="url(#p1f68208a00)" style="fill: none; stroke: #000000; stroke-width: 2; stroke-linecap: round"/>
   </g>
   <g id="line2d_11">
    <path d="M 125.860898 204.78 
L 125.860898 219.18 
L 116.860898 219.18 
L 134.860898 219.18 
M 119.560898 223.5 
L 132.160898 223.5 
M 124.060898 227.82 
L 127.660898 227.82 
" clip-path="url(#p1f68208a00)" style="fill: none; stroke: #000000; stroke-width: 2; stroke-linecap: round"/>
   </g>
   <g id="line2d_12">
    <path d="M 125.860898 107.58 
L 131.260898 107.58 
L 136.660898 107.58 
" clip-path="url(#p1f68208a00)" style="fill: none; stroke: #000000; stroke-width: 2; stroke-linecap: round"/>
   </g>
   <g id="line2d_13">
    <path d="M 136.660898 107.58 
L 172.660898 107.58 
L 172.660898 98.58 
L 208.660898 98.58 
L 208.660898 116.58 
L 172.660898 116.58 
L 172.660898 107.58 
M 208.660898 107.58 
L 244.660898 107.58 
" clip-path="url(#p1f68208a00)" style="fill: none; stroke: #000000; stroke-width: 2; stroke-linecap: round"/>
   </g>
   <g id="line2d_14">
    <path d="M 172.660898 107.58 
L 208.660898 107.58 
" clip-path="url(#p1f68208a00)" style="fill: none; stroke: #000000; stroke-width: 2; stroke-linecap: round"/>
   </g>
   <g id="line2d_15">
    <path d="M 244.660898 107.58 
L 251.860898 107.58 
L 259.060898 107.58 
" clip-path="url(#p1f68208a00)" style="fill: none; stroke: #000000; stroke-width: 2; stroke-linecap: round"/>
   </g>
   <g id="line2d_16">
    <path d="M 313.060898 157.98 
L 313.060898 168.78 
L 313.060898 179.58 
" clip-path="url(#p1f68208a00)" style="fill: none; stroke: #000000; stroke-width: 2; stroke-linecap: round"/>
   </g>
   <g id="line2d_17">
    <path d="M 313.060898 179.58 
L 313.060898 193.98 
L 304.060898 193.98 
L 322.060898 193.98 
M 306.760898 198.3 
L 319.360898 198.3 
M 311.260898 202.62 
L 314.860898 202.62 
" clip-path="url(#p1f68208a00)" style="fill: none; stroke: #000000; stroke-width: 2; stroke-linecap: round"/>
   </g>
   <g id="line2d_18">
    <path d="M 370.660898 42.78 
L 370.660898 100.38 
L 370.660898 157.98 
" clip-path="url(#p1f68208a00)" style="fill: none; stroke: #000000; stroke-width: 2; stroke-linecap: round"/>
   </g>
   <g id="line2d_19">
    <path d="M 259.060898 107.58 
L 264.460898 107.58 
L 269.860898 107.58 
" clip-path="url(#p1f68208a00)" style="fill: none; stroke: #000000; stroke-width: 2; stroke-linecap: round"/>
   </g>
   <g id="line2d_20">
    <path d="M 323.860898 85.98 
L 332.860898 85.98 
L 341.860898 85.98 
" clip-path="url(#p1f68208a00)" style="fill: none; stroke: #000000; stroke-width: 2; stroke-linecap: round"/>
   </g>
   <g id="line2d_21">
    <path d="M 341.860898 85.98 
L 369.940898 85.98 
L 369.940898 85.98 
M 421.780898 85.98 
L 421.780898 85.98 
L 449.860898 85.98 
" clip-path="url(#p1f68208a00)" style="fill: none; stroke: #000000; stroke-width: 2; stroke-linecap: round"/>
   </g>
   <g id="line2d_22">
    <path d="M 377.860898 93.9 
L 369.940898 93.9 
L 369.940898 78.06 
L 377.860898 78.06 
" clip-path="url(#p1f68208a00)" style="fill: none; stroke: #000000; stroke-width: 2; stroke-linecap: round"/>
   </g>
   <g id="line2d_23">
    <path d="M 413.860898 93.9 
L 421.780898 93.9 
L 421.780898 78.06 
L 413.860898 78.06 
" clip-path="url(#p1f68208a00)" style="fill: none; stroke: #000000; stroke-width: 2; stroke-linecap: round"/>
   </g>
   <g id="line2d_24">
    <path d="M 449.860898 85.98 
L 457.060898 85.98 
L 464.260898 85.98 
" clip-path="url(#p1f68208a00)" style="fill: none; stroke: #000000; stroke-width: 2; stroke-linecap: round"/>
   </g>
   <g id="line2d_25">
    <path d="M 464.260898 85.98 
L 464.260898 100.38 
L 455.260898 100.38 
L 473.260898 100.38 
M 457.960898 104.7 
L 470.560898 104.7 
M 462.460898 109.02 
L 466.060898 109.02 
" clip-path="url(#p1f68208a00)" style="fill: none; stroke: #000000; stroke-width: 2; stroke-linecap: round"/>
   </g>
   <g id="line2d_26">
    <path d="M 169.060898 215.58 
L 205.060898 215.58 
L 208.060898 206.58 
L 214.060898 224.58 
L 220.060898 206.58 
L 226.060898 224.58 
L 232.060898 206.58 
L 238.060898 224.58 
L 241.060898 215.58 
L 277.060898 215.58 
" clip-path="url(#p1f68208a00)" style="fill: none; stroke: #000000; stroke-width: 2; stroke-linecap: round"/>
   </g>
   <g id="line2d_27">
    <path d="M 277.060898 215.58 
L 284.260898 215.58 
L 291.460898 215.58 
" clip-path="url(#p1f68208a00)" style="fill: none; stroke: #000000; stroke-width: 2; stroke-linecap: round"/>
   </g>
   <g id="line2d_28">
    <path d="M 169.060898 215.58 
L 169.060898 226.38 
L 169.060898 237.18 
" clip-path="url(#p1f68208a00)" style="fill: none; stroke: #000000; stroke-width: 2; stroke-linecap: round"/>
   </g>
   <g id="line2d_29">
    <path d="M 169.060898 237.18 
L 169.060898 251.58 
L 160.060898 251.58 
L 178.060898 251.58 
M 162.760898 255.9 
L 175.360898 255.9 
M 167.260898 260.22 
L 170.860898 260.22 
" clip-path="url(#p1f68208a00)" style="fill: none; stroke: #000000; stroke-width: 2; stroke-linecap: round"/>
   </g>
   <g id="text_1">
    <!-- 12V BATT+ -->
    <g transform="translate(150.414141 13.826484) scale(0.105 -0.105)">
     <defs>
      <path id="DejaVuSans-14" d="M 794 531 
L 1825 531 
L 1825 4091 
L 703 3866 
L 703 4441 
L 1819 4666 
L 2450 4666 
L 2450 531 
L 3481 531 
L 3481 0 
L 794 0 
L 794 531 
z
" transform="scale(0.015625)"/>
      <path id="DejaVuSans-15" d="M 1228 531 
L 3431 531 
L 3431 0 
L 469 0 
L 469 531 
Q 828 903 1448 1529 
Q 2069 2156 2228 2338 
Q 2531 2678 2651 2914 
Q 2772 3150 2772 3378 
Q 2772 3750 2511 3984 
Q 2250 4219 1831 4219 
Q 1534 4219 1204 4116 
Q 875 4013 500 3803 
L 500 4441 
Q 881 4594 1212 4672 
Q 1544 4750 1819 4750 
Q 2544 4750 2975 4387 
Q 3406 4025 3406 3419 
Q 3406 3131 3298 2873 
Q 3191 2616 2906 2266 
Q 2828 2175 2409 1742 
Q 1991 1309 1228 531 
z
" transform="scale(0.015625)"/>
      <path id="DejaVuSans-39" d="M 1831 0 
L 50 4666 
L 709 4666 
L 2188 738 
L 3669 4666 
L 4325 4666 
L 2547 0 
L 1831 0 
z
" transform="scale(0.015625)"/>
      <path id="DejaVuSans-3" transform="scale(0.015625)"/>
      <path id="DejaVuSans-25" d="M 1259 2228 
L 1259 519 
L 2272 519 
Q 2781 519 3026 730 
Q 3272 941 3272 1375 
Q 3272 1813 3026 2020 
Q 2781 2228 2272 2228 
L 1259 2228 
z
M 1259 4147 
L 1259 2741 
L 2194 2741 
Q 2656 2741 2882 2914 
Q 3109 3088 3109 3444 
Q 3109 3797 2882 3972 
Q 2656 4147 2194 4147 
L 1259 4147 
z
M 628 4666 
L 2241 4666 
Q 2963 4666 3353 4366 
Q 3744 4066 3744 3513 
Q 3744 3084 3544 2831 
Q 3344 2578 2956 2516 
Q 3422 2416 3680 2098 
Q 3938 1781 3938 1306 
Q 3938 681 3513 340 
Q 3088 0 2303 0 
L 628 0 
L 628 4666 
z
" transform="scale(0.015625)"/>
      <path id="DejaVuSans-24" d="M 2188 4044 
L 1331 1722 
L 3047 1722 
L 2188 4044 
z
M 1831 4666 
L 2547 4666 
L 4325 0 
L 3669 0 
L 3244 1197 
L 1141 1197 
L 716 0 
L 50 0 
L 1831 4666 
z
" transform="scale(0.015625)"/>
      <path id="DejaVuSans-37" d="M -19 4666 
L 3928 4666 
L 3928 4134 
L 2272 4134 
L 2272 0 
L 1638 0 
L 1638 4134 
L -19 4134 
L -19 4666 
z
" transform="scale(0.015625)"/>
      <path id="DejaVuSans-e" d="M 2944 4013 
L 2944 2272 
L 4684 2272 
L 4684 1741 
L 2944 1741 
L 2944 0 
L 2419 0 
L 2419 1741 
L 678 1741 
L 678 2272 
L 2419 2272 
L 2419 4013 
L 2944 4013 
z
" transform="scale(0.015625)"/>
     </defs>
     <use xlink:href="#DejaVuSans-14"/>
     <use xlink:href="#DejaVuSans-15" transform="translate(63.625 0)"/>
     <use xlink:href="#DejaVuSans-39" transform="translate(127.25 0)"/>
     <use xlink:href="#DejaVuSans-3" transform="translate(195.65625 0)"/>
     <use xlink:href="#DejaVuSans-25" transform="translate(227.4375 0)"/>
     <use xlink:href="#DejaVuSans-24" transform="translate(296.046875 0)"/>
     <use xlink:href="#DejaVuSans-37" transform="translate(356.6875 0)"/>
     <use xlink:href="#DejaVuSans-37" transform="translate(416.015625 0)"/>
     <use xlink:href="#DejaVuSans-e" transform="translate(477.09375 0)"/>
    </g>
    <!-- (always-on) -->
    <g transform="translate(149.20418 23.327344) scale(0.105 -0.105)">
     <defs>
      <path id="DejaVuSans-b" d="M 1984 4856 
Q 1566 4138 1362 3434 
Q 1159 2731 1159 2009 
Q 1159 1288 1364 580 
Q 1569 -128 1984 -844 
L 1484 -844 
Q 1016 -109 783 600 
Q 550 1309 550 2009 
Q 550 2706 781 3412 
Q 1013 4119 1484 4856 
L 1984 4856 
z
" transform="scale(0.015625)"/>
      <path id="DejaVuSans-44" d="M 2194 1759 
Q 1497 1759 1228 1600 
Q 959 1441 959 1056 
Q 959 750 1161 570 
Q 1363 391 1709 391 
Q 2188 391 2477 730 
Q 2766 1069 2766 1631 
L 2766 1759 
L 2194 1759 
z
M 3341 1997 
L 3341 0 
L 2766 0 
L 2766 531 
Q 2569 213 2275 61 
Q 1981 -91 1556 -91 
Q 1019 -91 701 211 
Q 384 513 384 1019 
Q 384 1609 779 1909 
Q 1175 2209 1959 2209 
L 2766 2209 
L 2766 2266 
Q 2766 2663 2505 2880 
Q 2244 3097 1772 3097 
Q 1472 3097 1187 3025 
Q 903 2953 641 2809 
L 641 3341 
Q 956 3463 1253 3523 
Q 1550 3584 1831 3584 
Q 2591 3584 2966 3190 
Q 3341 2797 3341 1997 
z
" transform="scale(0.015625)"/>
      <path id="DejaVuSans-4f" d="M 603 4863 
L 1178 4863 
L 1178 0 
L 603 0 
L 603 4863 
z
" transform="scale(0.015625)"/>
      <path id="DejaVuSans-5a" d="M 269 3500 
L 844 3500 
L 1563 769 
L 2278 3500 
L 2956 3500 
L 3675 769 
L 4391 3500 
L 4966 3500 
L 4050 0 
L 3372 0 
L 2619 2869 
L 1863 0 
L 1184 0 
L 269 3500 
z
" transform="scale(0.015625)"/>
      <path id="DejaVuSans-5c" d="M 2059 -325 
Q 1816 -950 1584 -1140 
Q 1353 -1331 966 -1331 
L 506 -1331 
L 506 -850 
L 844 -850 
Q 1081 -850 1212 -737 
Q 1344 -625 1503 -206 
L 1606 56 
L 191 3500 
L 800 3500 
L 1894 763 
L 2988 3500 
L 3597 3500 
L 2059 -325 
z
" transform="scale(0.015625)"/>
      <path id="DejaVuSans-56" d="M 2834 3397 
L 2834 2853 
Q 2591 2978 2328 3040 
Q 2066 3103 1784 3103 
Q 1356 3103 1142 2972 
Q 928 2841 928 2578 
Q 928 2378 1081 2264 
Q 1234 2150 1697 2047 
L 1894 2003 
Q 2506 1872 2764 1633 
Q 3022 1394 3022 966 
Q 3022 478 2636 193 
Q 2250 -91 1575 -91 
Q 1294 -91 989 -36 
Q 684 19 347 128 
L 347 722 
Q 666 556 975 473 
Q 1284 391 1588 391 
Q 1994 391 2212 530 
Q 2431 669 2431 922 
Q 2431 1156 2273 1281 
Q 2116 1406 1581 1522 
L 1381 1569 
Q 847 1681 609 1914 
Q 372 2147 372 2553 
Q 372 3047 722 3315 
Q 1072 3584 1716 3584 
Q 2034 3584 2315 3537 
Q 2597 3491 2834 3397 
z
" transform="scale(0.015625)"/>
      <path id="DejaVuSans-10" d="M 313 2009 
L 1997 2009 
L 1997 1497 
L 313 1497 
L 313 2009 
z
" transform="scale(0.015625)"/>
      <path id="DejaVuSans-52" d="M 1959 3097 
Q 1497 3097 1228 2736 
Q 959 2375 959 1747 
Q 959 1119 1226 758 
Q 1494 397 1959 397 
Q 2419 397 2687 759 
Q 2956 1122 2956 1747 
Q 2956 2369 2687 2733 
Q 2419 3097 1959 3097 
z
M 1959 3584 
Q 2709 3584 3137 3096 
Q 3566 2609 3566 1747 
Q 3566 888 3137 398 
Q 2709 -91 1959 -91 
Q 1206 -91 779 398 
Q 353 888 353 1747 
Q 353 2609 779 3096 
Q 1206 3584 1959 3584 
z
" transform="scale(0.015625)"/>
      <path id="DejaVuSans-51" d="M 3513 2113 
L 3513 0 
L 2938 0 
L 2938 2094 
Q 2938 2591 2744 2837 
Q 2550 3084 2163 3084 
Q 1697 3084 1428 2787 
Q 1159 2491 1159 1978 
L 1159 0 
L 581 0 
L 581 3500 
L 1159 3500 
L 1159 2956 
Q 1366 3272 1645 3428 
Q 1925 3584 2291 3584 
Q 2894 3584 3203 3211 
Q 3513 2838 3513 2113 
z
" transform="scale(0.015625)"/>
      <path id="DejaVuSans-c" d="M 513 4856 
L 1013 4856 
Q 1481 4119 1714 3412 
Q 1947 2706 1947 2009 
Q 1947 1309 1714 600 
Q 1481 -109 1013 -844 
L 513 -844 
Q 928 -128 1133 580 
Q 1338 1288 1338 2009 
Q 1338 2731 1133 3434 
Q 928 4138 513 4856 
z
" transform="scale(0.015625)"/>
     </defs>
     <use xlink:href="#DejaVuSans-b"/>
     <use xlink:href="#DejaVuSans-44" transform="translate(39.015625 0)"/>
     <use xlink:href="#DejaVuSans-4f" transform="translate(100.296875 0)"/>
     <use xlink:href="#DejaVuSans-5a" transform="translate(128.078125 0)"/>
     <use xlink:href="#DejaVuSans-44" transform="translate(209.859375 0)"/>
     <use xlink:href="#DejaVuSans-5c" transform="translate(271.140625 0)"/>
     <use xlink:href="#DejaVuSans-56" transform="translate(330.328125 0)"/>
     <use xlink:href="#DejaVuSans-10" transform="translate(382.421875 0)"/>
     <use xlink:href="#DejaVuSans-52" transform="translate(420.359375 0)"/>
     <use xlink:href="#DejaVuSans-51" transform="translate(481.546875 0)"/>
     <use xlink:href="#DejaVuSans-c" transform="translate(544.921875 0)"/>
    </g>
   </g>
   <g id="text_2">
    <!-- F_EWP_PWR -->
    <g transform="translate(270.313008 17.019727) scale(0.105 -0.105)">
     <defs>
      <path id="DejaVuSans-29" d="M 628 4666 
L 3309 4666 
L 3309 4134 
L 1259 4134 
L 1259 2759 
L 3109 2759 
L 3109 2228 
L 1259 2228 
L 1259 0 
L 628 0 
L 628 4666 
z
" transform="scale(0.015625)"/>
      <path id="DejaVuSans-42" d="M 3263 -1063 
L 3263 -1509 
L -63 -1509 
L -63 -1063 
L 3263 -1063 
z
" transform="scale(0.015625)"/>
      <path id="DejaVuSans-28" d="M 628 4666 
L 3578 4666 
L 3578 4134 
L 1259 4134 
L 1259 2753 
L 3481 2753 
L 3481 2222 
L 1259 2222 
L 1259 531 
L 3634 531 
L 3634 0 
L 628 0 
L 628 4666 
z
" transform="scale(0.015625)"/>
      <path id="DejaVuSans-3a" d="M 213 4666 
L 850 4666 
L 1831 722 
L 2809 4666 
L 3519 4666 
L 4500 722 
L 5478 4666 
L 6119 4666 
L 4947 0 
L 4153 0 
L 3169 4050 
L 2175 0 
L 1381 0 
L 213 4666 
z
" transform="scale(0.015625)"/>
      <path id="DejaVuSans-33" d="M 1259 4147 
L 1259 2394 
L 2053 2394 
Q 2494 2394 2734 2622 
Q 2975 2850 2975 3272 
Q 2975 3691 2734 3919 
Q 2494 4147 2053 4147 
L 1259 4147 
z
M 628 4666 
L 2053 4666 
Q 2838 4666 3239 4311 
Q 3641 3956 3641 3272 
Q 3641 2581 3239 2228 
Q 2838 1875 2053 1875 
L 1259 1875 
L 1259 0 
L 628 0 
L 628 4666 
z
" transform="scale(0.015625)"/>
      <path id="DejaVuSans-35" d="M 2841 2188 
Q 3044 2119 3236 1894 
Q 3428 1669 3622 1275 
L 4263 0 
L 3584 0 
L 2988 1197 
Q 2756 1666 2539 1819 
Q 2322 1972 1947 1972 
L 1259 1972 
L 1259 0 
L 628 0 
L 628 4666 
L 2053 4666 
Q 2853 4666 3247 4331 
Q 3641 3997 3641 3322 
Q 3641 2881 3436 2590 
Q 3231 2300 2841 2188 
z
M 1259 4147 
L 1259 2491 
L 2053 2491 
Q 2509 2491 2742 2702 
Q 2975 2913 2975 3322 
Q 2975 3731 2742 3939 
Q 2509 4147 2053 4147 
L 1259 4147 
z
" transform="scale(0.015625)"/>
     </defs>
     <use xlink:href="#DejaVuSans-29"/>
     <use xlink:href="#DejaVuSans-42" transform="translate(57.515625 0)"/>
     <use xlink:href="#DejaVuSans-28" transform="translate(107.515625 0)"/>
     <use xlink:href="#DejaVuSans-3a" transform="translate(170.703125 0)"/>
     <use xlink:href="#DejaVuSans-33" transform="translate(269.578125 0)"/>
     <use xlink:href="#DejaVuSans-42" transform="translate(329.875 0)"/>
     <use xlink:href="#DejaVuSans-33" transform="translate(379.875 0)"/>
     <use xlink:href="#DejaVuSans-3a" transform="translate(440.171875 0)"/>
     <use xlink:href="#DejaVuSans-35" transform="translate(539.046875 0)"/>
    </g>
    <!-- 10A -->
    <g transform="translate(291.988945 28.751836) scale(0.105 -0.105)">
     <defs>
      <path id="DejaVuSans-13" d="M 2034 4250 
Q 1547 4250 1301 3770 
Q 1056 3291 1056 2328 
Q 1056 1369 1301 889 
Q 1547 409 2034 409 
Q 2525 409 2770 889 
Q 3016 1369 3016 2328 
Q 3016 3291 2770 3770 
Q 2525 4250 2034 4250 
z
M 2034 4750 
Q 2819 4750 3233 4129 
Q 3647 3509 3647 2328 
Q 3647 1150 3233 529 
Q 2819 -91 2034 -91 
Q 1250 -91 836 529 
Q 422 1150 422 2328 
Q 422 3509 836 4129 
Q 1250 4750 2034 4750 
z
" transform="scale(0.015625)"/>
     </defs>
     <use xlink:href="#DejaVuSans-14"/>
     <use xlink:href="#DejaVuSans-13" transform="translate(63.625 0)"/>
     <use xlink:href="#DejaVuSans-24" transform="translate(127.25 0)"/>
    </g>
   </g>
   <g id="text_3">
    <!--   RED -->
    <g transform="translate(374.260898 43.007578) scale(0.105 -0.105)">
     <defs>
      <path id="DejaVuSans-27" d="M 1259 4147 
L 1259 519 
L 2022 519 
Q 2988 519 3436 956 
Q 3884 1394 3884 2338 
Q 3884 3275 3436 3711 
Q 2988 4147 2022 4147 
L 1259 4147 
z
M 628 4666 
L 1925 4666 
Q 3281 4666 3915 4102 
Q 4550 3538 4550 2338 
Q 4550 1131 3912 565 
Q 3275 0 1925 0 
L 628 0 
L 628 4666 
z
" transform="scale(0.015625)"/>
     </defs>
     <use xlink:href="#DejaVuSans-3"/>
     <use xlink:href="#DejaVuSans-3" transform="translate(31.78125 0)"/>
     <use xlink:href="#DejaVuSans-35" transform="translate(63.5625 0)"/>
     <use xlink:href="#DejaVuSans-28" transform="translate(133.046875 0)"/>
     <use xlink:href="#DejaVuSans-27" transform="translate(196.234375 0)"/>
    </g>
   </g>
   <g id="text_4">
    <!-- F_EWP_IGN -->
    <g transform="translate(161.173125 81.888633) scale(0.105 -0.105)">
     <defs>
      <path id="DejaVuSans-2c" d="M 628 4666 
L 1259 4666 
L 1259 0 
L 628 0 
L 628 4666 
z
" transform="scale(0.015625)"/>
      <path id="DejaVuSans-2a" d="M 3809 666 
L 3809 1919 
L 2778 1919 
L 2778 2438 
L 4434 2438 
L 4434 434 
Q 4069 175 3628 42 
Q 3188 -91 2688 -91 
Q 1594 -91 976 548 
Q 359 1188 359 2328 
Q 359 3472 976 4111 
Q 1594 4750 2688 4750 
Q 3144 4750 3555 4637 
Q 3966 4525 4313 4306 
L 4313 3634 
Q 3963 3931 3569 4081 
Q 3175 4231 2741 4231 
Q 1884 4231 1454 3753 
Q 1025 3275 1025 2328 
Q 1025 1384 1454 906 
Q 1884 428 2741 428 
Q 3075 428 3337 486 
Q 3600 544 3809 666 
z
" transform="scale(0.015625)"/>
      <path id="DejaVuSans-31" d="M 628 4666 
L 1478 4666 
L 3547 763 
L 3547 4666 
L 4159 4666 
L 4159 0 
L 3309 0 
L 1241 3903 
L 1241 0 
L 628 0 
L 628 4666 
z
" transform="scale(0.015625)"/>
     </defs>
     <use xlink:href="#DejaVuSans-29"/>
     <use xlink:href="#DejaVuSans-42" transform="translate(57.515625 0)"/>
     <use xlink:href="#DejaVuSans-28" transform="translate(107.515625 0)"/>
     <use xlink:href="#DejaVuSans-3a" transform="translate(170.703125 0)"/>
     <use xlink:href="#DejaVuSans-33" transform="translate(269.578125 0)"/>
     <use xlink:href="#DejaVuSans-42" transform="translate(329.875 0)"/>
     <use xlink:href="#DejaVuSans-2c" transform="translate(379.875 0)"/>
     <use xlink:href="#DejaVuSans-2a" transform="translate(409.375 0)"/>
     <use xlink:href="#DejaVuSans-31" transform="translate(486.859375 0)"/>
    </g>
    <!-- 7.5A -->
    <g transform="translate(178.72043 93.48293) scale(0.105 -0.105)">
     <defs>
      <path id="DejaVuSans-1a" d="M 525 4666 
L 3525 4666 
L 3525 4397 
L 1831 0 
L 1172 0 
L 2766 4134 
L 525 4134 
L 525 4666 
z
" transform="scale(0.015625)"/>
      <path id="DejaVuSans-11" d="M 684 794 
L 1344 794 
L 1344 0 
L 684 0 
L 684 794 
z
" transform="scale(0.015625)"/>
      <path id="DejaVuSans-18" d="M 691 4666 
L 3169 4666 
L 3169 4134 
L 1269 4134 
L 1269 2991 
Q 1406 3038 1543 3061 
Q 1681 3084 1819 3084 
Q 2600 3084 3056 2656 
Q 3513 2228 3513 1497 
Q 3513 744 3044 326 
Q 2575 -91 1722 -91 
Q 1428 -91 1123 -41 
Q 819 9 494 109 
L 494 744 
Q 775 591 1075 516 
Q 1375 441 1709 441 
Q 2250 441 2565 725 
Q 2881 1009 2881 1497 
Q 2881 1984 2565 2268 
Q 2250 2553 1709 2553 
Q 1456 2553 1204 2497 
Q 953 2441 691 2322 
L 691 4666 
z
" transform="scale(0.015625)"/>
     </defs>
     <use xlink:href="#DejaVuSans-1a"/>
     <use xlink:href="#DejaVuSans-11" transform="translate(63.625 0)"/>
     <use xlink:href="#DejaVuSans-18" transform="translate(95.40625 0)"/>
     <use xlink:href="#DejaVuSans-24" transform="translate(159.03125 0)"/>
    </g>
   </g>
   <g id="text_5">
    <!--   GREEN (IGN sense) -->
    <g transform="translate(262.660898 107.271094) scale(0.105 -0.105)">
     <defs>
      <path id="DejaVuSans-48" d="M 3597 1894 
L 3597 1613 
L 953 1613 
Q 991 1019 1311 708 
Q 1631 397 2203 397 
Q 2534 397 2845 478 
Q 3156 559 3463 722 
L 3463 178 
Q 3153 47 2828 -22 
Q 2503 -91 2169 -91 
Q 1331 -91 842 396 
Q 353 884 353 1716 
Q 353 2575 817 3079 
Q 1281 3584 2069 3584 
Q 2775 3584 3186 3129 
Q 3597 2675 3597 1894 
z
M 3022 2063 
Q 3016 2534 2758 2815 
Q 2500 3097 2075 3097 
Q 1594 3097 1305 2825 
Q 1016 2553 972 2059 
L 3022 2063 
z
" transform="scale(0.015625)"/>
     </defs>
     <use xlink:href="#DejaVuSans-3"/>
     <use xlink:href="#DejaVuSans-3" transform="translate(31.78125 0)"/>
     <use xlink:href="#DejaVuSans-2a" transform="translate(63.5625 0)"/>
     <use xlink:href="#DejaVuSans-35" transform="translate(141.046875 0)"/>
     <use xlink:href="#DejaVuSans-28" transform="translate(210.53125 0)"/>
     <use xlink:href="#DejaVuSans-28" transform="translate(273.71875 0)"/>
     <use xlink:href="#DejaVuSans-31" transform="translate(336.90625 0)"/>
     <use xlink:href="#DejaVuSans-3" transform="translate(411.71875 0)"/>
     <use xlink:href="#DejaVuSans-b" transform="translate(443.5 0)"/>
     <use xlink:href="#DejaVuSans-2c" transform="translate(482.515625 0)"/>
     <use xlink:href="#DejaVuSans-2a" transform="translate(512.015625 0)"/>
     <use xlink:href="#DejaVuSans-31" transform="translate(589.5 0)"/>
     <use xlink:href="#DejaVuSans-3" transform="translate(664.3125 0)"/>
     <use xlink:href="#DejaVuSans-56" transform="translate(696.09375 0)"/>
     <use xlink:href="#DejaVuSans-48" transform="translate(748.1875 0)"/>
     <use xlink:href="#DejaVuSans-51" transform="translate(809.71875 0)"/>
     <use xlink:href="#DejaVuSans-56" transform="translate(873.09375 0)"/>
     <use xlink:href="#DejaVuSans-48" transform="translate(925.1875 0)"/>
     <use xlink:href="#DejaVuSans-c" transform="translate(986.71875 0)"/>
    </g>
   </g>
   <g id="text_6">
    <!-- IGN relay pin 87 -->
    <g transform="translate(44.65043 106.877344) scale(0.105 -0.105)">
     <defs>
      <path id="DejaVuSans-55" d="M 2631 2963 
Q 2534 3019 2420 3045 
Q 2306 3072 2169 3072 
Q 1681 3072 1420 2755 
Q 1159 2438 1159 1844 
L 1159 0 
L 581 0 
L 581 3500 
L 1159 3500 
L 1159 2956 
Q 1341 3275 1631 3429 
Q 1922 3584 2338 3584 
Q 2397 3584 2469 3576 
Q 2541 3569 2628 3553 
L 2631 2963 
z
" transform="scale(0.015625)"/>
      <path id="DejaVuSans-53" d="M 1159 525 
L 1159 -1331 
L 581 -1331 
L 581 3500 
L 1159 3500 
L 1159 2969 
Q 1341 3281 1617 3432 
Q 1894 3584 2278 3584 
Q 2916 3584 3314 3078 
Q 3713 2572 3713 1747 
Q 3713 922 3314 415 
Q 2916 -91 2278 -91 
Q 1894 -91 1617 61 
Q 1341 213 1159 525 
z
M 3116 1747 
Q 3116 2381 2855 2742 
Q 2594 3103 2138 3103 
Q 1681 3103 1420 2742 
Q 1159 2381 1159 1747 
Q 1159 1113 1420 752 
Q 1681 391 2138 391 
Q 2594 391 2855 752 
Q 3116 1113 3116 1747 
z
" transform="scale(0.015625)"/>
      <path id="DejaVuSans-4c" d="M 603 3500 
L 1178 3500 
L 1178 0 
L 603 0 
L 603 3500 
z
M 603 4863 
L 1178 4863 
L 1178 4134 
L 603 4134 
L 603 4863 
z
" transform="scale(0.015625)"/>
      <path id="DejaVuSans-1b" d="M 2034 2216 
Q 1584 2216 1326 1975 
Q 1069 1734 1069 1313 
Q 1069 891 1326 650 
Q 1584 409 2034 409 
Q 2484 409 2743 651 
Q 3003 894 3003 1313 
Q 3003 1734 2745 1975 
Q 2488 2216 2034 2216 
z
M 1403 2484 
Q 997 2584 770 2862 
Q 544 3141 544 3541 
Q 544 4100 942 4425 
Q 1341 4750 2034 4750 
Q 2731 4750 3128 4425 
Q 3525 4100 3525 3541 
Q 3525 3141 3298 2862 
Q 3072 2584 2669 2484 
Q 3125 2378 3379 2068 
Q 3634 1759 3634 1313 
Q 3634 634 3220 271 
Q 2806 -91 2034 -91 
Q 1263 -91 848 271 
Q 434 634 434 1313 
Q 434 1759 690 2068 
Q 947 2378 1403 2484 
z
M 1172 3481 
Q 1172 3119 1398 2916 
Q 1625 2713 2034 2713 
Q 2441 2713 2670 2916 
Q 2900 3119 2900 3481 
Q 2900 3844 2670 4047 
Q 2441 4250 2034 4250 
Q 1625 4250 1398 4047 
Q 1172 3844 1172 3481 
z
" transform="scale(0.015625)"/>
     </defs>
     <use xlink:href="#DejaVuSans-2c"/>
     <use xlink:href="#DejaVuSans-2a" transform="translate(29.5 0)"/>
     <use xlink:href="#DejaVuSans-31" transform="translate(106.984375 0)"/>
     <use xlink:href="#DejaVuSans-3" transform="translate(181.796875 0)"/>
     <use xlink:href="#DejaVuSans-55" transform="translate(213.578125 0)"/>
     <use xlink:href="#DejaVuSans-48" transform="translate(252.484375 0)"/>
     <use xlink:href="#DejaVuSans-4f" transform="translate(314.015625 0)"/>
     <use xlink:href="#DejaVuSans-44" transform="translate(341.796875 0)"/>
     <use xlink:href="#DejaVuSans-5c" transform="translate(403.078125 0)"/>
     <use xlink:href="#DejaVuSans-3" transform="translate(462.265625 0)"/>
     <use xlink:href="#DejaVuSans-53" transform="translate(494.046875 0)"/>
     <use xlink:href="#DejaVuSans-4c" transform="translate(557.53125 0)"/>
     <use xlink:href="#DejaVuSans-51" transform="translate(585.3125 0)"/>
     <use xlink:href="#DejaVuSans-3" transform="translate(648.6875 0)"/>
     <use xlink:href="#DejaVuSans-1b" transform="translate(680.46875 0)"/>
     <use xlink:href="#DejaVuSans-1a" transform="translate(744.09375 0)"/>
    </g>
   </g>
   <g id="text_7">
    <!-- !! relay pin 87 output ONLY - - -->
    <g transform="translate(131.985469 123.227344) scale(0.105 -0.105)">
     <defs>
      <path id="DejaVuSans-4" d="M 966 794 
L 1600 794 
L 1600 0 
L 966 0 
L 966 794 
z
M 966 4666 
L 1600 4666 
L 1600 2619 
L 1538 1503 
L 1031 1503 
L 966 2619 
L 966 4666 
z
" transform="scale(0.015625)"/>
      <path id="DejaVuSans-58" d="M 544 1381 
L 544 3500 
L 1119 3500 
L 1119 1403 
Q 1119 906 1312 657 
Q 1506 409 1894 409 
Q 2359 409 2629 706 
Q 2900 1003 2900 1516 
L 2900 3500 
L 3475 3500 
L 3475 0 
L 2900 0 
L 2900 538 
Q 2691 219 2414 64 
Q 2138 -91 1772 -91 
Q 1169 -91 856 284 
Q 544 659 544 1381 
z
M 1991 3584 
L 1991 3584 
z
" transform="scale(0.015625)"/>
      <path id="DejaVuSans-57" d="M 1172 4494 
L 1172 3500 
L 2356 3500 
L 2356 3053 
L 1172 3053 
L 1172 1153 
Q 1172 725 1289 603 
Q 1406 481 1766 481 
L 2356 481 
L 2356 0 
L 1766 0 
Q 1100 0 847 248 
Q 594 497 594 1153 
L 594 3053 
L 172 3053 
L 172 3500 
L 594 3500 
L 594 4494 
L 1172 4494 
z
" transform="scale(0.015625)"/>
      <path id="DejaVuSans-32" d="M 2522 4238 
Q 1834 4238 1429 3725 
Q 1025 3213 1025 2328 
Q 1025 1447 1429 934 
Q 1834 422 2522 422 
Q 3209 422 3611 934 
Q 4013 1447 4013 2328 
Q 4013 3213 3611 3725 
Q 3209 4238 2522 4238 
z
M 2522 4750 
Q 3503 4750 4090 4092 
Q 4678 3434 4678 2328 
Q 4678 1225 4090 567 
Q 3503 -91 2522 -91 
Q 1538 -91 948 565 
Q 359 1222 359 2328 
Q 359 3434 948 4092 
Q 1538 4750 2522 4750 
z
" transform="scale(0.015625)"/>
      <path id="DejaVuSans-2f" d="M 628 4666 
L 1259 4666 
L 1259 531 
L 3531 531 
L 3531 0 
L 628 0 
L 628 4666 
z
" transform="scale(0.015625)"/>
      <path id="DejaVuSans-3c" d="M -13 4666 
L 666 4666 
L 1959 2747 
L 3244 4666 
L 3922 4666 
L 2272 2222 
L 2272 0 
L 1638 0 
L 1638 2222 
L -13 4666 
z
" transform="scale(0.015625)"/>
     </defs>
     <use xlink:href="#DejaVuSans-4"/>
     <use xlink:href="#DejaVuSans-4" transform="translate(40.09375 0)"/>
     <use xlink:href="#DejaVuSans-3" transform="translate(80.1875 0)"/>
     <use xlink:href="#DejaVuSans-55" transform="translate(111.96875 0)"/>
     <use xlink:href="#DejaVuSans-48" transform="translate(150.875 0)"/>
     <use xlink:href="#DejaVuSans-4f" transform="translate(212.40625 0)"/>
     <use xlink:href="#DejaVuSans-44" transform="translate(240.1875 0)"/>
     <use xlink:href="#DejaVuSans-5c" transform="translate(301.46875 0)"/>
     <use xlink:href="#DejaVuSans-3" transform="translate(360.65625 0)"/>
     <use xlink:href="#DejaVuSans-53" transform="translate(392.4375 0)"/>
     <use xlink:href="#DejaVuSans-4c" transform="translate(455.921875 0)"/>
     <use xlink:href="#DejaVuSans-51" transform="translate(483.703125 0)"/>
     <use xlink:href="#DejaVuSans-3" transform="translate(547.078125 0)"/>
     <use xlink:href="#DejaVuSans-1b" transform="translate(578.859375 0)"/>
     <use xlink:href="#DejaVuSans-1a" transform="translate(642.484375 0)"/>
     <use xlink:href="#DejaVuSans-3" transform="translate(706.109375 0)"/>
     <use xlink:href="#DejaVuSans-52" transform="translate(737.890625 0)"/>
     <use xlink:href="#DejaVuSans-58" transform="translate(799.078125 0)"/>
     <use xlink:href="#DejaVuSans-57" transform="translate(862.453125 0)"/>
     <use xlink:href="#DejaVuSans-53" transform="translate(901.65625 0)"/>
     <use xlink:href="#DejaVuSans-58" transform="translate(965.140625 0)"/>
     <use xlink:href="#DejaVuSans-57" transform="translate(1028.515625 0)"/>
     <use xlink:href="#DejaVuSans-3" transform="translate(1067.71875 0)"/>
     <use xlink:href="#DejaVuSans-32" transform="translate(1099.5 0)"/>
     <use xlink:href="#DejaVuSans-31" transform="translate(1178.21875 0)"/>
     <use xlink:href="#DejaVuSans-2f" transform="translate(1253.03125 0)"/>
     <use xlink:href="#DejaVuSans-3c" transform="translate(1295.46875 0)"/>
     <use xlink:href="#DejaVuSans-3" transform="translate(1356.546875 0)"/>
     <use xlink:href="#DejaVuSans-10" transform="translate(1388.328125 0)"/>
     <use xlink:href="#DejaVuSans-10" transform="translate(1424.40625 0)"/>
    </g>
    <!-- NOT MaxxECU, NOT coil circuit !! -->
    <g transform="translate(121.984219 134.208867) scale(0.105 -0.105)">
     <defs>
      <path id="DejaVuSans-30" d="M 628 4666 
L 1569 4666 
L 2759 1491 
L 3956 4666 
L 4897 4666 
L 4897 0 
L 4281 0 
L 4281 4097 
L 3078 897 
L 2444 897 
L 1241 4097 
L 1241 0 
L 628 0 
L 628 4666 
z
" transform="scale(0.015625)"/>
      <path id="DejaVuSans-5b" d="M 3513 3500 
L 2247 1797 
L 3578 0 
L 2900 0 
L 1881 1375 
L 863 0 
L 184 0 
L 1544 1831 
L 300 3500 
L 978 3500 
L 1906 2253 
L 2834 3500 
L 3513 3500 
z
" transform="scale(0.015625)"/>
      <path id="DejaVuSans-26" d="M 4122 4306 
L 4122 3641 
Q 3803 3938 3442 4084 
Q 3081 4231 2675 4231 
Q 1875 4231 1450 3742 
Q 1025 3253 1025 2328 
Q 1025 1406 1450 917 
Q 1875 428 2675 428 
Q 3081 428 3442 575 
Q 3803 722 4122 1019 
L 4122 359 
Q 3791 134 3420 21 
Q 3050 -91 2638 -91 
Q 1578 -91 968 557 
Q 359 1206 359 2328 
Q 359 3453 968 4101 
Q 1578 4750 2638 4750 
Q 3056 4750 3426 4639 
Q 3797 4528 4122 4306 
z
" transform="scale(0.015625)"/>
      <path id="DejaVuSans-38" d="M 556 4666 
L 1191 4666 
L 1191 1831 
Q 1191 1081 1462 751 
Q 1734 422 2344 422 
Q 2950 422 3222 751 
Q 3494 1081 3494 1831 
L 3494 4666 
L 4128 4666 
L 4128 1753 
Q 4128 841 3676 375 
Q 3225 -91 2344 -91 
Q 1459 -91 1007 375 
Q 556 841 556 1753 
L 556 4666 
z
" transform="scale(0.015625)"/>
      <path id="DejaVuSans-f" d="M 750 794 
L 1409 794 
L 1409 256 
L 897 -744 
L 494 -744 
L 750 256 
L 750 794 
z
" transform="scale(0.015625)"/>
      <path id="DejaVuSans-46" d="M 3122 3366 
L 3122 2828 
Q 2878 2963 2633 3030 
Q 2388 3097 2138 3097 
Q 1578 3097 1268 2742 
Q 959 2388 959 1747 
Q 959 1106 1268 751 
Q 1578 397 2138 397 
Q 2388 397 2633 464 
Q 2878 531 3122 666 
L 3122 134 
Q 2881 22 2623 -34 
Q 2366 -91 2075 -91 
Q 1284 -91 818 406 
Q 353 903 353 1747 
Q 353 2603 823 3093 
Q 1294 3584 2113 3584 
Q 2378 3584 2631 3529 
Q 2884 3475 3122 3366 
z
" transform="scale(0.015625)"/>
     </defs>
     <use xlink:href="#DejaVuSans-31"/>
     <use xlink:href="#DejaVuSans-32" transform="translate(74.8125 0)"/>
     <use xlink:href="#DejaVuSans-37" transform="translate(153.53125 0)"/>
     <use xlink:href="#DejaVuSans-3" transform="translate(214.609375 0)"/>
     <use xlink:href="#DejaVuSans-30" transform="translate(246.390625 0)"/>
     <use xlink:href="#DejaVuSans-44" transform="translate(332.671875 0)"/>
     <use xlink:href="#DejaVuSans-5b" transform="translate(393.953125 0)"/>
     <use xlink:href="#DejaVuSans-5b" transform="translate(453.140625 0)"/>
     <use xlink:href="#DejaVuSans-28" transform="translate(512.328125 0)"/>
     <use xlink:href="#DejaVuSans-26" transform="translate(575.515625 0)"/>
     <use xlink:href="#DejaVuSans-38" transform="translate(645.34375 0)"/>
     <use xlink:href="#DejaVuSans-f" transform="translate(718.53125 0)"/>
     <use xlink:href="#DejaVuSans-3" transform="translate(750.3125 0)"/>
     <use xlink:href="#DejaVuSans-31" transform="translate(782.09375 0)"/>
     <use xlink:href="#DejaVuSans-32" transform="translate(856.90625 0)"/>
     <use xlink:href="#DejaVuSans-37" transform="translate(935.625 0)"/>
     <use xlink:href="#DejaVuSans-3" transform="translate(996.703125 0)"/>
     <use xlink:href="#DejaVuSans-46" transform="translate(1028.484375 0)"/>
     <use xlink:href="#DejaVuSans-52" transform="translate(1083.46875 0)"/>
     <use xlink:href="#DejaVuSans-4c" transform="translate(1144.65625 0)"/>
     <use xlink:href="#DejaVuSans-4f" transform="translate(1172.4375 0)"/>
     <use xlink:href="#DejaVuSans-3" transform="translate(1200.21875 0)"/>
     <use xlink:href="#DejaVuSans-46" transform="translate(1232 0)"/>
     <use xlink:href="#DejaVuSans-4c" transform="translate(1286.984375 0)"/>
     <use xlink:href="#DejaVuSans-55" transform="translate(1314.765625 0)"/>
     <use xlink:href="#DejaVuSans-46" transform="translate(1353.671875 0)"/>
     <use xlink:href="#DejaVuSans-58" transform="translate(1408.65625 0)"/>
     <use xlink:href="#DejaVuSans-4c" transform="translate(1472.03125 0)"/>
     <use xlink:href="#DejaVuSans-57" transform="translate(1499.8125 0)"/>
     <use xlink:href="#DejaVuSans-3" transform="translate(1539.015625 0)"/>
     <use xlink:href="#DejaVuSans-4" transform="translate(1570.796875 0)"/>
     <use xlink:href="#DejaVuSans-4" transform="translate(1610.890625 0)"/>
    </g>
   </g>
   <g id="text_8">
    <!-- BROWN   -->
    <g transform="translate(292.822617 160.151836) scale(0.105 -0.105)">
     <use xlink:href="#DejaVuSans-25"/>
     <use xlink:href="#DejaVuSans-35" transform="translate(68.609375 0)"/>
     <use xlink:href="#DejaVuSans-32" transform="translate(138.09375 0)"/>
     <use xlink:href="#DejaVuSans-3a" transform="translate(216.8125 0)"/>
     <use xlink:href="#DejaVuSans-31" transform="translate(315.6875 0)"/>
     <use xlink:href="#DejaVuSans-3" transform="translate(390.5 0)"/>
     <use xlink:href="#DejaVuSans-3" transform="translate(422.28125 0)"/>
    </g>
   </g>
   <g id="text_9">
    <!-- BLUE (PWM) -->
    <g transform="translate(295.384219 80.421094) scale(0.105 -0.105)">
     <use xlink:href="#DejaVuSans-25"/>
     <use xlink:href="#DejaVuSans-2f" transform="translate(68.609375 0)"/>
     <use xlink:href="#DejaVuSans-38" transform="translate(119.34375 0)"/>
     <use xlink:href="#DejaVuSans-28" transform="translate(192.53125 0)"/>
     <use xlink:href="#DejaVuSans-3" transform="translate(255.71875 0)"/>
     <use xlink:href="#DejaVuSans-b" transform="translate(287.5 0)"/>
     <use xlink:href="#DejaVuSans-33" transform="translate(326.515625 0)"/>
     <use xlink:href="#DejaVuSans-3a" transform="translate(386.8125 0)"/>
     <use xlink:href="#DejaVuSans-30" transform="translate(485.6875 0)"/>
     <use xlink:href="#DejaVuSans-c" transform="translate(571.96875 0)"/>
    </g>
   </g>
   <g id="text_10">
    <!-- EWP150 -->
    <g transform="translate(374.166094 52.451836) scale(0.105 -0.105)">
     <use xlink:href="#DejaVuSans-28"/>
     <use xlink:href="#DejaVuSans-3a" transform="translate(63.1875 0)"/>
     <use xlink:href="#DejaVuSans-33" transform="translate(162.0625 0)"/>
     <use xlink:href="#DejaVuSans-14" transform="translate(222.359375 0)"/>
     <use xlink:href="#DejaVuSans-18" transform="translate(285.984375 0)"/>
     <use xlink:href="#DejaVuSans-13" transform="translate(349.609375 0)"/>
    </g>
    <!-- 40 LPM -->
    <g transform="translate(376.891172 62.951836) scale(0.105 -0.105)">
     <defs>
      <path id="DejaVuSans-17" d="M 2419 4116 
L 825 1625 
L 2419 1625 
L 2419 4116 
z
M 2253 4666 
L 3047 4666 
L 3047 1625 
L 3713 1625 
L 3713 1100 
L 3047 1100 
L 3047 0 
L 2419 0 
L 2419 1100 
L 313 1100 
L 313 1709 
L 2253 4666 
z
" transform="scale(0.015625)"/>
     </defs>
     <use xlink:href="#DejaVuSans-17"/>
     <use xlink:href="#DejaVuSans-13" transform="translate(63.625 0)"/>
     <use xlink:href="#DejaVuSans-3" transform="translate(127.25 0)"/>
     <use xlink:href="#DejaVuSans-2f" transform="translate(159.03125 0)"/>
     <use xlink:href="#DejaVuSans-33" transform="translate(214.75 0)"/>
     <use xlink:href="#DejaVuSans-30" transform="translate(275.046875 0)"/>
    </g>
   </g>
   <g id="text_11">
    <!-- BLACK (motor GND) -->
    <g transform="translate(336.178125 100.071094) scale(0.105 -0.105)">
     <defs>
      <path id="DejaVuSans-2e" d="M 628 4666 
L 1259 4666 
L 1259 2694 
L 3353 4666 
L 4166 4666 
L 1850 2491 
L 4331 0 
L 3500 0 
L 1259 2247 
L 1259 0 
L 628 0 
L 628 4666 
z
" transform="scale(0.015625)"/>
      <path id="DejaVuSans-50" d="M 3328 2828 
Q 3544 3216 3844 3400 
Q 4144 3584 4550 3584 
Q 5097 3584 5394 3201 
Q 5691 2819 5691 2113 
L 5691 0 
L 5113 0 
L 5113 2094 
Q 5113 2597 4934 2840 
Q 4756 3084 4391 3084 
Q 3944 3084 3684 2787 
Q 3425 2491 3425 1978 
L 3425 0 
L 2847 0 
L 2847 2094 
Q 2847 2600 2669 2842 
Q 2491 3084 2119 3084 
Q 1678 3084 1418 2786 
Q 1159 2488 1159 1978 
L 1159 0 
L 581 0 
L 581 3500 
L 1159 3500 
L 1159 2956 
Q 1356 3278 1631 3431 
Q 1906 3584 2284 3584 
Q 2666 3584 2933 3390 
Q 3200 3197 3328 2828 
z
" transform="scale(0.015625)"/>
     </defs>
     <use xlink:href="#DejaVuSans-25"/>
     <use xlink:href="#DejaVuSans-2f" transform="translate(68.609375 0)"/>
     <use xlink:href="#DejaVuSans-24" transform="translate(126.625 0)"/>
     <use xlink:href="#DejaVuSans-26" transform="translate(193.28125 0)"/>
     <use xlink:href="#DejaVuSans-2e" transform="translate(263.109375 0)"/>
     <use xlink:href="#DejaVuSans-3" transform="translate(328.6875 0)"/>
     <use xlink:href="#DejaVuSans-b" transform="translate(360.46875 0)"/>
     <use xlink:href="#DejaVuSans-50" transform="translate(399.484375 0)"/>
     <use xlink:href="#DejaVuSans-52" transform="translate(496.890625 0)"/>
     <use xlink:href="#DejaVuSans-57" transform="translate(558.078125 0)"/>
     <use xlink:href="#DejaVuSans-52" transform="translate(597.28125 0)"/>
     <use xlink:href="#DejaVuSans-55" transform="translate(658.46875 0)"/>
     <use xlink:href="#DejaVuSans-3" transform="translate(699.578125 0)"/>
     <use xlink:href="#DejaVuSans-2a" transform="translate(731.359375 0)"/>
     <use xlink:href="#DejaVuSans-31" transform="translate(808.84375 0)"/>
     <use xlink:href="#DejaVuSans-27" transform="translate(883.65625 0)"/>
     <use xlink:href="#DejaVuSans-c" transform="translate(960.65625 0)"/>
    </g>
   </g>
   <g id="text_12">
    <!--   controller varies -->
    <g transform="translate(281.503711 91.544531) scale(0.105 -0.105)">
     <defs>
      <path id="DejaVuSans-59" d="M 191 3500 
L 800 3500 
L 1894 563 
L 2988 3500 
L 3597 3500 
L 2284 0 
L 1503 0 
L 191 3500 
z
" transform="scale(0.015625)"/>
     </defs>
     <use xlink:href="#DejaVuSans-3"/>
     <use xlink:href="#DejaVuSans-3" transform="translate(31.78125 0)"/>
     <use xlink:href="#DejaVuSans-46" transform="translate(63.5625 0)"/>
     <use xlink:href="#DejaVuSans-52" transform="translate(118.546875 0)"/>
     <use xlink:href="#DejaVuSans-51" transform="translate(179.734375 0)"/>
     <use xlink:href="#DejaVuSans-57" transform="translate(243.109375 0)"/>
     <use xlink:href="#DejaVuSans-55" transform="translate(282.3125 0)"/>
     <use xlink:href="#DejaVuSans-52" transform="translate(321.21875 0)"/>
     <use xlink:href="#DejaVuSans-4f" transform="translate(382.40625 0)"/>
     <use xlink:href="#DejaVuSans-4f" transform="translate(410.1875 0)"/>
     <use xlink:href="#DejaVuSans-48" transform="translate(437.96875 0)"/>
     <use xlink:href="#DejaVuSans-55" transform="translate(499.5 0)"/>
     <use xlink:href="#DejaVuSans-3" transform="translate(540.609375 0)"/>
     <use xlink:href="#DejaVuSans-59" transform="translate(572.390625 0)"/>
     <use xlink:href="#DejaVuSans-44" transform="translate(631.578125 0)"/>
     <use xlink:href="#DejaVuSans-55" transform="translate(692.859375 0)"/>
     <use xlink:href="#DejaVuSans-4c" transform="translate(733.96875 0)"/>
     <use xlink:href="#DejaVuSans-48" transform="translate(761.75 0)"/>
     <use xlink:href="#DejaVuSans-56" transform="translate(823.28125 0)"/>
    </g>
    <!--   voltage for speed -->
    <g transform="translate(278.08957 101.027344) scale(0.105 -0.105)">
     <defs>
      <path id="DejaVuSans-4a" d="M 2906 1791 
Q 2906 2416 2648 2759 
Q 2391 3103 1925 3103 
Q 1463 3103 1205 2759 
Q 947 2416 947 1791 
Q 947 1169 1205 825 
Q 1463 481 1925 481 
Q 2391 481 2648 825 
Q 2906 1169 2906 1791 
z
M 3481 434 
Q 3481 -459 3084 -895 
Q 2688 -1331 1869 -1331 
Q 1566 -1331 1297 -1286 
Q 1028 -1241 775 -1147 
L 775 -588 
Q 1028 -725 1275 -790 
Q 1522 -856 1778 -856 
Q 2344 -856 2625 -561 
Q 2906 -266 2906 331 
L 2906 616 
Q 2728 306 2450 153 
Q 2172 0 1784 0 
Q 1141 0 747 490 
Q 353 981 353 1791 
Q 353 2603 747 3093 
Q 1141 3584 1784 3584 
Q 2172 3584 2450 3431 
Q 2728 3278 2906 2969 
L 2906 3500 
L 3481 3500 
L 3481 434 
z
" transform="scale(0.015625)"/>
      <path id="DejaVuSans-49" d="M 2375 4863 
L 2375 4384 
L 1825 4384 
Q 1516 4384 1395 4259 
Q 1275 4134 1275 3809 
L 1275 3500 
L 2222 3500 
L 2222 3053 
L 1275 3053 
L 1275 0 
L 697 0 
L 697 3053 
L 147 3053 
L 147 3500 
L 697 3500 
L 697 3744 
Q 697 4328 969 4595 
Q 1241 4863 1831 4863 
L 2375 4863 
z
" transform="scale(0.015625)"/>
      <path id="DejaVuSans-47" d="M 2906 2969 
L 2906 4863 
L 3481 4863 
L 3481 0 
L 2906 0 
L 2906 525 
Q 2725 213 2448 61 
Q 2172 -91 1784 -91 
Q 1150 -91 751 415 
Q 353 922 353 1747 
Q 353 2572 751 3078 
Q 1150 3584 1784 3584 
Q 2172 3584 2448 3432 
Q 2725 3281 2906 2969 
z
M 947 1747 
Q 947 1113 1208 752 
Q 1469 391 1925 391 
Q 2381 391 2643 752 
Q 2906 1113 2906 1747 
Q 2906 2381 2643 2742 
Q 2381 3103 1925 3103 
Q 1469 3103 1208 2742 
Q 947 2381 947 1747 
z
" transform="scale(0.015625)"/>
     </defs>
     <use xlink:href="#DejaVuSans-3"/>
     <use xlink:href="#DejaVuSans-3" transform="translate(31.78125 0)"/>
     <use xlink:href="#DejaVuSans-59" transform="translate(63.5625 0)"/>
     <use xlink:href="#DejaVuSans-52" transform="translate(122.75 0)"/>
     <use xlink:href="#DejaVuSans-4f" transform="translate(183.9375 0)"/>
     <use xlink:href="#DejaVuSans-57" transform="translate(211.71875 0)"/>
     <use xlink:href="#DejaVuSans-44" transform="translate(250.921875 0)"/>
     <use xlink:href="#DejaVuSans-4a" transform="translate(312.203125 0)"/>
     <use xlink:href="#DejaVuSans-48" transform="translate(375.6875 0)"/>
     <use xlink:href="#DejaVuSans-3" transform="translate(437.21875 0)"/>
     <use xlink:href="#DejaVuSans-49" transform="translate(469 0)"/>
     <use xlink:href="#DejaVuSans-52" transform="translate(504.203125 0)"/>
     <use xlink:href="#DejaVuSans-55" transform="translate(565.390625 0)"/>
     <use xlink:href="#DejaVuSans-3" transform="translate(606.5 0)"/>
     <use xlink:href="#DejaVuSans-56" transform="translate(638.28125 0)"/>
     <use xlink:href="#DejaVuSans-53" transform="translate(690.375 0)"/>
     <use xlink:href="#DejaVuSans-48" transform="translate(753.859375 0)"/>
     <use xlink:href="#DejaVuSans-48" transform="translate(815.390625 0)"/>
     <use xlink:href="#DejaVuSans-47" transform="translate(876.921875 0)"/>
    </g>
   </g>
   <g id="text_13">
    <!-- NTC thermistor -->
    <g transform="translate(183.481641 180.644531) scale(0.105 -0.105)">
     <defs>
      <path id="DejaVuSans-4b" d="M 3513 2113 
L 3513 0 
L 2938 0 
L 2938 2094 
Q 2938 2591 2744 2837 
Q 2550 3084 2163 3084 
Q 1697 3084 1428 2787 
Q 1159 2491 1159 1978 
L 1159 0 
L 581 0 
L 581 4863 
L 1159 4863 
L 1159 2956 
Q 1366 3272 1645 3428 
Q 1925 3584 2291 3584 
Q 2894 3584 3203 3211 
Q 3513 2838 3513 2113 
z
" transform="scale(0.015625)"/>
     </defs>
     <use xlink:href="#DejaVuSans-31"/>
     <use xlink:href="#DejaVuSans-37" transform="translate(74.8125 0)"/>
     <use xlink:href="#DejaVuSans-26" transform="translate(130.03125 0)"/>
     <use xlink:href="#DejaVuSans-3" transform="translate(199.859375 0)"/>
     <use xlink:href="#DejaVuSans-57" transform="translate(231.640625 0)"/>
     <use xlink:href="#DejaVuSans-4b" transform="translate(270.84375 0)"/>
     <use xlink:href="#DejaVuSans-48" transform="translate(334.21875 0)"/>
     <use xlink:href="#DejaVuSans-55" transform="translate(395.75 0)"/>
     <use xlink:href="#DejaVuSans-50" transform="translate(435.109375 0)"/>
     <use xlink:href="#DejaVuSans-4c" transform="translate(532.515625 0)"/>
     <use xlink:href="#DejaVuSans-56" transform="translate(560.296875 0)"/>
     <use xlink:href="#DejaVuSans-57" transform="translate(612.390625 0)"/>
     <use xlink:href="#DejaVuSans-52" transform="translate(651.59375 0)"/>
     <use xlink:href="#DejaVuSans-55" transform="translate(712.78125 0)"/>
    </g>
    <!-- (upper hose - - engine exit, -->
    <g transform="translate(153.326133 190.127344) scale(0.105 -0.105)">
     <use xlink:href="#DejaVuSans-b"/>
     <use xlink:href="#DejaVuSans-58" transform="translate(39.015625 0)"/>
     <use xlink:href="#DejaVuSans-53" transform="translate(102.390625 0)"/>
     <use xlink:href="#DejaVuSans-53" transform="translate(165.875 0)"/>
     <use xlink:href="#DejaVuSans-48" transform="translate(229.359375 0)"/>
     <use xlink:href="#DejaVuSans-55" transform="translate(290.890625 0)"/>
     <use xlink:href="#DejaVuSans-3" transform="translate(332 0)"/>
     <use xlink:href="#DejaVuSans-4b" transform="translate(363.78125 0)"/>
     <use xlink:href="#DejaVuSans-52" transform="translate(427.15625 0)"/>
     <use xlink:href="#DejaVuSans-56" transform="translate(488.34375 0)"/>
     <use xlink:href="#DejaVuSans-48" transform="translate(540.4375 0)"/>
     <use xlink:href="#DejaVuSans-3" transform="translate(601.96875 0)"/>
     <use xlink:href="#DejaVuSans-10" transform="translate(633.75 0)"/>
     <use xlink:href="#DejaVuSans-10" transform="translate(669.828125 0)"/>
     <use xlink:href="#DejaVuSans-3" transform="translate(705.90625 0)"/>
     <use xlink:href="#DejaVuSans-48" transform="translate(737.6875 0)"/>
     <use xlink:href="#DejaVuSans-51" transform="translate(799.21875 0)"/>
     <use xlink:href="#DejaVuSans-4a" transform="translate(862.59375 0)"/>
     <use xlink:href="#DejaVuSans-4c" transform="translate(926.078125 0)"/>
     <use xlink:href="#DejaVuSans-51" transform="translate(953.859375 0)"/>
     <use xlink:href="#DejaVuSans-48" transform="translate(1017.234375 0)"/>
     <use xlink:href="#DejaVuSans-3" transform="translate(1078.765625 0)"/>
     <use xlink:href="#DejaVuSans-48" transform="translate(1110.546875 0)"/>
     <use xlink:href="#DejaVuSans-5b" transform="translate(1170.328125 0)"/>
     <use xlink:href="#DejaVuSans-4c" transform="translate(1229.515625 0)"/>
     <use xlink:href="#DejaVuSans-57" transform="translate(1257.296875 0)"/>
     <use xlink:href="#DejaVuSans-f" transform="translate(1296.5 0)"/>
    </g>
    <!-- pre-radiator) -->
    <g transform="translate(189.699609 200.627344) scale(0.105 -0.105)">
     <use xlink:href="#DejaVuSans-53"/>
     <use xlink:href="#DejaVuSans-55" transform="translate(63.484375 0)"/>
     <use xlink:href="#DejaVuSans-48" transform="translate(102.390625 0)"/>
     <use xlink:href="#DejaVuSans-10" transform="translate(163.921875 0)"/>
     <use xlink:href="#DejaVuSans-55" transform="translate(200 0)"/>
     <use xlink:href="#DejaVuSans-44" transform="translate(241.109375 0)"/>
     <use xlink:href="#DejaVuSans-47" transform="translate(302.390625 0)"/>
     <use xlink:href="#DejaVuSans-4c" transform="translate(365.875 0)"/>
     <use xlink:href="#DejaVuSans-44" transform="translate(393.65625 0)"/>
     <use xlink:href="#DejaVuSans-57" transform="translate(454.9375 0)"/>
     <use xlink:href="#DejaVuSans-52" transform="translate(494.140625 0)"/>
     <use xlink:href="#DejaVuSans-55" transform="translate(555.328125 0)"/>
     <use xlink:href="#DejaVuSans-c" transform="translate(596.4375 0)"/>
    </g>
   </g>
   <g id="text_14">
    <!--   SENSOR -->
    <g transform="translate(295.060898 215.801836) scale(0.105 -0.105)">
     <defs>
      <path id="DejaVuSans-36" d="M 3425 4513 
L 3425 3897 
Q 3066 4069 2747 4153 
Q 2428 4238 2131 4238 
Q 1616 4238 1336 4038 
Q 1056 3838 1056 3469 
Q 1056 3159 1242 3001 
Q 1428 2844 1947 2747 
L 2328 2669 
Q 3034 2534 3370 2195 
Q 3706 1856 3706 1288 
Q 3706 609 3251 259 
Q 2797 -91 1919 -91 
Q 1588 -91 1214 -16 
Q 841 59 441 206 
L 441 856 
Q 825 641 1194 531 
Q 1563 422 1919 422 
Q 2459 422 2753 634 
Q 3047 847 3047 1241 
Q 3047 1584 2836 1778 
Q 2625 1972 2144 2069 
L 1759 2144 
Q 1053 2284 737 2584 
Q 422 2884 422 3419 
Q 422 4038 858 4394 
Q 1294 4750 2059 4750 
Q 2388 4750 2728 4690 
Q 3069 4631 3425 4513 
z
" transform="scale(0.015625)"/>
     </defs>
     <use xlink:href="#DejaVuSans-3"/>
     <use xlink:href="#DejaVuSans-3" transform="translate(31.78125 0)"/>
     <use xlink:href="#DejaVuSans-36" transform="translate(63.5625 0)"/>
     <use xlink:href="#DejaVuSans-28" transform="translate(127.046875 0)"/>
     <use xlink:href="#DejaVuSans-31" transform="translate(190.234375 0)"/>
     <use xlink:href="#DejaVuSans-36" transform="translate(265.046875 0)"/>
     <use xlink:href="#DejaVuSans-32" transform="translate(328.53125 0)"/>
     <use xlink:href="#DejaVuSans-35" transform="translate(407.25 0)"/>
    </g>
   </g>
   <g id="text_15">
    <!-- Davies Craig Digital -->
    <g transform="translate(257.473594 45.977344) scale(0.105 -0.105)">
     <use xlink:href="#DejaVuSans-27"/>
     <use xlink:href="#DejaVuSans-44" transform="translate(77 0)"/>
     <use xlink:href="#DejaVuSans-59" transform="translate(138.28125 0)"/>
     <use xlink:href="#DejaVuSans-4c" transform="translate(197.46875 0)"/>
     <use xlink:href="#DejaVuSans-48" transform="translate(225.25 0)"/>
     <use xlink:href="#DejaVuSans-56" transform="translate(286.78125 0)"/>
     <use xlink:href="#DejaVuSans-3" transform="translate(338.875 0)"/>
     <use xlink:href="#DejaVuSans-26" transform="translate(370.65625 0)"/>
     <use xlink:href="#DejaVuSans-55" transform="translate(440.484375 0)"/>
     <use xlink:href="#DejaVuSans-44" transform="translate(481.59375 0)"/>
     <use xlink:href="#DejaVuSans-4c" transform="translate(542.875 0)"/>
     <use xlink:href="#DejaVuSans-4a" transform="translate(570.65625 0)"/>
     <use xlink:href="#DejaVuSans-3" transform="translate(634.140625 0)"/>
     <use xlink:href="#DejaVuSans-27" transform="translate(665.921875 0)"/>
     <use xlink:href="#DejaVuSans-4c" transform="translate(742.921875 0)"/>
     <use xlink:href="#DejaVuSans-4a" transform="translate(770.703125 0)"/>
     <use xlink:href="#DejaVuSans-4c" transform="translate(834.1875 0)"/>
     <use xlink:href="#DejaVuSans-57" transform="translate(861.96875 0)"/>
     <use xlink:href="#DejaVuSans-44" transform="translate(901.171875 0)"/>
     <use xlink:href="#DejaVuSans-4f" transform="translate(962.453125 0)"/>
    </g>
    <!-- Controller (#8002 LCD) -->
    <g transform="translate(247.808672 56.876836) scale(0.105 -0.105)">
     <defs>
      <path id="DejaVuSans-6" d="M 3272 2816 
L 2363 2816 
L 2100 1772 
L 3016 1772 
L 3272 2816 
z
M 2803 4594 
L 2478 3297 
L 3391 3297 
L 3719 4594 
L 4219 4594 
L 3897 3297 
L 4872 3297 
L 4872 2816 
L 3775 2816 
L 3519 1772 
L 4513 1772 
L 4513 1294 
L 3397 1294 
L 3072 0 
L 2572 0 
L 2894 1294 
L 1978 1294 
L 1656 0 
L 1153 0 
L 1478 1294 
L 494 1294 
L 494 1772 
L 1594 1772 
L 1856 2816 
L 850 2816 
L 850 3297 
L 1978 3297 
L 2297 4594 
L 2803 4594 
z
" transform="scale(0.015625)"/>
     </defs>
     <use xlink:href="#DejaVuSans-26"/>
     <use xlink:href="#DejaVuSans-52" transform="translate(69.828125 0)"/>
     <use xlink:href="#DejaVuSans-51" transform="translate(131.015625 0)"/>
     <use xlink:href="#DejaVuSans-57" transform="translate(194.390625 0)"/>
     <use xlink:href="#DejaVuSans-55" transform="translate(233.59375 0)"/>
     <use xlink:href="#DejaVuSans-52" transform="translate(272.5 0)"/>
     <use xlink:href="#DejaVuSans-4f" transform="translate(333.6875 0)"/>
     <use xlink:href="#DejaVuSans-4f" transform="translate(361.46875 0)"/>
     <use xlink:href="#DejaVuSans-48" transform="translate(389.25 0)"/>
     <use xlink:href="#DejaVuSans-55" transform="translate(450.78125 0)"/>
     <use xlink:href="#DejaVuSans-3" transform="translate(491.890625 0)"/>
     <use xlink:href="#DejaVuSans-b" transform="translate(523.671875 0)"/>
     <use xlink:href="#DejaVuSans-6" transform="translate(562.6875 0)"/>
     <use xlink:href="#DejaVuSans-1b" transform="translate(646.484375 0)"/>
     <use xlink:href="#DejaVuSans-13" transform="translate(710.109375 0)"/>
     <use xlink:href="#DejaVuSans-13" transform="translate(773.734375 0)"/>
     <use xlink:href="#DejaVuSans-15" transform="translate(837.359375 0)"/>
     <use xlink:href="#DejaVuSans-3" transform="translate(900.984375 0)"/>
     <use xlink:href="#DejaVuSans-2f" transform="translate(932.765625 0)"/>
     <use xlink:href="#DejaVuSans-26" transform="translate(988.484375 0)"/>
     <use xlink:href="#DejaVuSans-27" transform="translate(1058.3125 0)"/>
     <use xlink:href="#DejaVuSans-c" transform="translate(1135.3125 0)"/>
    </g>
    <!-- - - mounted in cabin - - -->
    <g transform="translate(252.600117 67.994531) scale(0.105 -0.105)">
     <defs>
      <path id="DejaVuSans-45" d="M 3116 1747 
Q 3116 2381 2855 2742 
Q 2594 3103 2138 3103 
Q 1681 3103 1420 2742 
Q 1159 2381 1159 1747 
Q 1159 1113 1420 752 
Q 1681 391 2138 391 
Q 2594 391 2855 752 
Q 3116 1113 3116 1747 
z
M 1159 2969 
Q 1341 3281 1617 3432 
Q 1894 3584 2278 3584 
Q 2916 3584 3314 3078 
Q 3713 2572 3713 1747 
Q 3713 922 3314 415 
Q 2916 -91 2278 -91 
Q 1894 -91 1617 61 
Q 1341 213 1159 525 
L 1159 0 
L 581 0 
L 581 4863 
L 1159 4863 
L 1159 2969 
z
" transform="scale(0.015625)"/>
     </defs>
     <use xlink:href="#DejaVuSans-10"/>
     <use xlink:href="#DejaVuSans-10" transform="translate(36.078125 0)"/>
     <use xlink:href="#DejaVuSans-3" transform="translate(72.15625 0)"/>
     <use xlink:href="#DejaVuSans-50" transform="translate(103.9375 0)"/>
     <use xlink:href="#DejaVuSans-52" transform="translate(201.34375 0)"/>
     <use xlink:href="#DejaVuSans-58" transform="translate(262.53125 0)"/>
     <use xlink:href="#DejaVuSans-51" transform="translate(325.90625 0)"/>
     <use xlink:href="#DejaVuSans-57" transform="translate(389.28125 0)"/>
     <use xlink:href="#DejaVuSans-48" transform="translate(428.484375 0)"/>
     <use xlink:href="#DejaVuSans-47" transform="translate(490.015625 0)"/>
     <use xlink:href="#DejaVuSans-3" transform="translate(553.5 0)"/>
     <use xlink:href="#DejaVuSans-4c" transform="translate(585.28125 0)"/>
     <use xlink:href="#DejaVuSans-51" transform="translate(613.0625 0)"/>
     <use xlink:href="#DejaVuSans-3" transform="translate(676.4375 0)"/>
     <use xlink:href="#DejaVuSans-46" transform="translate(708.21875 0)"/>
     <use xlink:href="#DejaVuSans-44" transform="translate(763.203125 0)"/>
     <use xlink:href="#DejaVuSans-45" transform="translate(824.484375 0)"/>
     <use xlink:href="#DejaVuSans-4c" transform="translate(887.96875 0)"/>
     <use xlink:href="#DejaVuSans-51" transform="translate(915.75 0)"/>
     <use xlink:href="#DejaVuSans-3" transform="translate(979.125 0)"/>
     <use xlink:href="#DejaVuSans-10" transform="translate(1010.90625 0)"/>
     <use xlink:href="#DejaVuSans-10" transform="translate(1046.984375 0)"/>
    </g>
   </g>
   <g id="text_16">
    <!-- Power: pump runs from BATT+ (RED, always-on) - - IGN is sense input only, does not power pump -->
    <g transform="translate(0 261.977344) scale(0.105 -0.105)">
     <defs>
      <path id="DejaVuSans-1d" d="M 750 794 
L 1409 794 
L 1409 0 
L 750 0 
L 750 794 
z
M 750 3309 
L 1409 3309 
L 1409 2516 
L 750 2516 
L 750 3309 
z
" transform="scale(0.015625)"/>
     </defs>
     <use xlink:href="#DejaVuSans-33"/>
     <use xlink:href="#DejaVuSans-52" transform="translate(56.734375 0)"/>
     <use xlink:href="#DejaVuSans-5a" transform="translate(117.921875 0)"/>
     <use xlink:href="#DejaVuSans-48" transform="translate(199.703125 0)"/>
     <use xlink:href="#DejaVuSans-55" transform="translate(261.234375 0)"/>
     <use xlink:href="#DejaVuSans-1d" transform="translate(300.59375 0)"/>
     <use xlink:href="#DejaVuSans-3" transform="translate(334.28125 0)"/>
     <use xlink:href="#DejaVuSans-53" transform="translate(366.0625 0)"/>
     <use xlink:href="#DejaVuSans-58" transform="translate(429.546875 0)"/>
     <use xlink:href="#DejaVuSans-50" transform="translate(492.921875 0)"/>
     <use xlink:href="#DejaVuSans-53" transform="translate(590.328125 0)"/>
     <use xlink:href="#DejaVuSans-3" transform="translate(653.8125 0)"/>
     <use xlink:href="#DejaVuSans-55" transform="translate(685.59375 0)"/>
     <use xlink:href="#DejaVuSans-58" transform="translate(726.703125 0)"/>
     <use xlink:href="#DejaVuSans-51" transform="translate(790.078125 0)"/>
     <use xlink:href="#DejaVuSans-56" transform="translate(853.453125 0)"/>
     <use xlink:href="#DejaVuSans-3" transform="translate(905.546875 0)"/>
     <use xlink:href="#DejaVuSans-49" transform="translate(937.328125 0)"/>
     <use xlink:href="#DejaVuSans-55" transform="translate(972.53125 0)"/>
     <use xlink:href="#DejaVuSans-52" transform="translate(1011.4375 0)"/>
     <use xlink:href="#DejaVuSans-50" transform="translate(1072.625 0)"/>
     <use xlink:href="#DejaVuSans-3" transform="translate(1170.03125 0)"/>
     <use xlink:href="#DejaVuSans-25" transform="translate(1201.8125 0)"/>
     <use xlink:href="#DejaVuSans-24" transform="translate(1270.421875 0)"/>
     <use xlink:href="#DejaVuSans-37" transform="translate(1331.0625 0)"/>
     <use xlink:href="#DejaVuSans-37" transform="translate(1390.390625 0)"/>
     <use xlink:href="#DejaVuSans-e" transform="translate(1451.46875 0)"/>
     <use xlink:href="#DejaVuSans-3" transform="translate(1535.265625 0)"/>
     <use xlink:href="#DejaVuSans-b" transform="translate(1567.046875 0)"/>
     <use xlink:href="#DejaVuSans-35" transform="translate(1606.0625 0)"/>
     <use xlink:href="#DejaVuSans-28" transform="translate(1675.546875 0)"/>
     <use xlink:href="#DejaVuSans-27" transform="translate(1738.734375 0)"/>
     <use xlink:href="#DejaVuSans-f" transform="translate(1815.734375 0)"/>
     <use xlink:href="#DejaVuSans-3" transform="translate(1847.515625 0)"/>
     <use xlink:href="#DejaVuSans-44" transform="translate(1879.296875 0)"/>
     <use xlink:href="#DejaVuSans-4f" transform="translate(1940.578125 0)"/>
     <use xlink:href="#DejaVuSans-5a" transform="translate(1968.359375 0)"/>
     <use xlink:href="#DejaVuSans-44" transform="translate(2050.140625 0)"/>
     <use xlink:href="#DejaVuSans-5c" transform="translate(2111.421875 0)"/>
     <use xlink:href="#DejaVuSans-56" transform="translate(2170.609375 0)"/>
     <use xlink:href="#DejaVuSans-10" transform="translate(2222.703125 0)"/>
     <use xlink:href="#DejaVuSans-52" transform="translate(2260.640625 0)"/>
     <use xlink:href="#DejaVuSans-51" transform="translate(2321.828125 0)"/>
     <use xlink:href="#DejaVuSans-c" transform="translate(2385.203125 0)"/>
     <use xlink:href="#DejaVuSans-3" transform="translate(2424.21875 0)"/>
     <use xlink:href="#DejaVuSans-10" transform="translate(2456 0)"/>
     <use xlink:href="#DejaVuSans-10" transform="translate(2492.078125 0)"/>
     <use xlink:href="#DejaVuSans-3" transform="translate(2528.15625 0)"/>
     <use xlink:href="#DejaVuSans-2c" transform="translate(2559.9375 0)"/>
     <use xlink:href="#DejaVuSans-2a" transform="translate(2589.4375 0)"/>
     <use xlink:href="#DejaVuSans-31" transform="translate(2666.921875 0)"/>
     <use xlink:href="#DejaVuSans-3" transform="translate(2741.734375 0)"/>
     <use xlink:href="#DejaVuSans-4c" transform="translate(2773.515625 0)"/>
     <use xlink:href="#DejaVuSans-56" transform="translate(2801.296875 0)"/>
     <use xlink:href="#DejaVuSans-3" transform="translate(2853.390625 0)"/>
     <use xlink:href="#DejaVuSans-56" transform="translate(2885.171875 0)"/>
     <use xlink:href="#DejaVuSans-48" transform="translate(2937.265625 0)"/>
     <use xlink:href="#DejaVuSans-51" transform="translate(2998.796875 0)"/>
     <use xlink:href="#DejaVuSans-56" transform="translate(3062.171875 0)"/>
     <use xlink:href="#DejaVuSans-48" transform="translate(3114.265625 0)"/>
     <use xlink:href="#DejaVuSans-3" transform="translate(3175.796875 0)"/>
     <use xlink:href="#DejaVuSans-4c" transform="translate(3207.578125 0)"/>
     <use xlink:href="#DejaVuSans-51" transform="translate(3235.359375 0)"/>
     <use xlink:href="#DejaVuSans-53" transform="translate(3298.734375 0)"/>
     <use xlink:href="#DejaVuSans-58" transform="translate(3362.21875 0)"/>
     <use xlink:href="#DejaVuSans-57" transform="translate(3425.59375 0)"/>
     <use xlink:href="#DejaVuSans-3" transform="translate(3464.796875 0)"/>
     <use xlink:href="#DejaVuSans-52" transform="translate(3496.578125 0)"/>
     <use xlink:href="#DejaVuSans-51" transform="translate(3557.765625 0)"/>
     <use xlink:href="#DejaVuSans-4f" transform="translate(3621.140625 0)"/>
     <use xlink:href="#DejaVuSans-5c" transform="translate(3648.921875 0)"/>
     <use xlink:href="#DejaVuSans-f" transform="translate(3708.109375 0)"/>
     <use xlink:href="#DejaVuSans-3" transform="translate(3739.890625 0)"/>
     <use xlink:href="#DejaVuSans-47" transform="translate(3771.671875 0)"/>
     <use xlink:href="#DejaVuSans-52" transform="translate(3835.15625 0)"/>
     <use xlink:href="#DejaVuSans-48" transform="translate(3896.34375 0)"/>
     <use xlink:href="#DejaVuSans-56" transform="translate(3957.875 0)"/>
     <use xlink:href="#DejaVuSans-3" transform="translate(4009.96875 0)"/>
     <use xlink:href="#DejaVuSans-51" transform="translate(4041.75 0)"/>
     <use xlink:href="#DejaVuSans-52" transform="translate(4105.125 0)"/>
     <use xlink:href="#DejaVuSans-57" transform="translate(4166.3125 0)"/>
     <use xlink:href="#DejaVuSans-3" transform="translate(4205.515625 0)"/>
     <use xlink:href="#DejaVuSans-53" transform="translate(4237.296875 0)"/>
     <use xlink:href="#DejaVuSans-52" transform="translate(4300.78125 0)"/>
     <use xlink:href="#DejaVuSans-5a" transform="translate(4361.96875 0)"/>
     <use xlink:href="#DejaVuSans-48" transform="translate(4443.75 0)"/>
     <use xlink:href="#DejaVuSans-55" transform="translate(4505.28125 0)"/>
     <use xlink:href="#DejaVuSans-3" transform="translate(4546.390625 0)"/>
     <use xlink:href="#DejaVuSans-53" transform="translate(4578.171875 0)"/>
     <use xlink:href="#DejaVuSans-58" transform="translate(4641.65625 0)"/>
     <use xlink:href="#DejaVuSans-50" transform="translate(4705.03125 0)"/>
     <use xlink:href="#DejaVuSans-53" transform="translate(4802.4375 0)"/>
    </g>
    <!-- Post-shutdown: controller runs pump after key-off until CLT drops 10C below setpoint or 3 min -->
    <g transform="translate(8.544375 272.477344) scale(0.105 -0.105)">
     <defs>
      <path id="DejaVuSans-4e" d="M 581 4863 
L 1159 4863 
L 1159 1991 
L 2875 3500 
L 3609 3500 
L 1753 1863 
L 3688 0 
L 2938 0 
L 1159 1709 
L 1159 0 
L 581 0 
L 581 4863 
z
" transform="scale(0.015625)"/>
      <path id="DejaVuSans-13ae" d="M 4531 4863 
L 4531 4384 
L 3981 4384 
Q 3672 4384 3551 4259 
Q 3431 4134 3431 3809 
L 3431 3500 
L 4378 3500 
L 4378 3053 
L 3431 3053 
L 3431 0 
L 2853 0 
L 2853 3053 
L 1275 3053 
L 1275 0 
L 697 0 
L 697 3053 
L 147 3053 
L 147 3500 
L 697 3500 
L 697 3744 
Q 697 4328 969 4595 
Q 1241 4863 1831 4863 
L 2375 4863 
L 2375 4384 
L 1825 4384 
Q 1516 4384 1394 4259 
Q 1275 4134 1275 3809 
L 1275 3500 
L 2853 3500 
L 2853 3744 
Q 2853 4328 3125 4595 
Q 3397 4863 3988 4863 
L 4531 4863 
z
" transform="scale(0.015625)"/>
      <path id="DejaVuSans-16" d="M 2597 2516 
Q 3050 2419 3304 2112 
Q 3559 1806 3559 1356 
Q 3559 666 3084 287 
Q 2609 -91 1734 -91 
Q 1441 -91 1130 -33 
Q 819 25 488 141 
L 488 750 
Q 750 597 1062 519 
Q 1375 441 1716 441 
Q 2309 441 2620 675 
Q 2931 909 2931 1356 
Q 2931 1769 2642 2001 
Q 2353 2234 1838 2234 
L 1294 2234 
L 1294 2753 
L 1863 2753 
Q 2328 2753 2575 2939 
Q 2822 3125 2822 3475 
Q 2822 3834 2567 4026 
Q 2313 4219 1838 4219 
Q 1578 4219 1281 4162 
Q 984 4106 628 3988 
L 628 4550 
Q 988 4650 1302 4700 
Q 1616 4750 1894 4750 
Q 2613 4750 3031 4423 
Q 3450 4097 3450 3541 
Q 3450 3153 3228 2886 
Q 3006 2619 2597 2516 
z
" transform="scale(0.015625)"/>
     </defs>
     <use xlink:href="#DejaVuSans-33"/>
     <use xlink:href="#DejaVuSans-52" transform="translate(56.734375 0)"/>
     <use xlink:href="#DejaVuSans-56" transform="translate(117.921875 0)"/>
     <use xlink:href="#DejaVuSans-57" transform="translate(170.015625 0)"/>
     <use xlink:href="#DejaVuSans-10" transform="translate(209.21875 0)"/>
     <use xlink:href="#DejaVuSans-56" transform="translate(245.296875 0)"/>
     <use xlink:href="#DejaVuSans-4b" transform="translate(297.390625 0)"/>
     <use xlink:href="#DejaVuSans-58" transform="translate(360.765625 0)"/>
     <use xlink:href="#DejaVuSans-57" transform="translate(424.140625 0)"/>
     <use xlink:href="#DejaVuSans-47" transform="translate(463.34375 0)"/>
     <use xlink:href="#DejaVuSans-52" transform="translate(526.828125 0)"/>
     <use xlink:href="#DejaVuSans-5a" transform="translate(588.015625 0)"/>
     <use xlink:href="#DejaVuSans-51" transform="translate(669.796875 0)"/>
     <use xlink:href="#DejaVuSans-1d" transform="translate(733.171875 0)"/>
     <use xlink:href="#DejaVuSans-3" transform="translate(766.859375 0)"/>
     <use xlink:href="#DejaVuSans-46" transform="translate(798.640625 0)"/>
     <use xlink:href="#DejaVuSans-52" transform="translate(853.625 0)"/>
     <use xlink:href="#DejaVuSans-51" transform="translate(914.8125 0)"/>
     <use xlink:href="#DejaVuSans-57" transform="translate(978.1875 0)"/>
     <use xlink:href="#DejaVuSans-55" transform="translate(1017.390625 0)"/>
     <use xlink:href="#DejaVuSans-52" transform="translate(1056.296875 0)"/>
     <use xlink:href="#DejaVuSans-4f" transform="translate(1117.484375 0)"/>
     <use xlink:href="#DejaVuSans-4f" transform="translate(1145.265625 0)"/>
     <use xlink:href="#DejaVuSans-48" transform="translate(1173.046875 0)"/>
     <use xlink:href="#DejaVuSans-55" transform="translate(1234.578125 0)"/>
     <use xlink:href="#DejaVuSans-3" transform="translate(1275.6875 0)"/>
     <use xlink:href="#DejaVuSans-55" transform="translate(1307.46875 0)"/>
     <use xlink:href="#DejaVuSans-58" transform="translate(1348.578125 0)"/>
     <use xlink:href="#DejaVuSans-51" transform="translate(1411.953125 0)"/>
     <use xlink:href="#DejaVuSans-56" transform="translate(1475.328125 0)"/>
     <use xlink:href="#DejaVuSans-3" transform="translate(1527.421875 0)"/>
     <use xlink:href="#DejaVuSans-53" transform="translate(1559.203125 0)"/>
     <use xlink:href="#DejaVuSans-58" transform="translate(1622.6875 0)"/>
     <use xlink:href="#DejaVuSans-50" transform="translate(1686.0625 0)"/>
     <use xlink:href="#DejaVuSans-53" transform="translate(1783.46875 0)"/>
     <use xlink:href="#DejaVuSans-3" transform="translate(1846.953125 0)"/>
     <use xlink:href="#DejaVuSans-44" transform="translate(1878.734375 0)"/>
     <use xlink:href="#DejaVuSans-49" transform="translate(1940.015625 0)"/>
     <use xlink:href="#DejaVuSans-57" transform="translate(1973.46875 0)"/>
     <use xlink:href="#DejaVuSans-48" transform="translate(2012.671875 0)"/>
     <use xlink:href="#DejaVuSans-55" transform="translate(2074.203125 0)"/>
     <use xlink:href="#DejaVuSans-3" transform="translate(2115.3125 0)"/>
     <use xlink:href="#DejaVuSans-4e" transform="translate(2147.09375 0)"/>
     <use xlink:href="#DejaVuSans-48" transform="translate(2201.4375 0)"/>
     <use xlink:href="#DejaVuSans-5c" transform="translate(2262.96875 0)"/>
     <use xlink:href="#DejaVuSans-10" transform="translate(2320.40625 0)"/>
     <use xlink:href="#DejaVuSans-52" transform="translate(2358.34375 0)"/>
     <use xlink:href="#DejaVuSans-13ae" transform="translate(2419.53125 0)"/>
     <use xlink:href="#DejaVuSans-3" transform="translate(2488.421875 0)"/>
     <use xlink:href="#DejaVuSans-58" transform="translate(2520.203125 0)"/>
     <use xlink:href="#DejaVuSans-51" transform="translate(2583.578125 0)"/>
     <use xlink:href="#DejaVuSans-57" transform="translate(2646.953125 0)"/>
     <use xlink:href="#DejaVuSans-4c" transform="translate(2686.15625 0)"/>
     <use xlink:href="#DejaVuSans-4f" transform="translate(2713.9375 0)"/>
     <use xlink:href="#DejaVuSans-3" transform="translate(2741.71875 0)"/>
     <use xlink:href="#DejaVuSans-26" transform="translate(2773.5 0)"/>
     <use xlink:href="#DejaVuSans-2f" transform="translate(2843.328125 0)"/>
     <use xlink:href="#DejaVuSans-37" transform="translate(2885.28125 0)"/>
     <use xlink:href="#DejaVuSans-3" transform="translate(2946.359375 0)"/>
     <use xlink:href="#DejaVuSans-47" transform="translate(2978.140625 0)"/>
     <use xlink:href="#DejaVuSans-55" transform="translate(3041.625 0)"/>
     <use xlink:href="#DejaVuSans-52" transform="translate(3080.53125 0)"/>
     <use xlink:href="#DejaVuSans-53" transform="translate(3141.71875 0)"/>
     <use xlink:href="#DejaVuSans-56" transform="translate(3205.203125 0)"/>
     <use xlink:href="#DejaVuSans-3" transform="translate(3257.296875 0)"/>
     <use xlink:href="#DejaVuSans-14" transform="translate(3289.078125 0)"/>
     <use xlink:href="#DejaVuSans-13" transform="translate(3352.703125 0)"/>
     <use xlink:href="#DejaVuSans-26" transform="translate(3416.328125 0)"/>
     <use xlink:href="#DejaVuSans-3" transform="translate(3486.15625 0)"/>
     <use xlink:href="#DejaVuSans-45" transform="translate(3517.9375 0)"/>
     <use xlink:href="#DejaVuSans-48" transform="translate(3581.421875 0)"/>
     <use xlink:href="#DejaVuSans-4f" transform="translate(3642.953125 0)"/>
     <use xlink:href="#DejaVuSans-52" transform="translate(3670.734375 0)"/>
     <use xlink:href="#DejaVuSans-5a" transform="translate(3731.921875 0)"/>
     <use xlink:href="#DejaVuSans-3" transform="translate(3813.703125 0)"/>
     <use xlink:href="#DejaVuSans-56" transform="translate(3845.484375 0)"/>
     <use xlink:href="#DejaVuSans-48" transform="translate(3897.578125 0)"/>
     <use xlink:href="#DejaVuSans-57" transform="translate(3959.109375 0)"/>
     <use xlink:href="#DejaVuSans-53" transform="translate(3998.3125 0)"/>
     <use xlink:href="#DejaVuSans-52" transform="translate(4061.796875 0)"/>
     <use xlink:href="#DejaVuSans-4c" transform="translate(4122.984375 0)"/>
     <use xlink:href="#DejaVuSans-51" transform="translate(4150.765625 0)"/>
     <use xlink:href="#DejaVuSans-57" transform="translate(4214.140625 0)"/>
     <use xlink:href="#DejaVuSans-3" transform="translate(4253.34375 0)"/>
     <use xlink:href="#DejaVuSans-52" transform="translate(4285.125 0)"/>
     <use xlink:href="#DejaVuSans-55" transform="translate(4346.3125 0)"/>
     <use xlink:href="#DejaVuSans-3" transform="translate(4387.421875 0)"/>
     <use xlink:href="#DejaVuSans-16" transform="translate(4419.203125 0)"/>
     <use xlink:href="#DejaVuSans-3" transform="translate(4482.828125 0)"/>
     <use xlink:href="#DejaVuSans-50" transform="translate(4514.609375 0)"/>
     <use xlink:href="#DejaVuSans-4c" transform="translate(4612.015625 0)"/>
     <use xlink:href="#DejaVuSans-51" transform="translate(4639.796875 0)"/>
    </g>
    <!-- MaxxECU: separate NTC in own coolant port - - no shared sensors, no MaxxECU pump command -->
    <g transform="translate(3.468281 282.977344) scale(0.105 -0.105)">
     <use xlink:href="#DejaVuSans-30"/>
     <use xlink:href="#DejaVuSans-44" transform="translate(86.28125 0)"/>
     <use xlink:href="#DejaVuSans-5b" transform="translate(147.5625 0)"/>
     <use xlink:href="#DejaVuSans-5b" transform="translate(206.75 0)"/>
     <use xlink:href="#DejaVuSans-28" transform="translate(265.9375 0)"/>
     <use xlink:href="#DejaVuSans-26" transform="translate(329.125 0)"/>
     <use xlink:href="#DejaVuSans-38" transform="translate(398.953125 0)"/>
     <use xlink:href="#DejaVuSans-1d" transform="translate(472.140625 0)"/>
     <use xlink:href="#DejaVuSans-3" transform="translate(505.828125 0)"/>
     <use xlink:href="#DejaVuSans-56" transform="translate(537.609375 0)"/>
     <use xlink:href="#DejaVuSans-48" transform="translate(589.703125 0)"/>
     <use xlink:href="#DejaVuSans-53" transform="translate(651.234375 0)"/>
     <use xlink:href="#DejaVuSans-44" transform="translate(714.71875 0)"/>
     <use xlink:href="#DejaVuSans-55" transform="translate(776 0)"/>
     <use xlink:href="#DejaVuSans-44" transform="translate(817.109375 0)"/>
     <use xlink:href="#DejaVuSans-57" transform="translate(878.390625 0)"/>
     <use xlink:href="#DejaVuSans-48" transform="translate(917.59375 0)"/>
     <use xlink:href="#DejaVuSans-3" transform="translate(979.125 0)"/>
     <use xlink:href="#DejaVuSans-31" transform="translate(1010.90625 0)"/>
     <use xlink:href="#DejaVuSans-37" transform="translate(1085.71875 0)"/>
     <use xlink:href="#DejaVuSans-26" transform="translate(1140.9375 0)"/>
     <use xlink:href="#DejaVuSans-3" transform="translate(1210.765625 0)"/>
     <use xlink:href="#DejaVuSans-4c" transform="translate(1242.546875 0)"/>
     <use xlink:href="#DejaVuSans-51" transform="translate(1270.328125 0)"/>
     <use xlink:href="#DejaVuSans-3" transform="translate(1333.703125 0)"/>
     <use xlink:href="#DejaVuSans-52" transform="translate(1365.484375 0)"/>
     <use xlink:href="#DejaVuSans-5a" transform="translate(1426.671875 0)"/>
     <use xlink:href="#DejaVuSans-51" transform="translate(1508.453125 0)"/>
     <use xlink:href="#DejaVuSans-3" transform="translate(1571.828125 0)"/>
     <use xlink:href="#DejaVuSans-46" transform="translate(1603.609375 0)"/>
     <use xlink:href="#DejaVuSans-52" transform="translate(1658.59375 0)"/>
     <use xlink:href="#DejaVuSans-52" transform="translate(1719.78125 0)"/>
     <use xlink:href="#DejaVuSans-4f" transform="translate(1780.96875 0)"/>
     <use xlink:href="#DejaVuSans-44" transform="translate(1808.75 0)"/>
     <use xlink:href="#DejaVuSans-51" transform="translate(1870.03125 0)"/>
     <use xlink:href="#DejaVuSans-57" transform="translate(1933.40625 0)"/>
     <use xlink:href="#DejaVuSans-3" transform="translate(1972.609375 0)"/>
     <use xlink:href="#DejaVuSans-53" transform="translate(2004.390625 0)"/>
     <use xlink:href="#DejaVuSans-52" transform="translate(2067.875 0)"/>
     <use xlink:href="#DejaVuSans-55" transform="translate(2129.0625 0)"/>
     <use xlink:href="#DejaVuSans-57" transform="translate(2170.171875 0)"/>
     <use xlink:href="#DejaVuSans-3" transform="translate(2209.375 0)"/>
     <use xlink:href="#DejaVuSans-10" transform="translate(2241.15625 0)"/>
     <use xlink:href="#DejaVuSans-10" transform="translate(2277.234375 0)"/>
     <use xlink:href="#DejaVuSans-3" transform="translate(2313.3125 0)"/>
     <use xlink:href="#DejaVuSans-51" transform="translate(2345.09375 0)"/>
     <use xlink:href="#DejaVuSans-52" transform="translate(2408.46875 0)"/>
     <use xlink:href="#DejaVuSans-3" transform="translate(2469.65625 0)"/>
     <use xlink:href="#DejaVuSans-56" transform="translate(2501.4375 0)"/>
     <use xlink:href="#DejaVuSans-4b" transform="translate(2553.53125 0)"/>
     <use xlink:href="#DejaVuSans-44" transform="translate(2616.90625 0)"/>
     <use xlink:href="#DejaVuSans-55" transform="translate(2678.1875 0)"/>
     <use xlink:href="#DejaVuSans-48" transform="translate(2717.09375 0)"/>
     <use xlink:href="#DejaVuSans-47" transform="translate(2778.625 0)"/>
     <use xlink:href="#DejaVuSans-3" transform="translate(2842.109375 0)"/>
     <use xlink:href="#DejaVuSans-56" transform="translate(2873.890625 0)"/>
     <use xlink:href="#DejaVuSans-48" transform="translate(2925.984375 0)"/>
     <use xlink:href="#DejaVuSans-51" transform="translate(2987.515625 0)"/>
     <use xlink:href="#DejaVuSans-56" transform="translate(3050.890625 0)"/>
     <use xlink:href="#DejaVuSans-52" transform="translate(3102.984375 0)"/>
     <use xlink:href="#DejaVuSans-55" transform="translate(3164.171875 0)"/>
     <use xlink:href="#DejaVuSans-56" transform="translate(3205.28125 0)"/>
     <use xlink:href="#DejaVuSans-f" transform="translate(3257.375 0)"/>
     <use xlink:href="#DejaVuSans-3" transform="translate(3289.15625 0)"/>
     <use xlink:href="#DejaVuSans-51" transform="translate(3320.9375 0)"/>
     <use xlink:href="#DejaVuSans-52" transform="translate(3384.3125 0)"/>
     <use xlink:href="#DejaVuSans-3" transform="translate(3445.5 0)"/>
     <use xlink:href="#DejaVuSans-30" transform="translate(3477.28125 0)"/>
     <use xlink:href="#DejaVuSans-44" transform="translate(3563.5625 0)"/>
     <use xlink:href="#DejaVuSans-5b" transform="translate(3624.84375 0)"/>
     <use xlink:href="#DejaVuSans-5b" transform="translate(3684.03125 0)"/>
     <use xlink:href="#DejaVuSans-28" transform="translate(3743.21875 0)"/>
     <use xlink:href="#DejaVuSans-26" transform="translate(3806.40625 0)"/>
     <use xlink:href="#DejaVuSans-38" transform="translate(3876.234375 0)"/>
     <use xlink:href="#DejaVuSans-3" transform="translate(3949.421875 0)"/>
     <use xlink:href="#DejaVuSans-53" transform="translate(3981.203125 0)"/>
     <use xlink:href="#DejaVuSans-58" transform="translate(4044.6875 0)"/>
     <use xlink:href="#DejaVuSans-50" transform="translate(4108.0625 0)"/>
     <use xlink:href="#DejaVuSans-53" transform="translate(4205.46875 0)"/>
     <use xlink:href="#DejaVuSans-3" transform="translate(4268.953125 0)"/>
     <use xlink:href="#DejaVuSans-46" transform="translate(4300.734375 0)"/>
     <use xlink:href="#DejaVuSans-52" transform="translate(4355.71875 0)"/>
     <use xlink:href="#DejaVuSans-50" transform="translate(4416.90625 0)"/>
     <use xlink:href="#DejaVuSans-50" transform="translate(4514.3125 0)"/>
     <use xlink:href="#DejaVuSans-44" transform="translate(4611.71875 0)"/>
     <use xlink:href="#DejaVuSans-51" transform="translate(4673 0)"/>
     <use xlink:href="#DejaVuSans-47" transform="translate(4736.375 0)"/>
    </g>
   </g>
   <g id="patch_3">
    <path d="M 370.660898 45.48 
C 371.376947 45.48 372.063764 45.195511 372.570087 44.689188 
C 373.076409 44.182866 373.360898 43.496048 373.360898 42.78 
C 373.360898 42.063952 373.076409 41.377134 372.570087 40.870812 
C 372.063764 40.364489 371.376947 40.08 370.660898 40.08 
C 369.94485 40.08 369.258033 40.364489 368.75171 40.870812 
C 368.245387 41.377134 367.960898 42.063952 367.960898 42.78 
C 367.960898 43.496048 368.245387 44.182866 368.75171 44.689188 
C 369.258033 45.195511 369.94485 45.48 370.660898 45.48 
z
" clip-path="url(#p1f68208a00)" style="stroke: #000000; stroke-width: 2; stroke-linejoin: miter"/>
   </g>
   <g id="patch_4">
    <path d="M 259.060898 110.28 
C 259.776947 110.28 260.463764 109.995511 260.970087 109.489188 
C 261.476409 108.982866 261.760898 108.296048 261.760898 107.58 
C 261.760898 106.863952 261.476409 106.177134 260.970087 105.670812 
C 260.463764 105.164489 259.776947 104.88 259.060898 104.88 
C 258.34485 104.88 257.658033 105.164489 257.15171 105.670812 
C 256.645387 106.177134 256.360898 106.863952 256.360898 107.58 
C 256.360898 108.296048 256.645387 108.982866 257.15171 109.489188 
C 257.658033 109.995511 258.34485 110.28 259.060898 110.28 
z
" clip-path="url(#p1f68208a00)" style="stroke: #000000; stroke-width: 2; stroke-linejoin: miter"/>
   </g>
   <g id="patch_5">
    <path d="M 313.060898 160.68 
C 313.776947 160.68 314.463764 160.395511 314.970087 159.889188 
C 315.476409 159.382866 315.760898 158.696048 315.760898 157.98 
C 315.760898 157.263952 315.476409 156.577134 314.970087 156.070812 
C 314.463764 155.564489 313.776947 155.28 313.060898 155.28 
C 312.34485 155.28 311.658033 155.564489 311.15171 156.070812 
C 310.645387 156.577134 310.360898 157.263952 310.360898 157.98 
C 310.360898 158.696048 310.645387 159.382866 311.15171 159.889188 
C 311.658033 160.395511 312.34485 160.68 313.060898 160.68 
z
" clip-path="url(#p1f68208a00)" style="stroke: #000000; stroke-width: 2; stroke-linejoin: miter"/>
   </g>
   <g id="patch_6">
    <path d="M 269.860898 110.28 
C 270.576947 110.28 271.263764 109.995511 271.770087 109.489188 
C 272.276409 108.982866 272.560898 108.296048 272.560898 107.58 
C 272.560898 106.863952 272.276409 106.177134 271.770087 105.670812 
C 271.263764 105.164489 270.576947 104.88 269.860898 104.88 
C 269.14485 104.88 268.458033 105.164489 267.95171 105.670812 
C 267.445387 106.177134 267.160898 106.863952 267.160898 107.58 
C 267.160898 108.296048 267.445387 108.982866 267.95171 109.489188 
C 268.458033 109.995511 269.14485 110.28 269.860898 110.28 
z
" clip-path="url(#p1f68208a00)" style="stroke: #000000; stroke-width: 2; stroke-linejoin: miter"/>
   </g>
   <g id="patch_7">
    <path d="M 291.460898 218.28 
C 292.176947 218.28 292.863764 217.995511 293.370087 217.489188 
C 293.876409 216.982866 294.160898 216.296048 294.160898 215.58 
C 294.160898 214.863952 293.876409 214.177134 293.370087 213.670812 
C 292.863764 213.164489 292.176947 212.88 291.460898 212.88 
C 290.74485 212.88 290.058033 213.164489 289.55171 213.670812 
C 289.045387 214.177134 288.760898 214.863952 288.760898 215.58 
C 288.760898 216.296048 289.045387 216.982866 289.55171 217.489188 
C 290.058033 217.995511 290.74485 218.28 291.460898 218.28 
z
" clip-path="url(#p1f68208a00)" style="stroke: #000000; stroke-width: 2; stroke-linejoin: miter"/>
   </g>
  </g>
 </g>
 <defs>
  <clipPath id="p1f68208a00">
   <rect x="23.350898" y="0" width="464.22" height="290.01"/>
  </clipPath>
 </defs>
</svg>
