<?xml version="1.0" encoding="utf-8" standalone="no"?>
<!DOCTYPE svg PUBLIC "-//W3C//DTD SVG 1.1//EN"
  "http://www.w3.org/Graphics/SVG/1.1/DTD/svg11.dtd">
<svg xmlns:xlink="http://www.w3.org/1999/xlink" width="445.285664pt" height="303.96pt" viewBox="0 0 445.285664 303.96" xmlns="http://www.w3.org/2000/svg" version="1.1">
 <metadata>
  <rdf:RDF xmlns:dc="http://purl.org/dc/elements/1.1/" xmlns:cc="http://creativecommons.org/ns#" xmlns:rdf="http://www.w3.org/1999/02/22-rdf-syntax-ns#">
   <cc:Work>
    <dc:type rdf:resource="http://purl.org/dc/dcmitype/StillImage"/>
    <dc:date>2026-07-09T20:33:32.662657</dc:date>
    <dc:format>image/svg+xml</dc:format>
    <dc:creator>
     <cc:Agent>
      <dc:title>Matplotlib v3.11.0, https://matplotlib.org/</dc:title>
     </cc:Agent>
    </dc:creator>
   </cc:Work>
  </rdf:RDF>
 </metadata>
 <defs>
  <style type="text/css">*{stroke-linejoin: round; stroke-linecap: butt}</style>
 </defs>
 <g id="figure_1">
  <g id="patch_1">
   <path d="M 0 303.96 
L 445.285664 303.96 
L 445.285664 0 
L 0 0 
L 0 303.96 
z
" style="fill: none"/>
  </g>
  <g id="axes_1">
   <g id="patch_2">
    <path d="M 240.985686 241.98 
L 240.985686 184.38 
L 309.205664 184.38 
L 309.205664 241.98 
L 240.985686 241.98 
z
" clip-path="url(#p0b99c58fb2)" style="fill: none"/>
   </g>
   <g id="line2d_1">
    <path d="M 240.985686 241.98 
L 240.985686 184.38 
L 309.205664 184.38 
L 309.205664 241.98 
L 240.985686 241.98 
" clip-path="url(#p0b99c58fb2)" style="fill: none; stroke: #000000; stroke-width: 2; stroke-linecap: round"/>
   </g>
   <g id="patch_3">
    <path d="M 249.985686 195.18 
L 250.274002 195.189246 
L 250.561134 195.216945 
L 250.8459 195.262984 
L 251.127132 195.327173 
L 251.403673 195.409249 
L 251.674388 195.508875 
L 251.938163 195.62564 
L 252.193915 195.759066 
L 252.440593 195.908604 
L 252.677184 196.073639 
L 252.902714 196.253493 
L 253.116258 196.447428 
L 253.316937 196.654646 
L 253.503928 196.874296 
L 253.676462 197.105475 
L 253.833829 197.347233 
L 253.975383 197.598578 
L 254.100543 197.858475 
L 254.208794 198.125857 
L 254.299692 198.399626 
L 254.372862 198.678656 
L 254.428004 198.9618 
L 254.464892 199.247896 
L 254.483374 199.535768 
L 254.483374 199.824232 
L 254.464892 200.112104 
L 254.428004 200.3982 
L 254.372862 200.681344 
L 254.299692 200.960374 
L 254.208794 201.234143 
L 254.100543 201.501525 
L 253.975383 201.761422 
L 253.833829 202.012767 
L 253.676462 202.254525 
L 253.503928 202.485704 
L 253.316937 202.705354 
L 253.116258 202.912572 
L 252.902714 203.106507 
L 252.677184 203.286361 
L 252.440593 203.451396 
L 252.193915 203.600934 
L 251.938163 203.73436 
L 251.674388 203.851125 
L 251.403673 203.950751 
L 251.127132 204.032827 
L 250.8459 204.097016 
L 250.561134 204.143055 
L 250.274002 204.170754 
L 249.985686 204.18 
" clip-path="url(#p0b99c58fb2)" style="fill: none; stroke: #000000; stroke-width: 2; stroke-linejoin: miter"/>
   </g>
   <g id="patch_4">
    <path d="M 249.985686 204.18 
L 250.274002 204.189246 
L 250.561134 204.216945 
L 250.8459 204.262984 
L 251.127132 204.327173 
L 251.403673 204.409249 
L 251.674388 204.508875 
L 251.938163 204.62564 
L 252.193915 204.759066 
L 252.440593 204.908604 
L 252.677184 205.073639 
L 252.902714 205.253493 
L 253.116258 205.447428 
L 253.316937 205.654646 
L 253.503928 205.874296 
L 253.676462 206.105475 
L 253.833829 206.347233 
L 253.975383 206.598578 
L 254.100543 206.858475 
L 254.208794 207.125857 
L 254.299692 207.399626 
L 254.372862 207.678656 
L 254.428004 207.9618 
L 254.464892 208.247896 
L 254.483374 208.535768 
L 254.483374 208.824232 
L 254.464892 209.112104 
L 254.428004 209.3982 
L 254.372862 209.681344 
L 254.299692 209.960374 
L 254.208794 210.234143 
L 254.100543 210.501525 
L 253.975383 210.761422 
L 253.833829 211.012767 
L 253.676462 211.254525 
L 253.503928 211.485704 
L 253.316937 211.705354 
L 253.116258 211.912572 
L 252.902714 212.106507 
L 252.677184 212.286361 
L 252.440593 212.451396 
L 252.193915 212.600934 
L 251.938163 212.73436 
L 251.674388 212.851125 
L 251.403673 212.950751 
L 251.127132 213.032827 
L 250.8459 213.097016 
L 250.561134 213.143055 
L 250.274002 213.170754 
L 249.985686 213.18 
" clip-path="url(#p0b99c58fb2)" style="fill: none; stroke: #000000; stroke-width: 2; stroke-linejoin: miter"/>
   </g>
   <g id="patch_5">
    <path d="M 249.985686 213.18 
L 250.274002 213.189246 
L 250.561134 213.216945 
L 250.8459 213.262984 
L 251.127132 213.327173 
L 251.403673 213.409249 
L 251.674388 213.508875 
L 251.938163 213.62564 
L 252.193915 213.759066 
L 252.440593 213.908604 
L 252.677184 214.073639 
L 252.902714 214.253493 
L 253.116258 214.447428 
L 253.316937 214.654646 
L 253.503928 214.874296 
L 253.676462 215.105475 
L 253.833829 215.347233 
L 253.975383 215.598578 
L 254.100543 215.858475 
L 254.208794 216.125857 
L 254.299692 216.399626 
L 254.372862 216.678656 
L 254.428004 216.9618 
L 254.464892 217.247896 
L 254.483374 217.535768 
L 254.483374 217.824232 
L 254.464892 218.112104 
L 254.428004 218.3982 
L 254.372862 218.681344 
L 254.299692 218.960374 
L 254.208794 219.234143 
L 254.100543 219.501525 
L 253.975383 219.761422 
L 253.833829 220.012767 
L 253.676462 220.254525 
L 253.503928 220.485704 
L 253.316937 220.705354 
L 253.116258 220.912572 
L 252.902714 221.106507 
L 252.677184 221.286361 
L 252.440593 221.451396 
L 252.193915 221.600934 
L 251.938163 221.73436 
L 251.674388 221.851125 
L 251.403673 221.950751 
L 251.127132 222.032827 
L 250.8459 222.097016 
L 250.561134 222.143055 
L 250.274002 222.170754 
L 249.985686 222.18 
" clip-path="url(#p0b99c58fb2)" style="fill: none; stroke: #000000; stroke-width: 2; stroke-linejoin: miter"/>
   </g>
   <g id="patch_6">
    <path d="M 249.985686 222.18 
L 250.274002 222.189246 
L 250.561134 222.216945 
L 250.8459 222.262984 
L 251.127132 222.327173 
L 251.403673 222.409249 
L 251.674388 222.508875 
L 251.938163 222.62564 
L 252.193915 222.759066 
L 252.440593 222.908604 
L 252.677184 223.073639 
L 252.902714 223.253493 
L 253.116258 223.447428 
L 253.316937 223.654646 
L 253.503928 223.874296 
L 253.676462 224.105475 
L 253.833829 224.347233 
L 253.975383 224.598578 
L 254.100543 224.858475 
L 254.208794 225.125857 
L 254.299692 225.399626 
L 254.372862 225.678656 
L 254.428004 225.9618 
L 254.464892 226.247896 
L 254.483374 226.535768 
L 254.483374 226.824232 
L 254.464892 227.112104 
L 254.428004 227.3982 
L 254.372862 227.681344 
L 254.299692 227.960374 
L 254.208794 228.234143 
L 254.100543 228.501525 
L 253.975383 228.761422 
L 253.833829 229.012767 
L 253.676462 229.254525 
L 253.503928 229.485704 
L 253.316937 229.705354 
L 253.116258 229.912572 
L 252.902714 230.106507 
L 252.677184 230.286361 
L 252.440593 230.451396 
L 252.193915 230.600934 
L 251.938163 230.73436 
L 251.674388 230.851125 
L 251.403673 230.950751 
L 251.127132 231.032827 
L 250.8459 231.097016 
L 250.561134 231.143055 
L 250.274002 231.170754 
L 249.985686 231.18 
" clip-path="url(#p0b99c58fb2)" style="fill: none; stroke: #000000; stroke-width: 2; stroke-linejoin: miter"/>
   </g>
   <g id="patch_7">
    <path d="M 366.805664 267.18 
C 371.57932 267.18 376.158102 265.283406 379.533586 261.907922 
C 382.909071 258.532438 384.805664 253.953656 384.805664 249.18 
C 384.805664 244.406344 382.909071 239.827562 379.533586 236.452078 
C 376.158102 233.076594 371.57932 231.18 366.805664 231.18 
C 362.032008 231.18 357.453226 233.076594 354.077742 236.452078 
C 350.702258 239.827562 348.805664 244.406344 348.805664 249.18 
C 348.805664 253.953656 350.702258 258.532438 354.077742 261.907922 
C 357.453226 265.283406 362.032008 267.18 366.805664 267.18 
L 366.805664 267.18 
z
" clip-path="url(#p0b99c58fb2)" style="fill: none; stroke: #000000; stroke-width: 2; stroke-linejoin: miter"/>
   </g>
   <g id="line2d_2">
    <path d="M 249.985686 177.18 
L 249.985686 195.18 
M 249.985686 231.18 
L 249.985686 249.18 
" clip-path="url(#p0b99c58fb2)" style="fill: none; stroke: #000000; stroke-width: 2; stroke-linecap: round"/>
   </g>
   <g id="line2d_3">
    <path d="M 259.885664 195.18 
L 259.885664 213.18 
L 259.885664 231.18 
" clip-path="url(#p0b99c58fb2)" style="fill: none; stroke: #000000; stroke-width: 2; stroke-linecap: round"/>
   </g>
   <g id="line2d_4">
    <path d="M 284.005664 177.18 
L 284.005664 195.18 
M 287.605664 203.82 
L 300.205664 223.98 
M 284.005664 231.18 
L 284.005664 249.18 
" clip-path="url(#p0b99c58fb2)" style="fill: none; stroke: #000000; stroke-width: 2; stroke-linecap: round"/>
   </g>
   <g id="line2d_5">
    <path d="M 261.685664 213.18 
L 269.695653 213.18 
L 277.705642 213.18 
" clip-path="url(#p0b99c58fb2)" style="fill: none; stroke-dasharray: 2,3.3; stroke-dashoffset: 0; stroke: #000000; stroke-width: 2"/>
   </g>
   <g id="line2d_6">
    <path d="M 249.985686 177.18 
L 222.985686 177.18 
L 195.985686 177.18 
" clip-path="url(#p0b99c58fb2)" style="fill: none; stroke: #000000; stroke-width: 2; stroke-linecap: round"/>
   </g>
   <g id="line2d_7">
    <path d="M 195.985686 177.18 
L 159.985686 177.18 
L 159.985686 186.18 
L 123.985686 186.18 
L 123.985686 168.18 
L 159.985686 168.18 
L 159.985686 177.18 
M 123.985686 177.18 
L 87.985686 177.18 
" clip-path="url(#p0b99c58fb2)" style="fill: none; stroke: #000000; stroke-width: 2; stroke-linecap: round"/>
   </g>
   <g id="line2d_8">
    <path d="M 159.985686 177.18 
L 123.985686 177.18 
" clip-path="url(#p0b99c58fb2)" style="fill: none; stroke: #000000; stroke-width: 2; stroke-linecap: round"/>
   </g>
   <g id="line2d_9">
    <path d="M 87.985686 177.18 
L 73.585686 177.18 
L 59.185686 177.18 
" clip-path="url(#p0b99c58fb2)" style="fill: none; stroke: #000000; stroke-width: 2; stroke-linecap: round"/>
   </g>
   <g id="line2d_10">
    <path d="M 59.185686 177.18 
L 59.185686 166.38 
L 59.185686 155.58 
" clip-path="url(#p0b99c58fb2)" style="fill: none; stroke: #000000; stroke-width: 2; stroke-linecap: round"/>
   </g>
   <g id="line2d_11">
    <path d="M 249.985686 249.18 
L 231.985686 249.18 
L 213.985686 249.18 
" clip-path="url(#p0b99c58fb2)" style="fill: none; stroke: #000000; stroke-width: 2; stroke-linecap: round"/>
   </g>
   <g id="line2d_12">
    <path d="M 213.985686 249.18 
L 177.985686 249.18 
M 169.345686 252.78 
L 149.185686 265.38 
M 141.985686 249.18 
L 105.985686 249.18 
" clip-path="url(#p0b99c58fb2)" style="fill: none; stroke: #000000; stroke-width: 2; stroke-linecap: round"/>
   </g>
   <g id="line2d_13">
    <path d="M 105.985686 249.18 
L 100.585686 249.18 
L 95.185686 249.18 
" clip-path="url(#p0b99c58fb2)" style="fill: none; stroke: #000000; stroke-width: 2; stroke-linecap: round"/>
   </g>
   <g id="line2d_14">
    <path d="M 95.185686 249.18 
L 95.185686 263.58 
L 86.185686 263.58 
L 104.185686 263.58 
M 88.885686 267.9 
L 101.485686 267.9 
M 93.385686 272.22 
L 96.985686 272.22 
" clip-path="url(#p0b99c58fb2)" style="fill: none; stroke: #000000; stroke-width: 2; stroke-linecap: round"/>
   </g>
   <g id="line2d_15">
    <path d="M 284.005664 177.18 
L 284.005664 151.98 
L 284.005664 126.78 
" clip-path="url(#p0b99c58fb2)" style="fill: none; stroke: #000000; stroke-width: 2; stroke-linecap: round"/>
   </g>
   <g id="line2d_16">
    <path d="M 284.005664 126.78 
L 273.205664 126.78 
L 262.405664 126.78 
" clip-path="url(#p0b99c58fb2)" style="fill: none; stroke: #000000; stroke-width: 2; stroke-linecap: round"/>
   </g>
   <g id="line2d_17">
    <path d="M 262.405664 126.78 
L 226.405664 126.78 
L 226.405664 135.78 
L 190.405664 135.78 
L 190.405664 117.78 
L 226.405664 117.78 
L 226.405664 126.78 
M 190.405664 126.78 
L 154.405664 126.78 
" clip-path="url(#p0b99c58fb2)" style="fill: none; stroke: #000000; stroke-width: 2; stroke-linecap: round"/>
   </g>
   <g id="line2d_18">
    <path d="M 226.405664 126.78 
L 190.405664 126.78 
" clip-path="url(#p0b99c58fb2)" style="fill: none; stroke: #000000; stroke-width: 2; stroke-linecap: round"/>
   </g>
   <g id="line2d_19">
    <path d="M 154.405664 126.78 
L 143.605664 126.78 
L 132.805664 126.78 
" clip-path="url(#p0b99c58fb2)" style="fill: none; stroke: #000000; stroke-width: 2; stroke-linecap: round"/>
   </g>
   <g id="line2d_20">
    <path d="M 132.805664 126.78 
L 111.205664 126.78 
L 89.605664 126.78 
" clip-path="url(#p0b99c58fb2)" style="fill: none; stroke: #000000; stroke-width: 2; stroke-linecap: round"/>
   </g>
   <g id="line2d_21">
    <path d="M 89.605664 126.78 
L 89.605664 82.905 
M 89.605664 62.655 
L 89.605664 18.78 
" clip-path="url(#p0b99c58fb2)" style="fill: none; stroke: #000000; stroke-width: 2; stroke-linecap: round"/>
   </g>
   <g id="line2d_22">
    <path d="M 103.105664 62.655 
L 76.105664 62.655 
" clip-path="url(#p0b99c58fb2)" style="fill: none; stroke: #000000; stroke-width: 2; stroke-linecap: round"/>
   </g>
   <g id="line2d_23">
    <path d="M 96.355664 69.405 
L 82.855664 69.405 
" clip-path="url(#p0b99c58fb2)" style="fill: none; stroke: #000000; stroke-width: 2; stroke-linecap: round"/>
   </g>
   <g id="line2d_24">
    <path d="M 103.105664 76.155 
L 76.105664 76.155 
" clip-path="url(#p0b99c58fb2)" style="fill: none; stroke: #000000; stroke-width: 2; stroke-linecap: round"/>
   </g>
   <g id="line2d_25">
    <path d="M 96.355664 82.905 
L 82.855664 82.905 
" clip-path="url(#p0b99c58fb2)" style="fill: none; stroke: #000000; stroke-width: 2; stroke-linecap: round"/>
   </g>
   <g id="line2d_26">
    <path d="M 132.805664 126.78 
L 132.805664 191.58 
L 132.805664 256.38 
" clip-path="url(#p0b99c58fb2)" style="fill: none; stroke: #000000; stroke-width: 2; stroke-linecap: round"/>
   </g>
   <g id="line2d_27">
    <path d="M 132.805664 256.38 
L 132.805664 270.78 
L 123.805664 270.78 
L 141.805664 270.78 
M 126.505664 275.1 
L 139.105664 275.1 
M 131.005664 279.42 
L 134.605664 279.42 
" clip-path="url(#p0b99c58fb2)" style="fill: none; stroke: #000000; stroke-width: 2; stroke-linecap: round"/>
   </g>
   <g id="line2d_28">
    <path d="M 284.005664 249.18 
L 298.405664 249.18 
L 312.805664 249.18 
" clip-path="url(#p0b99c58fb2)" style="fill: none; stroke: #000000; stroke-width: 2; stroke-linecap: round"/>
   </g>
   <g id="line2d_29">
    <path d="M 312.805664 249.18 
L 340.885664 249.18 
L 340.885664 249.18 
M 392.725664 249.18 
L 392.725664 249.18 
L 420.805664 249.18 
" clip-path="url(#p0b99c58fb2)" style="fill: none; stroke: #000000; stroke-width: 2; stroke-linecap: round"/>
   </g>
   <g id="line2d_30">
    <path d="M 348.805664 257.1 
L 340.885664 257.1 
L 340.885664 241.26 
L 348.805664 241.26 
" clip-path="url(#p0b99c58fb2)" style="fill: none; stroke: #000000; stroke-width: 2; stroke-linecap: round"/>
   </g>
   <g id="line2d_31">
    <path d="M 384.805664 257.1 
L 392.725664 257.1 
L 392.725664 241.26 
L 384.805664 241.26 
" clip-path="url(#p0b99c58fb2)" style="fill: none; stroke: #000000; stroke-width: 2; stroke-linecap: round"/>
   </g>
   <g id="line2d_32">
    <path d="M 420.805664 249.18 
L 426.205664 249.18 
L 431.605664 249.18 
" clip-path="url(#p0b99c58fb2)" style="fill: none; stroke: #000000; stroke-width: 2; stroke-linecap: round"/>
   </g>
   <g id="line2d_33">
    <path d="M 431.605664 249.18 
L 431.605664 263.58 
L 422.605664 263.58 
L 440.605664 263.58 
M 425.305664 267.9 
L 437.905664 267.9 
M 429.805664 272.22 
L 433.405664 272.22 
" clip-path="url(#p0b99c58fb2)" style="fill: none; stroke: #000000; stroke-width: 2; stroke-linecap: round"/>
   </g>
   <g id="patch_8">
    <path d="M 284.005664 203.82 
C 285.151341 203.82 286.250249 203.364818 287.060365 202.554701 
C 287.870482 201.744585 288.325664 200.645677 288.325664 199.5 
C 288.325664 198.354323 287.870482 197.255415 287.060365 196.445299 
C 286.250249 195.635182 285.151341 195.18 284.005664 195.18 
C 282.859987 195.18 281.761079 195.635182 280.950963 196.445299 
C 280.140847 197.255415 279.685664 198.354323 279.685664 199.5 
C 279.685664 200.645677 280.140847 201.744585 280.950963 202.554701 
C 281.761079 203.364818 282.859987 203.82 284.005664 203.82 
z
" clip-path="url(#p0b99c58fb2)" style="fill: #ffffff; stroke: #000000; stroke-width: 2; stroke-linejoin: miter"/>
   </g>
   <g id="patch_9">
    <path d="M 284.005664 231.18 
C 285.151341 231.18 286.250249 230.724818 287.060365 229.914701 
C 287.870482 229.104585 288.325664 228.005677 288.325664 226.86 
C 288.325664 225.714323 287.870482 224.615415 287.060365 223.805299 
C 286.250249 222.995182 285.151341 222.54 284.005664 222.54 
C 282.859987 222.54 281.761079 222.995182 280.950963 223.805299 
C 280.140847 224.615415 279.685664 225.714323 279.685664 226.86 
C 279.685664 228.005677 280.140847 229.104585 280.950963 229.914701 
C 281.761079 230.724818 282.859987 231.18 284.005664 231.18 
z
" clip-path="url(#p0b99c58fb2)" style="fill: #ffffff; stroke: #000000; stroke-width: 2; stroke-linejoin: miter"/>
   </g>
   <g id="text_1">
    <!-- RELAY_FAN -->
    <g transform="translate(246.012316 160.419727) scale(0.105 -0.105)">
     <defs>
      <path id="DejaVuSans-35" d="M 2841 2188 
Q 3044 2119 3236 1894 
Q 3428 1669 3622 1275 
L 4263 0 
L 3584 0 
L 2988 1197 
Q 2756 1666 2539 1819 
Q 2322 1972 1947 1972 
L 1259 1972 
L 1259 0 
L 628 0 
L 628 4666 
L 2053 4666 
Q 2853 4666 3247 4331 
Q 3641 3997 3641 3322 
Q 3641 2881 3436 2590 
Q 3231 2300 2841 2188 
z
M 1259 4147 
L 1259 2491 
L 2053 2491 
Q 2509 2491 2742 2702 
Q 2975 2913 2975 3322 
Q 2975 3731 2742 3939 
Q 2509 4147 2053 4147 
L 1259 4147 
z
" transform="scale(0.015625)"/>
      <path id="DejaVuSans-28" d="M 628 4666 
L 3578 4666 
L 3578 4134 
L 1259 4134 
L 1259 2753 
L 3481 2753 
L 3481 2222 
L 1259 2222 
L 1259 531 
L 3634 531 
L 3634 0 
L 628 0 
L 628 4666 
z
" transform="scale(0.015625)"/>
      <path id="DejaVuSans-2f" d="M 628 4666 
L 1259 4666 
L 1259 531 
L 3531 531 
L 3531 0 
L 628 0 
L 628 4666 
z
" transform="scale(0.015625)"/>
      <path id="DejaVuSans-24" d="M 2188 4044 
L 1331 1722 
L 3047 1722 
L 2188 4044 
z
M 1831 4666 
L 2547 4666 
L 4325 0 
L 3669 0 
L 3244 1197 
L 1141 1197 
L 716 0 
L 50 0 
L 1831 4666 
z
" transform="scale(0.015625)"/>
      <path id="DejaVuSans-3c" d="M -13 4666 
L 666 4666 
L 1959 2747 
L 3244 4666 
L 3922 4666 
L 2272 2222 
L 2272 0 
L 1638 0 
L 1638 2222 
L -13 4666 
z
" transform="scale(0.015625)"/>
      <path id="DejaVuSans-42" d="M 3263 -1063 
L 3263 -1509 
L -63 -1509 
L -63 -1063 
L 3263 -1063 
z
" transform="scale(0.015625)"/>
      <path id="DejaVuSans-29" d="M 628 4666 
L 3309 4666 
L 3309 4134 
L 1259 4134 
L 1259 2759 
L 3109 2759 
L 3109 2228 
L 1259 2228 
L 1259 0 
L 628 0 
L 628 4666 
z
" transform="scale(0.015625)"/>
      <path id="DejaVuSans-31" d="M 628 4666 
L 1478 4666 
L 3547 763 
L 3547 4666 
L 4159 4666 
L 4159 0 
L 3309 0 
L 1241 3903 
L 1241 0 
L 628 0 
L 628 4666 
z
" transform="scale(0.015625)"/>
     </defs>
     <use xlink:href="#DejaVuSans-35"/>
     <use xlink:href="#DejaVuSans-28" transform="translate(69.484375 0)"/>
     <use xlink:href="#DejaVuSans-2f" transform="translate(132.671875 0)"/>
     <use xlink:href="#DejaVuSans-24" transform="translate(190.6875 0)"/>
     <use xlink:href="#DejaVuSans-3c" transform="translate(251.328125 0)"/>
     <use xlink:href="#DejaVuSans-42" transform="translate(312.40625 0)"/>
     <use xlink:href="#DejaVuSans-29" transform="translate(362.40625 0)"/>
     <use xlink:href="#DejaVuSans-24" transform="translate(410.75 0)"/>
     <use xlink:href="#DejaVuSans-31" transform="translate(479.15625 0)"/>
    </g>
    <!-- (Bosch ISO mini) -->
    <g transform="translate(231.526417 171.626836) scale(0.105 -0.105)">
     <defs>
      <path id="DejaVuSans-b" d="M 1984 4856 
Q 1566 4138 1362 3434 
Q 1159 2731 1159 2009 
Q 1159 1288 1364 580 
Q 1569 -128 1984 -844 
L 1484 -844 
Q 1016 -109 783 600 
Q 550 1309 550 2009 
Q 550 2706 781 3412 
Q 1013 4119 1484 4856 
L 1984 4856 
z
" transform="scale(0.015625)"/>
      <path id="DejaVuSans-25" d="M 1259 2228 
L 1259 519 
L 2272 519 
Q 2781 519 3026 730 
Q 3272 941 3272 1375 
Q 3272 1813 3026 2020 
Q 2781 2228 2272 2228 
L 1259 2228 
z
M 1259 4147 
L 1259 2741 
L 2194 2741 
Q 2656 2741 2882 2914 
Q 3109 3088 3109 3444 
Q 3109 3797 2882 3972 
Q 2656 4147 2194 4147 
L 1259 4147 
z
M 628 4666 
L 2241 4666 
Q 2963 4666 3353 4366 
Q 3744 4066 3744 3513 
Q 3744 3084 3544 2831 
Q 3344 2578 2956 2516 
Q 3422 2416 3680 2098 
Q 3938 1781 3938 1306 
Q 3938 681 3513 340 
Q 3088 0 2303 0 
L 628 0 
L 628 4666 
z
" transform="scale(0.015625)"/>
      <path id="DejaVuSans-52" d="M 1959 3097 
Q 1497 3097 1228 2736 
Q 959 2375 959 1747 
Q 959 1119 1226 758 
Q 1494 397 1959 397 
Q 2419 397 2687 759 
Q 2956 1122 2956 1747 
Q 2956 2369 2687 2733 
Q 2419 3097 1959 3097 
z
M 1959 3584 
Q 2709 3584 3137 3096 
Q 3566 2609 3566 1747 
Q 3566 888 3137 398 
Q 2709 -91 1959 -91 
Q 1206 -91 779 398 
Q 353 888 353 1747 
Q 353 2609 779 3096 
Q 1206 3584 1959 3584 
z
" transform="scale(0.015625)"/>
      <path id="DejaVuSans-56" d="M 2834 3397 
L 2834 2853 
Q 2591 2978 2328 3040 
Q 2066 3103 1784 3103 
Q 1356 3103 1142 2972 
Q 928 2841 928 2578 
Q 928 2378 1081 2264 
Q 1234 2150 1697 2047 
L 1894 2003 
Q 2506 1872 2764 1633 
Q 3022 1394 3022 966 
Q 3022 478 2636 193 
Q 2250 -91 1575 -91 
Q 1294 -91 989 -36 
Q 684 19 347 128 
L 347 722 
Q 666 556 975 473 
Q 1284 391 1588 391 
Q 1994 391 2212 530 
Q 2431 669 2431 922 
Q 2431 1156 2273 1281 
Q 2116 1406 1581 1522 
L 1381 1569 
Q 847 1681 609 1914 
Q 372 2147 372 2553 
Q 372 3047 722 3315 
Q 1072 3584 1716 3584 
Q 2034 3584 2315 3537 
Q 2597 3491 2834 3397 
z
" transform="scale(0.015625)"/>
      <path id="DejaVuSans-46" d="M 3122 3366 
L 3122 2828 
Q 2878 2963 2633 3030 
Q 2388 3097 2138 3097 
Q 1578 3097 1268 2742 
Q 959 2388 959 1747 
Q 959 1106 1268 751 
Q 1578 397 2138 397 
Q 2388 397 2633 464 
Q 2878 531 3122 666 
L 3122 134 
Q 2881 22 2623 -34 
Q 2366 -91 2075 -91 
Q 1284 -91 818 406 
Q 353 903 353 1747 
Q 353 2603 823 3093 
Q 1294 3584 2113 3584 
Q 2378 3584 2631 3529 
Q 2884 3475 3122 3366 
z
" transform="scale(0.015625)"/>
      <path id="DejaVuSans-4b" d="M 3513 2113 
L 3513 0 
L 2938 0 
L 2938 2094 
Q 2938 2591 2744 2837 
Q 2550 3084 2163 3084 
Q 1697 3084 1428 2787 
Q 1159 2491 1159 1978 
L 1159 0 
L 581 0 
L 581 4863 
L 1159 4863 
L 1159 2956 
Q 1366 3272 1645 3428 
Q 1925 3584 2291 3584 
Q 2894 3584 3203 3211 
Q 3513 2838 3513 2113 
z
" transform="scale(0.015625)"/>
      <path id="DejaVuSans-3" transform="scale(0.015625)"/>
      <path id="DejaVuSans-2c" d="M 628 4666 
L 1259 4666 
L 1259 0 
L 628 0 
L 628 4666 
z
" transform="scale(0.015625)"/>
      <path id="DejaVuSans-36" d="M 3425 4513 
L 3425 3897 
Q 3066 4069 2747 4153 
Q 2428 4238 2131 4238 
Q 1616 4238 1336 4038 
Q 1056 3838 1056 3469 
Q 1056 3159 1242 3001 
Q 1428 2844 1947 2747 
L 2328 2669 
Q 3034 2534 3370 2195 
Q 3706 1856 3706 1288 
Q 3706 609 3251 259 
Q 2797 -91 1919 -91 
Q 1588 -91 1214 -16 
Q 841 59 441 206 
L 441 856 
Q 825 641 1194 531 
Q 1563 422 1919 422 
Q 2459 422 2753 634 
Q 3047 847 3047 1241 
Q 3047 1584 2836 1778 
Q 2625 1972 2144 2069 
L 1759 2144 
Q 1053 2284 737 2584 
Q 422 2884 422 3419 
Q 422 4038 858 4394 
Q 1294 4750 2059 4750 
Q 2388 4750 2728 4690 
Q 3069 4631 3425 4513 
z
" transform="scale(0.015625)"/>
      <path id="DejaVuSans-32" d="M 2522 4238 
Q 1834 4238 1429 3725 
Q 1025 3213 1025 2328 
Q 1025 1447 1429 934 
Q 1834 422 2522 422 
Q 3209 422 3611 934 
Q 4013 1447 4013 2328 
Q 4013 3213 3611 3725 
Q 3209 4238 2522 4238 
z
M 2522 4750 
Q 3503 4750 4090 4092 
Q 4678 3434 4678 2328 
Q 4678 1225 4090 567 
Q 3503 -91 2522 -91 
Q 1538 -91 948 565 
Q 359 1222 359 2328 
Q 359 3434 948 4092 
Q 1538 4750 2522 4750 
z
" transform="scale(0.015625)"/>
      <path id="DejaVuSans-50" d="M 3328 2828 
Q 3544 3216 3844 3400 
Q 4144 3584 4550 3584 
Q 5097 3584 5394 3201 
Q 5691 2819 5691 2113 
L 5691 0 
L 5113 0 
L 5113 2094 
Q 5113 2597 4934 2840 
Q 4756 3084 4391 3084 
Q 3944 3084 3684 2787 
Q 3425 2491 3425 1978 
L 3425 0 
L 2847 0 
L 2847 2094 
Q 2847 2600 2669 2842 
Q 2491 3084 2119 3084 
Q 1678 3084 1418 2786 
Q 1159 2488 1159 1978 
L 1159 0 
L 581 0 
L 581 3500 
L 1159 3500 
L 1159 2956 
Q 1356 3278 1631 3431 
Q 1906 3584 2284 3584 
Q 2666 3584 2933 3390 
Q 3200 3197 3328 2828 
z
" transform="scale(0.015625)"/>
      <path id="DejaVuSans-4c" d="M 603 3500 
L 1178 3500 
L 1178 0 
L 603 0 
L 603 3500 
z
M 603 4863 
L 1178 4863 
L 1178 4134 
L 603 4134 
L 603 4863 
z
" transform="scale(0.015625)"/>
      <path id="DejaVuSans-51" d="M 3513 2113 
L 3513 0 
L 2938 0 
L 2938 2094 
Q 2938 2591 2744 2837 
Q 2550 3084 2163 3084 
Q 1697 3084 1428 2787 
Q 1159 2491 1159 1978 
L 1159 0 
L 581 0 
L 581 3500 
L 1159 3500 
L 1159 2956 
Q 1366 3272 1645 3428 
Q 1925 3584 2291 3584 
Q 2894 3584 3203 3211 
Q 3513 2838 3513 2113 
z
" transform="scale(0.015625)"/>
      <path id="DejaVuSans-c" d="M 513 4856 
L 1013 4856 
Q 1481 4119 1714 3412 
Q 1947 2706 1947 2009 
Q 1947 1309 1714 600 
Q 1481 -109 1013 -844 
L 513 -844 
Q 928 -128 1133 580 
Q 1338 1288 1338 2009 
Q 1338 2731 1133 3434 
Q 928 4138 513 4856 
z
" transform="scale(0.015625)"/>
     </defs>
     <use xlink:href="#DejaVuSans-b"/>
     <use xlink:href="#DejaVuSans-25" transform="translate(39.015625 0)"/>
     <use xlink:href="#DejaVuSans-52" transform="translate(107.625 0)"/>
     <use xlink:href="#DejaVuSans-56" transform="translate(168.8125 0)"/>
     <use xlink:href="#DejaVuSans-46" transform="translate(220.90625 0)"/>
     <use xlink:href="#DejaVuSans-4b" transform="translate(275.890625 0)"/>
     <use xlink:href="#DejaVuSans-3" transform="translate(339.265625 0)"/>
     <use xlink:href="#DejaVuSans-2c" transform="translate(371.046875 0)"/>
     <use xlink:href="#DejaVuSans-36" transform="translate(400.546875 0)"/>
     <use xlink:href="#DejaVuSans-32" transform="translate(464.03125 0)"/>
     <use xlink:href="#DejaVuSans-3" transform="translate(542.75 0)"/>
     <use xlink:href="#DejaVuSans-50" transform="translate(574.53125 0)"/>
     <use xlink:href="#DejaVuSans-4c" transform="translate(671.9375 0)"/>
     <use xlink:href="#DejaVuSans-51" transform="translate(699.71875 0)"/>
     <use xlink:href="#DejaVuSans-4c" transform="translate(763.09375 0)"/>
     <use xlink:href="#DejaVuSans-c" transform="translate(790.875 0)"/>
    </g>
   </g>
   <g id="text_2">
    <!-- F3 — 5A -->
    <g transform="translate(120.107132 152.651836) scale(0.105 -0.105)">
     <defs>
      <path id="DejaVuSans-16" d="M 2597 2516 
Q 3050 2419 3304 2112 
Q 3559 1806 3559 1356 
Q 3559 666 3084 287 
Q 2609 -91 1734 -91 
Q 1441 -91 1130 -33 
Q 819 25 488 141 
L 488 750 
Q 750 597 1062 519 
Q 1375 441 1716 441 
Q 2309 441 2620 675 
Q 2931 909 2931 1356 
Q 2931 1769 2642 2001 
Q 2353 2234 1838 2234 
L 1294 2234 
L 1294 2753 
L 1863 2753 
Q 2328 2753 2575 2939 
Q 2822 3125 2822 3475 
Q 2822 3834 2567 4026 
Q 2313 4219 1838 4219 
Q 1578 4219 1281 4162 
Q 984 4106 628 3988 
L 628 4550 
Q 988 4650 1302 4700 
Q 1616 4750 1894 4750 
Q 2613 4750 3031 4423 
Q 3450 4097 3450 3541 
Q 3450 3153 3228 2886 
Q 3006 2619 2597 2516 
z
" transform="scale(0.015625)"/>
      <path id="DejaVuSans-af6" d="M 313 1978 
L 6088 1978 
L 6088 1528 
L 313 1528 
L 313 1978 
z
" transform="scale(0.015625)"/>
      <path id="DejaVuSans-18" d="M 691 4666 
L 3169 4666 
L 3169 4134 
L 1269 4134 
L 1269 2991 
Q 1406 3038 1543 3061 
Q 1681 3084 1819 3084 
Q 2600 3084 3056 2656 
Q 3513 2228 3513 1497 
Q 3513 744 3044 326 
Q 2575 -91 1722 -91 
Q 1428 -91 1123 -41 
Q 819 9 494 109 
L 494 744 
Q 775 591 1075 516 
Q 1375 441 1709 441 
Q 2250 441 2565 725 
Q 2881 1009 2881 1497 
Q 2881 1984 2565 2268 
Q 2250 2553 1709 2553 
Q 1456 2553 1204 2497 
Q 953 2441 691 2322 
L 691 4666 
z
" transform="scale(0.015625)"/>
     </defs>
     <use xlink:href="#DejaVuSans-29"/>
     <use xlink:href="#DejaVuSans-16" transform="translate(57.515625 0)"/>
     <use xlink:href="#DejaVuSans-3" transform="translate(121.140625 0)"/>
     <use xlink:href="#DejaVuSans-af6" transform="translate(152.921875 0)"/>
     <use xlink:href="#DejaVuSans-3" transform="translate(252.921875 0)"/>
     <use xlink:href="#DejaVuSans-18" transform="translate(284.703125 0)"/>
     <use xlink:href="#DejaVuSans-24" transform="translate(348.328125 0)"/>
    </g>
    <!-- (IGN rail) -->
    <g transform="translate(118.383655 162.626836) scale(0.105 -0.105)">
     <defs>
      <path id="DejaVuSans-2a" d="M 3809 666 
L 3809 1919 
L 2778 1919 
L 2778 2438 
L 4434 2438 
L 4434 434 
Q 4069 175 3628 42 
Q 3188 -91 2688 -91 
Q 1594 -91 976 548 
Q 359 1188 359 2328 
Q 359 3472 976 4111 
Q 1594 4750 2688 4750 
Q 3144 4750 3555 4637 
Q 3966 4525 4313 4306 
L 4313 3634 
Q 3963 3931 3569 4081 
Q 3175 4231 2741 4231 
Q 1884 4231 1454 3753 
Q 1025 3275 1025 2328 
Q 1025 1384 1454 906 
Q 1884 428 2741 428 
Q 3075 428 3337 486 
Q 3600 544 3809 666 
z
" transform="scale(0.015625)"/>
      <path id="DejaVuSans-55" d="M 2631 2963 
Q 2534 3019 2420 3045 
Q 2306 3072 2169 3072 
Q 1681 3072 1420 2755 
Q 1159 2438 1159 1844 
L 1159 0 
L 581 0 
L 581 3500 
L 1159 3500 
L 1159 2956 
Q 1341 3275 1631 3429 
Q 1922 3584 2338 3584 
Q 2397 3584 2469 3576 
Q 2541 3569 2628 3553 
L 2631 2963 
z
" transform="scale(0.015625)"/>
      <path id="DejaVuSans-44" d="M 2194 1759 
Q 1497 1759 1228 1600 
Q 959 1441 959 1056 
Q 959 750 1161 570 
Q 1363 391 1709 391 
Q 2188 391 2477 730 
Q 2766 1069 2766 1631 
L 2766 1759 
L 2194 1759 
z
M 3341 1997 
L 3341 0 
L 2766 0 
L 2766 531 
Q 2569 213 2275 61 
Q 1981 -91 1556 -91 
Q 1019 -91 701 211 
Q 384 513 384 1019 
Q 384 1609 779 1909 
Q 1175 2209 1959 2209 
L 2766 2209 
L 2766 2266 
Q 2766 2663 2505 2880 
Q 2244 3097 1772 3097 
Q 1472 3097 1187 3025 
Q 903 2953 641 2809 
L 641 3341 
Q 956 3463 1253 3523 
Q 1550 3584 1831 3584 
Q 2591 3584 2966 3190 
Q 3341 2797 3341 1997 
z
" transform="scale(0.015625)"/>
      <path id="DejaVuSans-4f" d="M 603 4863 
L 1178 4863 
L 1178 0 
L 603 0 
L 603 4863 
z
" transform="scale(0.015625)"/>
     </defs>
     <use xlink:href="#DejaVuSans-b"/>
     <use xlink:href="#DejaVuSans-2c" transform="translate(39.015625 0)"/>
     <use xlink:href="#DejaVuSans-2a" transform="translate(68.515625 0)"/>
     <use xlink:href="#DejaVuSans-31" transform="translate(146 0)"/>
     <use xlink:href="#DejaVuSans-3" transform="translate(220.8125 0)"/>
     <use xlink:href="#DejaVuSans-55" transform="translate(252.59375 0)"/>
     <use xlink:href="#DejaVuSans-44" transform="translate(293.703125 0)"/>
     <use xlink:href="#DejaVuSans-4c" transform="translate(354.984375 0)"/>
     <use xlink:href="#DejaVuSans-4f" transform="translate(382.765625 0)"/>
     <use xlink:href="#DejaVuSans-c" transform="translate(410.546875 0)"/>
    </g>
   </g>
   <g id="text_3">
    <!-- IGN +12V -->
    <g transform="translate(29.701546 150.551836) scale(0.105 -0.105)">
     <defs>
      <path id="DejaVuSans-e" d="M 2944 4013 
L 2944 2272 
L 4684 2272 
L 4684 1741 
L 2944 1741 
L 2944 0 
L 2419 0 
L 2419 1741 
L 678 1741 
L 678 2272 
L 2419 2272 
L 2419 4013 
L 2944 4013 
z
" transform="scale(0.015625)"/>
      <path id="DejaVuSans-14" d="M 794 531 
L 1825 531 
L 1825 4091 
L 703 3866 
L 703 4441 
L 1819 4666 
L 2450 4666 
L 2450 531 
L 3481 531 
L 3481 0 
L 794 0 
L 794 531 
z
" transform="scale(0.015625)"/>
      <path id="DejaVuSans-15" d="M 1228 531 
L 3431 531 
L 3431 0 
L 469 0 
L 469 531 
Q 828 903 1448 1529 
Q 2069 2156 2228 2338 
Q 2531 2678 2651 2914 
Q 2772 3150 2772 3378 
Q 2772 3750 2511 3984 
Q 2250 4219 1831 4219 
Q 1534 4219 1204 4116 
Q 875 4013 500 3803 
L 500 4441 
Q 881 4594 1212 4672 
Q 1544 4750 1819 4750 
Q 2544 4750 2975 4387 
Q 3406 4025 3406 3419 
Q 3406 3131 3298 2873 
Q 3191 2616 2906 2266 
Q 2828 2175 2409 1742 
Q 1991 1309 1228 531 
z
" transform="scale(0.015625)"/>
      <path id="DejaVuSans-39" d="M 1831 0 
L 50 4666 
L 709 4666 
L 2188 738 
L 3669 4666 
L 4325 4666 
L 2547 0 
L 1831 0 
z
" transform="scale(0.015625)"/>
     </defs>
     <use xlink:href="#DejaVuSans-2c"/>
     <use xlink:href="#DejaVuSans-2a" transform="translate(29.5 0)"/>
     <use xlink:href="#DejaVuSans-31" transform="translate(106.984375 0)"/>
     <use xlink:href="#DejaVuSans-3" transform="translate(181.796875 0)"/>
     <use xlink:href="#DejaVuSans-e" transform="translate(213.578125 0)"/>
     <use xlink:href="#DejaVuSans-14" transform="translate(297.375 0)"/>
     <use xlink:href="#DejaVuSans-15" transform="translate(361 0)"/>
     <use xlink:href="#DejaVuSans-39" transform="translate(424.625 0)"/>
    </g>
   </g>
   <g id="patch_10">
    <path d="M 173.665686 253.5 
C 174.811364 253.5 175.910271 253.044818 176.720388 252.234701 
C 177.530504 251.424585 177.985686 250.325677 177.985686 249.18 
C 177.985686 248.034323 177.530504 246.935415 176.720388 246.125299 
C 175.910271 245.315182 174.811364 244.86 173.665686 244.86 
C 172.520009 244.86 171.421101 245.315182 170.610985 246.125299 
C 169.800869 246.935415 169.345686 248.034323 169.345686 249.18 
C 169.345686 250.325677 169.800869 251.424585 170.610985 252.234701 
C 171.421101 253.044818 172.520009 253.5 173.665686 253.5 
z
" clip-path="url(#p0b99c58fb2)" style="fill: #ffffff; stroke: #000000; stroke-width: 2; stroke-linejoin: miter"/>
   </g>
   <g id="patch_11">
    <path d="M 146.305686 253.5 
C 147.451364 253.5 148.550271 253.044818 149.360388 252.234701 
C 150.170504 251.424585 150.625686 250.325677 150.625686 249.18 
C 150.625686 248.034323 150.170504 246.935415 149.360388 246.125299 
C 148.550271 245.315182 147.451364 244.86 146.305686 244.86 
C 145.160009 244.86 144.061101 245.315182 143.250985 246.125299 
C 142.440869 246.935415 141.985686 248.034323 141.985686 249.18 
C 141.985686 250.325677 142.440869 251.424585 143.250985 252.234701 
C 144.061101 253.044818 145.160009 253.5 146.305686 253.5 
z
" clip-path="url(#p0b99c58fb2)" style="fill: #ffffff; stroke: #000000; stroke-width: 2; stroke-linejoin: miter"/>
   </g>
   <g id="text_4">
    <!-- MaxxECU -->
    <g transform="translate(135.198304 278.051836) scale(0.105 -0.105)">
     <defs>
      <path id="DejaVuSans-30" d="M 628 4666 
L 1569 4666 
L 2759 1491 
L 3956 4666 
L 4897 4666 
L 4897 0 
L 4281 0 
L 4281 4097 
L 3078 897 
L 2444 897 
L 1241 4097 
L 1241 0 
L 628 0 
L 628 4666 
z
" transform="scale(0.015625)"/>
      <path id="DejaVuSans-5b" d="M 3513 3500 
L 2247 1797 
L 3578 0 
L 2900 0 
L 1881 1375 
L 863 0 
L 184 0 
L 1544 1831 
L 300 3500 
L 978 3500 
L 1906 2253 
L 2834 3500 
L 3513 3500 
z
" transform="scale(0.015625)"/>
      <path id="DejaVuSans-26" d="M 4122 4306 
L 4122 3641 
Q 3803 3938 3442 4084 
Q 3081 4231 2675 4231 
Q 1875 4231 1450 3742 
Q 1025 3253 1025 2328 
Q 1025 1406 1450 917 
Q 1875 428 2675 428 
Q 3081 428 3442 575 
Q 3803 722 4122 1019 
L 4122 359 
Q 3791 134 3420 21 
Q 3050 -91 2638 -91 
Q 1578 -91 968 557 
Q 359 1206 359 2328 
Q 359 3453 968 4101 
Q 1578 4750 2638 4750 
Q 3056 4750 3426 4639 
Q 3797 4528 4122 4306 
z
" transform="scale(0.015625)"/>
      <path id="DejaVuSans-38" d="M 556 4666 
L 1191 4666 
L 1191 1831 
Q 1191 1081 1462 751 
Q 1734 422 2344 422 
Q 2950 422 3222 751 
Q 3494 1081 3494 1831 
L 3494 4666 
L 4128 4666 
L 4128 1753 
Q 4128 841 3676 375 
Q 3225 -91 2344 -91 
Q 1459 -91 1007 375 
Q 556 841 556 1753 
L 556 4666 
z
" transform="scale(0.015625)"/>
     </defs>
     <use xlink:href="#DejaVuSans-30"/>
     <use xlink:href="#DejaVuSans-44" transform="translate(86.28125 0)"/>
     <use xlink:href="#DejaVuSans-5b" transform="translate(147.5625 0)"/>
     <use xlink:href="#DejaVuSans-5b" transform="translate(206.75 0)"/>
     <use xlink:href="#DejaVuSans-28" transform="translate(265.9375 0)"/>
     <use xlink:href="#DejaVuSans-26" transform="translate(329.125 0)"/>
     <use xlink:href="#DejaVuSans-38" transform="translate(398.953125 0)"/>
    </g>
    <!-- GPO 6 -->
    <g transform="translate(143.610608 288.551836) scale(0.105 -0.105)">
     <defs>
      <path id="DejaVuSans-33" d="M 1259 4147 
L 1259 2394 
L 2053 2394 
Q 2494 2394 2734 2622 
Q 2975 2850 2975 3272 
Q 2975 3691 2734 3919 
Q 2494 4147 2053 4147 
L 1259 4147 
z
M 628 4666 
L 2053 4666 
Q 2838 4666 3239 4311 
Q 3641 3956 3641 3272 
Q 3641 2581 3239 2228 
Q 2838 1875 2053 1875 
L 1259 1875 
L 1259 0 
L 628 0 
L 628 4666 
z
" transform="scale(0.015625)"/>
      <path id="DejaVuSans-19" d="M 2113 2584 
Q 1688 2584 1439 2293 
Q 1191 2003 1191 1497 
Q 1191 994 1439 701 
Q 1688 409 2113 409 
Q 2538 409 2786 701 
Q 3034 994 3034 1497 
Q 3034 2003 2786 2293 
Q 2538 2584 2113 2584 
z
M 3366 4563 
L 3366 3988 
Q 3128 4100 2886 4159 
Q 2644 4219 2406 4219 
Q 1781 4219 1451 3797 
Q 1122 3375 1075 2522 
Q 1259 2794 1537 2939 
Q 1816 3084 2150 3084 
Q 2853 3084 3261 2657 
Q 3669 2231 3669 1497 
Q 3669 778 3244 343 
Q 2819 -91 2113 -91 
Q 1303 -91 875 529 
Q 447 1150 447 2328 
Q 447 3434 972 4092 
Q 1497 4750 2381 4750 
Q 2619 4750 2861 4703 
Q 3103 4656 3366 4563 
z
" transform="scale(0.015625)"/>
     </defs>
     <use xlink:href="#DejaVuSans-2a"/>
     <use xlink:href="#DejaVuSans-33" transform="translate(77.484375 0)"/>
     <use xlink:href="#DejaVuSans-32" transform="translate(137.78125 0)"/>
     <use xlink:href="#DejaVuSans-3" transform="translate(216.5 0)"/>
     <use xlink:href="#DejaVuSans-19" transform="translate(248.28125 0)"/>
    </g>
   </g>
   <g id="text_5">
    <!--   86 -->
    <g transform="translate(246.385686 184.601836) scale(0.105 -0.105)">
     <defs>
      <path id="DejaVuSans-1b" d="M 2034 2216 
Q 1584 2216 1326 1975 
Q 1069 1734 1069 1313 
Q 1069 891 1326 650 
Q 1584 409 2034 409 
Q 2484 409 2743 651 
Q 3003 894 3003 1313 
Q 3003 1734 2745 1975 
Q 2488 2216 2034 2216 
z
M 1403 2484 
Q 997 2584 770 2862 
Q 544 3141 544 3541 
Q 544 4100 942 4425 
Q 1341 4750 2034 4750 
Q 2731 4750 3128 4425 
Q 3525 4100 3525 3541 
Q 3525 3141 3298 2862 
Q 3072 2584 2669 2484 
Q 3125 2378 3379 2068 
Q 3634 1759 3634 1313 
Q 3634 634 3220 271 
Q 2806 -91 2034 -91 
Q 1263 -91 848 271 
Q 434 634 434 1313 
Q 434 1759 690 2068 
Q 947 2378 1403 2484 
z
M 1172 3481 
Q 1172 3119 1398 2916 
Q 1625 2713 2034 2713 
Q 2441 2713 2670 2916 
Q 2900 3119 2900 3481 
Q 2900 3844 2670 4047 
Q 2441 4250 2034 4250 
Q 1625 4250 1398 4047 
Q 1172 3844 1172 3481 
z
" transform="scale(0.015625)"/>
     </defs>
     <use xlink:href="#DejaVuSans-3"/>
     <use xlink:href="#DejaVuSans-3" transform="translate(31.78125 0)"/>
     <use xlink:href="#DejaVuSans-1b" transform="translate(63.5625 0)"/>
     <use xlink:href="#DejaVuSans-19" transform="translate(127.1875 0)"/>
    </g>
   </g>
   <g id="text_6">
    <!--   85 -->
    <g transform="translate(246.385686 256.601836) scale(0.105 -0.105)">
     <use xlink:href="#DejaVuSans-3"/>
     <use xlink:href="#DejaVuSans-3" transform="translate(31.78125 0)"/>
     <use xlink:href="#DejaVuSans-1b" transform="translate(63.5625 0)"/>
     <use xlink:href="#DejaVuSans-18" transform="translate(127.1875 0)"/>
    </g>
   </g>
   <g id="text_7">
    <!-- F6 — 20A -->
    <g transform="translate(183.186797 102.251836) scale(0.105 -0.105)">
     <defs>
      <path id="DejaVuSans-13" d="M 2034 4250 
Q 1547 4250 1301 3770 
Q 1056 3291 1056 2328 
Q 1056 1369 1301 889 
Q 1547 409 2034 409 
Q 2525 409 2770 889 
Q 3016 1369 3016 2328 
Q 3016 3291 2770 3770 
Q 2525 4250 2034 4250 
z
M 2034 4750 
Q 2819 4750 3233 4129 
Q 3647 3509 3647 2328 
Q 3647 1150 3233 529 
Q 2819 -91 2034 -91 
Q 1250 -91 836 529 
Q 422 1150 422 2328 
Q 422 3509 836 4129 
Q 1250 4750 2034 4750 
z
" transform="scale(0.015625)"/>
     </defs>
     <use xlink:href="#DejaVuSans-29"/>
     <use xlink:href="#DejaVuSans-19" transform="translate(57.515625 0)"/>
     <use xlink:href="#DejaVuSans-3" transform="translate(121.140625 0)"/>
     <use xlink:href="#DejaVuSans-af6" transform="translate(152.921875 0)"/>
     <use xlink:href="#DejaVuSans-3" transform="translate(252.921875 0)"/>
     <use xlink:href="#DejaVuSans-15" transform="translate(284.703125 0)"/>
     <use xlink:href="#DejaVuSans-13" transform="translate(348.328125 0)"/>
     <use xlink:href="#DejaVuSans-24" transform="translate(411.953125 0)"/>
    </g>
    <!-- (batt rail) -->
    <g transform="translate(183.681445 112.226836) scale(0.105 -0.105)">
     <defs>
      <path id="DejaVuSans-45" d="M 3116 1747 
Q 3116 2381 2855 2742 
Q 2594 3103 2138 3103 
Q 1681 3103 1420 2742 
Q 1159 2381 1159 1747 
Q 1159 1113 1420 752 
Q 1681 391 2138 391 
Q 2594 391 2855 752 
Q 3116 1113 3116 1747 
z
M 1159 2969 
Q 1341 3281 1617 3432 
Q 1894 3584 2278 3584 
Q 2916 3584 3314 3078 
Q 3713 2572 3713 1747 
Q 3713 922 3314 415 
Q 2916 -91 2278 -91 
Q 1894 -91 1617 61 
Q 1341 213 1159 525 
L 1159 0 
L 581 0 
L 581 4863 
L 1159 4863 
L 1159 2969 
z
" transform="scale(0.015625)"/>
      <path id="DejaVuSans-57" d="M 1172 4494 
L 1172 3500 
L 2356 3500 
L 2356 3053 
L 1172 3053 
L 1172 1153 
Q 1172 725 1289 603 
Q 1406 481 1766 481 
L 2356 481 
L 2356 0 
L 1766 0 
Q 1100 0 847 248 
Q 594 497 594 1153 
L 594 3053 
L 172 3053 
L 172 3500 
L 594 3500 
L 594 4494 
L 1172 4494 
z
" transform="scale(0.015625)"/>
     </defs>
     <use xlink:href="#DejaVuSans-b"/>
     <use xlink:href="#DejaVuSans-45" transform="translate(39.015625 0)"/>
     <use xlink:href="#DejaVuSans-44" transform="translate(102.5 0)"/>
     <use xlink:href="#DejaVuSans-57" transform="translate(163.78125 0)"/>
     <use xlink:href="#DejaVuSans-57" transform="translate(202.984375 0)"/>
     <use xlink:href="#DejaVuSans-3" transform="translate(242.1875 0)"/>
     <use xlink:href="#DejaVuSans-55" transform="translate(273.96875 0)"/>
     <use xlink:href="#DejaVuSans-44" transform="translate(315.078125 0)"/>
     <use xlink:href="#DejaVuSans-4c" transform="translate(376.359375 0)"/>
     <use xlink:href="#DejaVuSans-4f" transform="translate(404.140625 0)"/>
     <use xlink:href="#DejaVuSans-c" transform="translate(431.921875 0)"/>
    </g>
   </g>
   <g id="text_8">
    <!-- 12V BATT -->
    <g transform="translate(64.558242 13.826484) scale(0.105 -0.105)">
     <defs>
      <path id="DejaVuSans-37" d="M -19 4666 
L 3928 4666 
L 3928 4134 
L 2272 4134 
L 2272 0 
L 1638 0 
L 1638 4134 
L -19 4134 
L -19 4666 
z
" transform="scale(0.015625)"/>
     </defs>
     <use xlink:href="#DejaVuSans-14"/>
     <use xlink:href="#DejaVuSans-15" transform="translate(63.625 0)"/>
     <use xlink:href="#DejaVuSans-39" transform="translate(127.25 0)"/>
     <use xlink:href="#DejaVuSans-3" transform="translate(195.65625 0)"/>
     <use xlink:href="#DejaVuSans-25" transform="translate(227.4375 0)"/>
     <use xlink:href="#DejaVuSans-24" transform="translate(296.046875 0)"/>
     <use xlink:href="#DejaVuSans-37" transform="translate(356.6875 0)"/>
     <use xlink:href="#DejaVuSans-37" transform="translate(416.015625 0)"/>
    </g>
   </g>
   <g id="text_9">
    <!--   ← main ANL fuse (close to batt) -->
    <g transform="translate(0 13.226836) scale(0.105 -0.105)">
     <defs>
      <path id="DejaVuSans-c1a" d="M 313 1866 
L 313 2147 
L 1541 3375 
L 1916 3000 
L 1188 2272 
L 4997 2272 
L 4997 1741 
L 1188 1741 
L 1916 1013 
L 1541 638 
L 313 1866 
z
" transform="scale(0.015625)"/>
      <path id="DejaVuSans-49" d="M 2375 4863 
L 2375 4384 
L 1825 4384 
Q 1516 4384 1395 4259 
Q 1275 4134 1275 3809 
L 1275 3500 
L 2222 3500 
L 2222 3053 
L 1275 3053 
L 1275 0 
L 697 0 
L 697 3053 
L 147 3053 
L 147 3500 
L 697 3500 
L 697 3744 
Q 697 4328 969 4595 
Q 1241 4863 1831 4863 
L 2375 4863 
z
" transform="scale(0.015625)"/>
      <path id="DejaVuSans-58" d="M 544 1381 
L 544 3500 
L 1119 3500 
L 1119 1403 
Q 1119 906 1312 657 
Q 1506 409 1894 409 
Q 2359 409 2629 706 
Q 2900 1003 2900 1516 
L 2900 3500 
L 3475 3500 
L 3475 0 
L 2900 0 
L 2900 538 
Q 2691 219 2414 64 
Q 2138 -91 1772 -91 
Q 1169 -91 856 284 
Q 544 659 544 1381 
z
M 1991 3584 
L 1991 3584 
z
" transform="scale(0.015625)"/>
      <path id="DejaVuSans-48" d="M 3597 1894 
L 3597 1613 
L 953 1613 
Q 991 1019 1311 708 
Q 1631 397 2203 397 
Q 2534 397 2845 478 
Q 3156 559 3463 722 
L 3463 178 
Q 3153 47 2828 -22 
Q 2503 -91 2169 -91 
Q 1331 -91 842 396 
Q 353 884 353 1716 
Q 353 2575 817 3079 
Q 1281 3584 2069 3584 
Q 2775 3584 3186 3129 
Q 3597 2675 3597 1894 
z
M 3022 2063 
Q 3016 2534 2758 2815 
Q 2500 3097 2075 3097 
Q 1594 3097 1305 2825 
Q 1016 2553 972 2059 
L 3022 2063 
z
" transform="scale(0.015625)"/>
     </defs>
     <use xlink:href="#DejaVuSans-3"/>
     <use xlink:href="#DejaVuSans-3" transform="translate(31.78125 0)"/>
     <use xlink:href="#DejaVuSans-c1a" transform="translate(63.5625 0)"/>
     <use xlink:href="#DejaVuSans-3" transform="translate(147.359375 0)"/>
     <use xlink:href="#DejaVuSans-50" transform="translate(179.140625 0)"/>
     <use xlink:href="#DejaVuSans-44" transform="translate(276.546875 0)"/>
     <use xlink:href="#DejaVuSans-4c" transform="translate(337.828125 0)"/>
     <use xlink:href="#DejaVuSans-51" transform="translate(365.609375 0)"/>
     <use xlink:href="#DejaVuSans-3" transform="translate(428.984375 0)"/>
     <use xlink:href="#DejaVuSans-24" transform="translate(460.765625 0)"/>
     <use xlink:href="#DejaVuSans-31" transform="translate(529.171875 0)"/>
     <use xlink:href="#DejaVuSans-2f" transform="translate(603.984375 0)"/>
     <use xlink:href="#DejaVuSans-3" transform="translate(659.703125 0)"/>
     <use xlink:href="#DejaVuSans-49" transform="translate(691.484375 0)"/>
     <use xlink:href="#DejaVuSans-58" transform="translate(726.6875 0)"/>
     <use xlink:href="#DejaVuSans-56" transform="translate(790.0625 0)"/>
     <use xlink:href="#DejaVuSans-48" transform="translate(842.15625 0)"/>
     <use xlink:href="#DejaVuSans-3" transform="translate(903.6875 0)"/>
     <use xlink:href="#DejaVuSans-b" transform="translate(935.46875 0)"/>
     <use xlink:href="#DejaVuSans-46" transform="translate(974.484375 0)"/>
     <use xlink:href="#DejaVuSans-4f" transform="translate(1029.46875 0)"/>
     <use xlink:href="#DejaVuSans-52" transform="translate(1057.25 0)"/>
     <use xlink:href="#DejaVuSans-56" transform="translate(1118.4375 0)"/>
     <use xlink:href="#DejaVuSans-48" transform="translate(1170.53125 0)"/>
     <use xlink:href="#DejaVuSans-3" transform="translate(1232.0625 0)"/>
     <use xlink:href="#DejaVuSans-57" transform="translate(1263.84375 0)"/>
     <use xlink:href="#DejaVuSans-52" transform="translate(1303.046875 0)"/>
     <use xlink:href="#DejaVuSans-3" transform="translate(1364.234375 0)"/>
     <use xlink:href="#DejaVuSans-45" transform="translate(1396.015625 0)"/>
     <use xlink:href="#DejaVuSans-44" transform="translate(1459.5 0)"/>
     <use xlink:href="#DejaVuSans-57" transform="translate(1520.78125 0)"/>
     <use xlink:href="#DejaVuSans-57" transform="translate(1559.984375 0)"/>
     <use xlink:href="#DejaVuSans-c" transform="translate(1599.1875 0)"/>
    </g>
   </g>
   <g id="text_10">
    <!-- SPAL Fan -->
    <g transform="translate(343.375078 215.651836) scale(0.105 -0.105)">
     <use xlink:href="#DejaVuSans-36"/>
     <use xlink:href="#DejaVuSans-33" transform="translate(63.484375 0)"/>
     <use xlink:href="#DejaVuSans-24" transform="translate(117.390625 0)"/>
     <use xlink:href="#DejaVuSans-2f" transform="translate(185.796875 0)"/>
     <use xlink:href="#DejaVuSans-3" transform="translate(241.515625 0)"/>
     <use xlink:href="#DejaVuSans-29" transform="translate(273.296875 0)"/>
     <use xlink:href="#DejaVuSans-44" transform="translate(321.640625 0)"/>
     <use xlink:href="#DejaVuSans-51" transform="translate(382.921875 0)"/>
    </g>
    <!-- Motor -->
    <g transform="translate(351.634805 226.08293) scale(0.105 -0.105)">
     <use xlink:href="#DejaVuSans-30"/>
     <use xlink:href="#DejaVuSans-52" transform="translate(86.28125 0)"/>
     <use xlink:href="#DejaVuSans-57" transform="translate(147.46875 0)"/>
     <use xlink:href="#DejaVuSans-52" transform="translate(186.671875 0)"/>
     <use xlink:href="#DejaVuSans-55" transform="translate(247.859375 0)"/>
    </g>
   </g>
   <g id="text_11">
    <!--   30 -->
    <g transform="translate(267.570352 177.401836) scale(0.105 -0.105)">
     <use xlink:href="#DejaVuSans-3"/>
     <use xlink:href="#DejaVuSans-3" transform="translate(31.78125 0)"/>
     <use xlink:href="#DejaVuSans-16" transform="translate(63.5625 0)"/>
     <use xlink:href="#DejaVuSans-13" transform="translate(127.1875 0)"/>
    </g>
   </g>
   <g id="text_12">
    <!--   87 -->
    <g transform="translate(267.570352 249.401836) scale(0.105 -0.105)">
     <defs>
      <path id="DejaVuSans-1a" d="M 525 4666 
L 3525 4666 
L 3525 4397 
L 1831 0 
L 1172 0 
L 2766 4134 
L 525 4134 
L 525 4666 
z
" transform="scale(0.015625)"/>
     </defs>
     <use xlink:href="#DejaVuSans-3"/>
     <use xlink:href="#DejaVuSans-3" transform="translate(31.78125 0)"/>
     <use xlink:href="#DejaVuSans-1b" transform="translate(63.5625 0)"/>
     <use xlink:href="#DejaVuSans-1a" transform="translate(127.1875 0)"/>
    </g>
   </g>
   <g id="text_13">
    <!-- Coil circuit (left):  IGN on + ECU activates GPO 6 → coil energizes -->
    <g transform="translate(100.846663 286.427344) scale(0.105 -0.105)">
     <defs>
      <path id="DejaVuSans-1d" d="M 750 794 
L 1409 794 
L 1409 0 
L 750 0 
L 750 794 
z
M 750 3309 
L 1409 3309 
L 1409 2516 
L 750 2516 
L 750 3309 
z
" transform="scale(0.015625)"/>
      <path id="DejaVuSans-59" d="M 191 3500 
L 800 3500 
L 1894 563 
L 2988 3500 
L 3597 3500 
L 2284 0 
L 1503 0 
L 191 3500 
z
" transform="scale(0.015625)"/>
      <path id="DejaVuSans-c1c" d="M 5050 2147 
L 5050 1866 
L 3822 638 
L 3447 1013 
L 4175 1741 
L 366 1741 
L 366 2272 
L 4175 2272 
L 3447 3000 
L 3822 3375 
L 5050 2147 
z
" transform="scale(0.015625)"/>
      <path id="DejaVuSans-4a" d="M 2906 1791 
Q 2906 2416 2648 2759 
Q 2391 3103 1925 3103 
Q 1463 3103 1205 2759 
Q 947 2416 947 1791 
Q 947 1169 1205 825 
Q 1463 481 1925 481 
Q 2391 481 2648 825 
Q 2906 1169 2906 1791 
z
M 3481 434 
Q 3481 -459 3084 -895 
Q 2688 -1331 1869 -1331 
Q 1566 -1331 1297 -1286 
Q 1028 -1241 775 -1147 
L 775 -588 
Q 1028 -725 1275 -790 
Q 1522 -856 1778 -856 
Q 2344 -856 2625 -561 
Q 2906 -266 2906 331 
L 2906 616 
Q 2728 306 2450 153 
Q 2172 0 1784 0 
Q 1141 0 747 490 
Q 353 981 353 1791 
Q 353 2603 747 3093 
Q 1141 3584 1784 3584 
Q 2172 3584 2450 3431 
Q 2728 3278 2906 2969 
L 2906 3500 
L 3481 3500 
L 3481 434 
z
" transform="scale(0.015625)"/>
      <path id="DejaVuSans-5d" d="M 353 3500 
L 3084 3500 
L 3084 2975 
L 922 459 
L 3084 459 
L 3084 0 
L 275 0 
L 275 525 
L 2438 3041 
L 353 3041 
L 353 3500 
z
" transform="scale(0.015625)"/>
     </defs>
     <use xlink:href="#DejaVuSans-26"/>
     <use xlink:href="#DejaVuSans-52" transform="translate(69.828125 0)"/>
     <use xlink:href="#DejaVuSans-4c" transform="translate(131.015625 0)"/>
     <use xlink:href="#DejaVuSans-4f" transform="translate(158.796875 0)"/>
     <use xlink:href="#DejaVuSans-3" transform="translate(186.578125 0)"/>
     <use xlink:href="#DejaVuSans-46" transform="translate(218.359375 0)"/>
     <use xlink:href="#DejaVuSans-4c" transform="translate(273.34375 0)"/>
     <use xlink:href="#DejaVuSans-55" transform="translate(301.125 0)"/>
     <use xlink:href="#DejaVuSans-46" transform="translate(340.03125 0)"/>
     <use xlink:href="#DejaVuSans-58" transform="translate(395.015625 0)"/>
     <use xlink:href="#DejaVuSans-4c" transform="translate(458.390625 0)"/>
     <use xlink:href="#DejaVuSans-57" transform="translate(486.171875 0)"/>
     <use xlink:href="#DejaVuSans-3" transform="translate(525.375 0)"/>
     <use xlink:href="#DejaVuSans-b" transform="translate(557.15625 0)"/>
     <use xlink:href="#DejaVuSans-4f" transform="translate(596.171875 0)"/>
     <use xlink:href="#DejaVuSans-48" transform="translate(623.953125 0)"/>
     <use xlink:href="#DejaVuSans-49" transform="translate(685.484375 0)"/>
     <use xlink:href="#DejaVuSans-57" transform="translate(718.9375 0)"/>
     <use xlink:href="#DejaVuSans-c" transform="translate(758.140625 0)"/>
     <use xlink:href="#DejaVuSans-1d" transform="translate(797.15625 0)"/>
     <use xlink:href="#DejaVuSans-3" transform="translate(830.84375 0)"/>
     <use xlink:href="#DejaVuSans-3" transform="translate(862.625 0)"/>
     <use xlink:href="#DejaVuSans-2c" transform="translate(894.40625 0)"/>
     <use xlink:href="#DejaVuSans-2a" transform="translate(923.90625 0)"/>
     <use xlink:href="#DejaVuSans-31" transform="translate(1001.390625 0)"/>
     <use xlink:href="#DejaVuSans-3" transform="translate(1076.203125 0)"/>
     <use xlink:href="#DejaVuSans-52" transform="translate(1107.984375 0)"/>
     <use xlink:href="#DejaVuSans-51" transform="translate(1169.171875 0)"/>
     <use xlink:href="#DejaVuSans-3" transform="translate(1232.546875 0)"/>
     <use xlink:href="#DejaVuSans-e" transform="translate(1264.328125 0)"/>
     <use xlink:href="#DejaVuSans-3" transform="translate(1348.125 0)"/>
     <use xlink:href="#DejaVuSans-28" transform="translate(1379.90625 0)"/>
     <use xlink:href="#DejaVuSans-26" transform="translate(1443.09375 0)"/>
     <use xlink:href="#DejaVuSans-38" transform="translate(1512.921875 0)"/>
     <use xlink:href="#DejaVuSans-3" transform="translate(1586.109375 0)"/>
     <use xlink:href="#DejaVuSans-44" transform="translate(1617.890625 0)"/>
     <use xlink:href="#DejaVuSans-46" transform="translate(1679.171875 0)"/>
     <use xlink:href="#DejaVuSans-57" transform="translate(1734.15625 0)"/>
     <use xlink:href="#DejaVuSans-4c" transform="translate(1773.359375 0)"/>
     <use xlink:href="#DejaVuSans-59" transform="translate(1801.140625 0)"/>
     <use xlink:href="#DejaVuSans-44" transform="translate(1860.328125 0)"/>
     <use xlink:href="#DejaVuSans-57" transform="translate(1921.609375 0)"/>
     <use xlink:href="#DejaVuSans-48" transform="translate(1960.8125 0)"/>
     <use xlink:href="#DejaVuSans-56" transform="translate(2022.34375 0)"/>
     <use xlink:href="#DejaVuSans-3" transform="translate(2074.4375 0)"/>
     <use xlink:href="#DejaVuSans-2a" transform="translate(2106.21875 0)"/>
     <use xlink:href="#DejaVuSans-33" transform="translate(2183.703125 0)"/>
     <use xlink:href="#DejaVuSans-32" transform="translate(2244 0)"/>
     <use xlink:href="#DejaVuSans-3" transform="translate(2322.71875 0)"/>
     <use xlink:href="#DejaVuSans-19" transform="translate(2354.5 0)"/>
     <use xlink:href="#DejaVuSans-3" transform="translate(2418.125 0)"/>
     <use xlink:href="#DejaVuSans-c1c" transform="translate(2449.90625 0)"/>
     <use xlink:href="#DejaVuSans-3" transform="translate(2533.703125 0)"/>
     <use xlink:href="#DejaVuSans-46" transform="translate(2565.484375 0)"/>
     <use xlink:href="#DejaVuSans-52" transform="translate(2620.46875 0)"/>
     <use xlink:href="#DejaVuSans-4c" transform="translate(2681.65625 0)"/>
     <use xlink:href="#DejaVuSans-4f" transform="translate(2709.4375 0)"/>
     <use xlink:href="#DejaVuSans-3" transform="translate(2737.21875 0)"/>
     <use xlink:href="#DejaVuSans-48" transform="translate(2769 0)"/>
     <use xlink:href="#DejaVuSans-51" transform="translate(2830.53125 0)"/>
     <use xlink:href="#DejaVuSans-48" transform="translate(2893.90625 0)"/>
     <use xlink:href="#DejaVuSans-55" transform="translate(2955.4375 0)"/>
     <use xlink:href="#DejaVuSans-4a" transform="translate(2994.796875 0)"/>
     <use xlink:href="#DejaVuSans-4c" transform="translate(3058.28125 0)"/>
     <use xlink:href="#DejaVuSans-5d" transform="translate(3086.0625 0)"/>
     <use xlink:href="#DejaVuSans-48" transform="translate(3138.546875 0)"/>
     <use xlink:href="#DejaVuSans-56" transform="translate(3200.078125 0)"/>
    </g>
    <!-- Load circuit (right): Contact closes → BATT+ reaches fan motor -->
    <g transform="translate(106.248421 296.927344) scale(0.105 -0.105)">
     <defs>
      <path id="DejaVuSans-47" d="M 2906 2969 
L 2906 4863 
L 3481 4863 
L 3481 0 
L 2906 0 
L 2906 525 
Q 2725 213 2448 61 
Q 2172 -91 1784 -91 
Q 1150 -91 751 415 
Q 353 922 353 1747 
Q 353 2572 751 3078 
Q 1150 3584 1784 3584 
Q 2172 3584 2448 3432 
Q 2725 3281 2906 2969 
z
M 947 1747 
Q 947 1113 1208 752 
Q 1469 391 1925 391 
Q 2381 391 2643 752 
Q 2906 1113 2906 1747 
Q 2906 2381 2643 2742 
Q 2381 3103 1925 3103 
Q 1469 3103 1208 2742 
Q 947 2381 947 1747 
z
" transform="scale(0.015625)"/>
     </defs>
     <use xlink:href="#DejaVuSans-2f"/>
     <use xlink:href="#DejaVuSans-52" transform="translate(53.96875 0)"/>
     <use xlink:href="#DejaVuSans-44" transform="translate(115.15625 0)"/>
     <use xlink:href="#DejaVuSans-47" transform="translate(176.4375 0)"/>
     <use xlink:href="#DejaVuSans-3" transform="translate(239.921875 0)"/>
     <use xlink:href="#DejaVuSans-46" transform="translate(271.703125 0)"/>
     <use xlink:href="#DejaVuSans-4c" transform="translate(326.6875 0)"/>
     <use xlink:href="#DejaVuSans-55" transform="translate(354.46875 0)"/>
     <use xlink:href="#DejaVuSans-46" transform="translate(393.375 0)"/>
     <use xlink:href="#DejaVuSans-58" transform="translate(448.359375 0)"/>
     <use xlink:href="#DejaVuSans-4c" transform="translate(511.734375 0)"/>
     <use xlink:href="#DejaVuSans-57" transform="translate(539.515625 0)"/>
     <use xlink:href="#DejaVuSans-3" transform="translate(578.71875 0)"/>
     <use xlink:href="#DejaVuSans-b" transform="translate(610.5 0)"/>
     <use xlink:href="#DejaVuSans-55" transform="translate(649.515625 0)"/>
     <use xlink:href="#DejaVuSans-4c" transform="translate(690.625 0)"/>
     <use xlink:href="#DejaVuSans-4a" transform="translate(718.40625 0)"/>
     <use xlink:href="#DejaVuSans-4b" transform="translate(781.890625 0)"/>
     <use xlink:href="#DejaVuSans-57" transform="translate(845.265625 0)"/>
     <use xlink:href="#DejaVuSans-c" transform="translate(884.46875 0)"/>
     <use xlink:href="#DejaVuSans-1d" transform="translate(923.484375 0)"/>
     <use xlink:href="#DejaVuSans-3" transform="translate(957.171875 0)"/>
     <use xlink:href="#DejaVuSans-26" transform="translate(988.953125 0)"/>
     <use xlink:href="#DejaVuSans-52" transform="translate(1058.78125 0)"/>
     <use xlink:href="#DejaVuSans-51" transform="translate(1119.96875 0)"/>
     <use xlink:href="#DejaVuSans-57" transform="translate(1183.34375 0)"/>
     <use xlink:href="#DejaVuSans-44" transform="translate(1222.546875 0)"/>
     <use xlink:href="#DejaVuSans-46" transform="translate(1283.828125 0)"/>
     <use xlink:href="#DejaVuSans-57" transform="translate(1338.8125 0)"/>
     <use xlink:href="#DejaVuSans-3" transform="translate(1378.015625 0)"/>
     <use xlink:href="#DejaVuSans-46" transform="translate(1409.796875 0)"/>
     <use xlink:href="#DejaVuSans-4f" transform="translate(1464.78125 0)"/>
     <use xlink:href="#DejaVuSans-52" transform="translate(1492.5625 0)"/>
     <use xlink:href="#DejaVuSans-56" transform="translate(1553.75 0)"/>
     <use xlink:href="#DejaVuSans-48" transform="translate(1605.84375 0)"/>
     <use xlink:href="#DejaVuSans-56" transform="translate(1667.375 0)"/>
     <use xlink:href="#DejaVuSans-3" transform="translate(1719.46875 0)"/>
     <use xlink:href="#DejaVuSans-c1c" transform="translate(1751.25 0)"/>
     <use xlink:href="#DejaVuSans-3" transform="translate(1835.046875 0)"/>
     <use xlink:href="#DejaVuSans-25" transform="translate(1866.828125 0)"/>
     <use xlink:href="#DejaVuSans-24" transform="translate(1935.4375 0)"/>
     <use xlink:href="#DejaVuSans-37" transform="translate(1996.078125 0)"/>
     <use xlink:href="#DejaVuSans-37" transform="translate(2055.40625 0)"/>
     <use xlink:href="#DejaVuSans-e" transform="translate(2116.484375 0)"/>
     <use xlink:href="#DejaVuSans-3" transform="translate(2200.28125 0)"/>
     <use xlink:href="#DejaVuSans-55" transform="translate(2232.0625 0)"/>
     <use xlink:href="#DejaVuSans-48" transform="translate(2270.96875 0)"/>
     <use xlink:href="#DejaVuSans-44" transform="translate(2332.5 0)"/>
     <use xlink:href="#DejaVuSans-46" transform="translate(2393.78125 0)"/>
     <use xlink:href="#DejaVuSans-4b" transform="translate(2448.765625 0)"/>
     <use xlink:href="#DejaVuSans-48" transform="translate(2512.140625 0)"/>
     <use xlink:href="#DejaVuSans-56" transform="translate(2573.671875 0)"/>
     <use xlink:href="#DejaVuSans-3" transform="translate(2625.765625 0)"/>
     <use xlink:href="#DejaVuSans-49" transform="translate(2657.546875 0)"/>
     <use xlink:href="#DejaVuSans-44" transform="translate(2692.75 0)"/>
     <use xlink:href="#DejaVuSans-51" transform="translate(2754.03125 0)"/>
     <use xlink:href="#DejaVuSans-3" transform="translate(2817.40625 0)"/>
     <use xlink:href="#DejaVuSans-50" transform="translate(2849.1875 0)"/>
     <use xlink:href="#DejaVuSans-52" transform="translate(2946.59375 0)"/>
     <use xlink:href="#DejaVuSans-57" transform="translate(3007.78125 0)"/>
     <use xlink:href="#DejaVuSans-52" transform="translate(3046.984375 0)"/>
     <use xlink:href="#DejaVuSans-55" transform="translate(3108.171875 0)"/>
    </g>
   </g>
   <g id="patch_12">
    <path d="M 59.185686 179.88 
C 59.901735 179.88 60.588552 179.595511 61.094875 179.089188 
C 61.601197 178.582866 61.885686 177.896048 61.885686 177.18 
C 61.885686 176.463952 61.601197 175.777134 61.094875 175.270812 
C 60.588552 174.764489 59.901735 174.48 59.185686 174.48 
C 58.469638 174.48 57.782821 174.764489 57.276498 175.270812 
C 56.770175 175.777134 56.485686 176.463952 56.485686 177.18 
C 56.485686 177.896048 56.770175 178.582866 57.276498 179.089188 
C 57.782821 179.595511 58.469638 179.88 59.185686 179.88 
z
" clip-path="url(#p0b99c58fb2)" style="stroke: #000000; stroke-width: 2; stroke-linejoin: miter"/>
   </g>
   <g id="patch_13">
    <path d="M 132.805664 129.48 
C 133.521712 129.48 134.20853 129.195511 134.714852 128.689188 
C 135.221175 128.182866 135.505664 127.496048 135.505664 126.78 
C 135.505664 126.063952 135.221175 125.377134 134.714852 124.870812 
C 134.20853 124.364489 133.521712 124.08 132.805664 124.08 
C 132.089616 124.08 131.402798 124.364489 130.896476 124.870812 
C 130.390153 125.377134 130.105664 126.063952 130.105664 126.78 
C 130.105664 127.496048 130.390153 128.182866 130.896476 128.689188 
C 131.402798 129.195511 132.089616 129.48 132.805664 129.48 
z
" clip-path="url(#p0b99c58fb2)" style="stroke: #000000; stroke-width: 2; stroke-linejoin: miter"/>
   </g>
   <g id="patch_14">
    <path d="M 89.605664 21.48 
C 90.321712 21.48 91.00853 21.195511 91.514852 20.689188 
C 92.021175 20.182866 92.305664 19.496048 92.305664 18.78 
C 92.305664 18.063952 92.021175 17.377134 91.514852 16.870812 
C 91.00853 16.364489 90.321712 16.08 89.605664 16.08 
C 88.889616 16.08 88.202798 16.364489 87.696476 16.870812 
C 87.190153 17.377134 86.905664 18.063952 86.905664 18.78 
C 86.905664 19.496048 87.190153 20.182866 87.696476 20.689188 
C 88.202798 21.195511 88.889616 21.48 89.605664 21.48 
z
" clip-path="url(#p0b99c58fb2)" style="stroke: #000000; stroke-width: 2; stroke-linejoin: miter"/>
   </g>
  </g>
 </g>
 <defs>
  <clipPath id="p0b99c58fb2">
   <rect x="7.804664" y="-0" width="437.481" height="303.96"/>
  </clipPath>
 </defs>
</svg>
